<?xml version="1.0" standalone="no"?>
<!DOCTYPE svg PUBLIC "-//W3C//DTD SVG 20010904//EN"
 "http://www.w3.org/TR/2001/REC-SVG-20010904/DTD/svg10.dtd">
<svg version="1.0" xmlns="http://www.w3.org/2000/svg"
 width="1200.000000pt" height="713.000000pt" viewBox="0 0 1200.000000 713.000000"
 preserveAspectRatio="xMidYMid meet">

<g transform="translate(0.000000,713.000000) scale(0.100000,-0.100000)"
fill="#000000" stroke="none">
<path d="M9620 5600 l0 -1170 -737 2 c-406 0 -691 4 -633 8 119 8 162 22 212
73 80 80 88 204 20 296 -23 31 -28 33 -73 29 -31 -3 -46 -1 -42 5 4 6 1 7 -8
2 -7 -5 -31 -8 -53 -6 -35 2 -38 1 -27 -12 7 -9 11 -24 9 -34 -2 -13 3 -18 20
-18 32 -1 45 -25 26 -47 -14 -15 -14 -18 5 -30 24 -15 28 -48 7 -48 -23 0 -29
-20 -12 -38 19 -22 7 -43 -25 -40 -20 3 -24 -1 -22 -24 2 -30 -26 -48 -39 -24
-11 19 -34 11 -41 -15 -7 -25 -37 -25 -37 0 0 24 -31 37 -42 17 -14 -24 -41
-7 -34 20 4 16 2 24 -6 25 -7 1 -22 2 -33 3 -20 1 -35 36 -16 36 6 0 11 9 11
20 0 13 -7 20 -20 20 -13 0 -20 7 -20 19 0 11 9 23 20 26 22 7 27 31 9 37 -7
2 -9 13 -5 26 6 18 12 21 33 16 24 -6 25 -5 19 19 -4 19 -1 29 11 35 25 15
-29 23 -102 16 -33 -3 -66 -6 -73 -6 -8 -1 -26 -20 -40 -42 -20 -31 -27 -57
-30 -106 -4 -77 12 -122 64 -180 26 -29 34 -45 29 -60 -6 -19 -14 -20 -173
-20 l-167 0 -34 -35 c-19 -20 -32 -37 -30 -39 24 -20 65 -26 194 -26 127 0
146 -2 141 -15 -7 -19 2 -19 47 0 31 13 134 15 724 14 458 -1 673 -4 643 -11
-25 -5 -87 -10 -138 -11 -75 -2 -89 -4 -76 -14 9 -7 22 -14 28 -17 15 -6 -12
-25 -46 -33 -33 -7 -35 -14 -8 -38 30 -27 25 -35 -25 -35 -54 0 -58 -14 -14
-56 30 -29 31 -29 145 -28 63 1 114 0 114 -2 0 -2 -12 -10 -27 -18 l-28 -15
36 -1 c19 0 57 7 83 16 26 9 49 14 52 11 3 -3 -2 -17 -11 -31 l-17 -26 32 7
c30 5 32 4 25 -16 -4 -13 -4 -39 0 -59 l7 -36 18 41 c21 47 31 56 55 47 26
-10 11 -62 -31 -105 -32 -33 -35 -41 -32 -85 l3 -49 39 55 c22 30 55 70 74 89
41 41 80 121 88 182 5 38 2 49 -19 74 -19 24 -23 38 -19 65 5 34 4 35 -15 17
-20 -18 -21 -17 -49 30 -21 35 -29 43 -32 30 -3 -13 -9 -16 -25 -11 -12 4 -42
13 -67 20 -41 11 -28 13 128 13 l172 1 0 1220 0 1220 -45 0 -45 0 0 -1170z
m-1613 -776 c-3 -3 -12 -4 -19 -1 -8 3 -5 6 6 6 11 1 17 -2 13 -5z m320 0 c-3
-3 -12 -4 -19 -1 -8 3 -5 6 6 6 11 1 17 -2 13 -5z"/>
<path d="M5650 6425 l0 -55 245 0 245 0 0 55 0 55 -245 0 -245 0 0 -55z"/>
<path d="M6893 6423 c-43 -8 -81 -58 -88 -116 -3 -28 -5 -277 -3 -552 3 -463
4 -502 21 -527 42 -61 6 -59 901 -56 l816 3 32 33 33 32 0 554 c0 547 0 555
-21 583 -11 15 -36 33 -55 40 -25 9 -236 12 -824 11 -434 0 -800 -3 -812 -5z
m237 -498 l0 -75 60 0 60 0 0 75 0 75 45 0 45 0 0 -200 0 -200 -45 0 -45 0 0
80 0 80 -60 0 -60 0 0 -80 0 -80 -45 0 -45 0 0 200 0 200 45 0 45 0 0 -75z
m530 30 l0 -45 -45 0 -44 0 -3 -152 -3 -153 -47 -3 -48 -3 0 155 0 156 -50 0
-50 0 0 38 c0 21 3 42 7 45 3 4 69 7 145 7 l138 0 0 -45z m175 -40 c28 -46 52
-85 55 -85 3 0 27 39 55 85 l49 85 43 0 43 0 0 -200 0 -200 -45 0 -44 0 -3
108 -3 107 -40 -69 c-22 -38 -45 -71 -52 -73 -6 -2 -31 29 -55 69 l-43 73 -3
-108 -3 -107 -44 0 -45 0 0 200 0 200 43 0 43 0 49 -85z m403 -72 l3 -153 64
0 65 0 0 -45 0 -46 -112 3 -113 3 -3 185 c-1 101 0 190 3 198 3 9 19 12 47 10
l43 -3 3 -152z"/>
<path d="M5650 5745 l0 -35 160 0 160 0 0 35 0 35 -160 0 -160 0 0 -35z"/>
<path d="M5650 5445 l0 -35 410 0 410 0 0 35 0 35 -410 0 -410 0 0 -35z"/>
<path d="M9010 5100 c0 -27 -29 -38 -45 -17 -14 19 -24 21 -44 8 -10 -6 -10
-13 -2 -29 13 -25 -8 -47 -38 -37 -27 8 -47 -27 -26 -45 25 -21 19 -50 -10
-50 -20 0 -25 -5 -25 -25 0 -18 5 -25 20 -25 28 0 36 -27 15 -50 -15 -16 -16
-22 -5 -35 8 -10 22 -14 36 -11 26 7 47 -13 34 -34 -5 -9 -5 -19 2 -27 14 -17
28 -16 42 3 15 20 46 8 46 -17 0 -14 7 -19 25 -19 18 0 25 5 25 19 0 26 31 36
47 16 7 -11 19 -15 32 -10 16 5 20 14 18 38 -2 30 0 32 29 30 39 -3 52 21 28
48 -20 22 -12 49 16 49 15 0 20 7 20 25 0 18 -5 25 -20 25 -29 0 -36 27 -14
51 22 24 7 44 -34 44 -23 0 -27 4 -27 27 0 40 -20 56 -43 35 -23 -21 -52 -13
-52 14 0 14 -7 19 -25 19 -18 0 -25 -5 -25 -20z m70 -115 c17 -9 30 -18 30
-21 0 -2 -10 1 -22 7 -12 6 -33 15 -47 20 -17 5 -20 8 -8 8 10 1 31 -6 47 -14z
m-16 -16 c71 -33 45 -139 -34 -139 -28 0 -70 43 -70 73 0 23 31 59 60 70 8 3
16 6 17 6 1 1 13 -4 27 -10z"/>
<path d="M7366 4945 c-12 -12 -20 -13 -35 -5 -30 15 -40 12 -53 -15 -7 -16
-19 -25 -33 -25 -28 0 -55 -30 -55 -61 0 -13 -7 -33 -15 -43 -21 -27 -19 -49
6 -80 14 -18 18 -31 12 -37 -16 -16 -3 -55 34 -98 38 -45 63 -56 37 -17 -21
34 -15 70 14 74 18 3 22 -1 22 -22 0 -23 16 -44 26 -33 3 2 8 22 11 43 3 22
14 50 25 63 10 13 18 32 18 42 0 26 17 24 105 -11 102 -40 158 -40 207 0 44
36 57 80 34 115 -9 13 -13 30 -10 38 2 7 0 26 -6 41 -9 25 -14 28 -40 23 -16
-4 -32 -2 -35 3 -11 18 -63 11 -78 -10 -13 -19 -15 -19 -21 -4 -5 13 -15 15
-44 11 -23 -3 -48 1 -63 9 -32 17 -44 17 -63 -1z"/>
<path d="M9321 4913 c-32 -34 -8 -89 39 -89 32 0 53 20 53 51 0 13 -7 30 -14
37 -19 18 -62 18 -78 1z m58 -16 c8 -10 7 -17 -1 -25 -17 -17 -38 -15 -38 3 0
8 5 15 11 15 5 0 7 5 4 10 -9 15 11 12 24 -3z"/>
<path d="M8145 4840 c6 -10 4 -12 -10 -6 -15 5 -16 4 -5 -9 7 -8 16 -15 21
-15 13 0 11 28 -3 36 -7 5 -8 3 -3 -6z"/>
<path d="M8223 4843 c-18 -6 -16 -33 1 -33 19 0 31 19 20 30 -5 4 -15 5 -21 3z"/>
<path d="M9240 4759 c0 -6 -9 -8 -20 -4 -16 5 -20 2 -20 -15 0 -15 -5 -20 -15
-17 -19 8 -31 -13 -14 -24 11 -6 10 -9 -4 -15 -18 -7 -24 -34 -6 -34 6 0 8 -9
4 -20 -5 -16 -2 -20 14 -20 15 0 21 -6 21 -21 0 -16 4 -19 20 -14 11 4 20 2
20 -4 0 -6 7 -11 15 -11 8 0 15 4 15 10 0 5 10 9 22 7 14 -1 23 4 23 13 0 8 7
15 15 15 9 0 14 9 13 23 -2 12 2 22 7 22 6 0 10 7 10 15 0 8 -4 15 -10 15 -5
0 -9 10 -7 23 1 14 -3 21 -11 19 -8 -1 -16 7 -19 18 -4 15 -11 19 -24 15 -11
-4 -19 -2 -19 4 0 6 -7 11 -15 11 -8 0 -15 -5 -15 -11z m55 -71 c-12 -59 -37
-76 -65 -43 -16 19 -6 43 21 54 35 12 48 9 44 -11z"/>
<path d="M8135 4725 c-27 -26 -32 -70 -12 -96 48 -63 137 -36 137 42 0 70 -77
103 -125 54z"/>
<path d="M5620 4380 l0 -50 725 0 725 0 -61 -62 c-49 -49 -58 -63 -47 -73 7
-6 59 -40 116 -74 56 -35 102 -66 102 -70 0 -14 -76 -79 -100 -86 -19 -5 -21
-4 -10 4 13 9 12 11 -5 11 -17 0 -17 2 -5 10 13 8 13 10 -1 10 -9 0 -22 7 -29
15 -15 18 -45 21 -34 3 4 -7 3 -8 -5 -4 -6 4 -9 11 -6 16 5 8 -33 26 -47 22
-4 -1 -5 5 -2 13 4 8 1 15 -5 15 -6 0 -11 -6 -11 -12 -1 -7 -6 -3 -14 10 -16
30 -18 28 -100 -137 -56 -111 -66 -138 -60 -165 17 -81 66 -140 251 -301 l91
-80 1 -75 c0 -41 1 -84 1 -95 0 -11 -2 -68 -6 -127 l-7 -108 347 0 347 0 -5
33 c-14 83 -25 199 -26 272 0 46 -10 121 -24 177 -21 89 -22 107 -13 199 8 82
7 103 -4 114 -13 12 -177 110 -304 180 -153 84 -175 100 -169 115 3 8 8 49 11
90 8 105 -18 155 -89 169 l-32 7 49 23 c28 13 63 27 79 30 16 4 31 12 34 19 3
9 -176 12 -827 12 l-831 0 0 -50z m1475 -645 c4 -66 6 -118 3 -115 -2 3 -39
42 -83 88 l-79 82 70 64 69 64 7 -32 c3 -17 10 -85 13 -151z m176 -295 c56 0
76 -14 90 -61 12 -39 12 -41 -17 -65 -16 -14 -38 -28 -49 -33 -21 -9 -75 5
-75 19 0 4 -13 13 -30 20 -16 7 -38 26 -48 44 l-18 31 40 40 c38 37 42 39 54
23 9 -12 26 -18 53 -18z"/>
<path d="M7630 4299 c0 -4 12 -27 26 -53 29 -52 48 -128 59 -227 7 -68 -2 -91
-25 -64 -6 8 -32 26 -56 40 -24 14 -44 30 -44 36 0 6 -4 7 -10 4 -5 -3 -17 10
-27 29 -9 19 -22 37 -30 40 -19 8 24 -74 88 -164 29 -41 110 -133 181 -204
126 -125 129 -128 166 -123 20 3 46 8 58 12 19 6 26 -9 88 -177 37 -101 74
-201 83 -223 19 -49 26 -66 50 -129 10 -27 24 -51 31 -54 14 -4 20 -23 -111
328 -99 267 -115 320 -99 320 6 0 13 -6 15 -12 7 -16 67 45 67 68 0 8 -4 12
-10 9 -5 -3 -11 2 -11 12 -2 33 -4 38 -17 53 -6 8 -20 26 -30 39 l-19 24 -46
-42 -46 -42 -24 38 c-13 21 -70 116 -127 211 -88 147 -178 273 -180 251z"/>
<path d="M2221 4114 c-11 -14 -22 -30 -24 -37 -3 -9 -8 -9 -18 1 -21 20 -32
14 -26 -14 3 -15 -3 -45 -14 -68 -24 -53 -24 -99 1 -189 11 -39 23 -103 27
-140 7 -83 23 -97 118 -105 79 -6 85 -2 151 107 26 42 54 87 63 101 l16 25 6
-40 6 -40 8 43 c8 47 27 62 74 62 17 0 30 4 29 9 -2 5 12 20 31 33 19 12 41
33 49 46 14 22 14 22 -30 22 -59 0 -65 9 -25 34 l32 21 -26 3 c-14 2 -61 32
-104 68 -43 36 -89 70 -102 75 -41 15 -119 10 -168 -11 -26 -11 -49 -20 -52
-20 -2 0 -1 9 2 20 9 27 1 25 -24 -6z"/>
<path d="M8199 3984 c-19 -14 -40 -29 -48 -34 -12 -6 -8 -21 19 -84 19 -42 36
-76 40 -76 3 0 25 20 49 44 39 40 42 47 36 77 -11 47 -37 99 -50 99 -6 0 -27
-12 -46 -26z"/>
<path d="M8417 3837 c-16 -11 -17 -31 -15 -182 l3 -169 25 -7 c14 -4 127 -7
252 -8 198 -1 229 1 243 16 14 14 16 38 13 175 -3 144 -5 161 -22 174 -27 19
-473 21 -499 1z m293 -52 c0 -3 -14 -62 -31 -130 -23 -90 -36 -125 -46 -125
-8 0 -13 6 -11 13 3 6 18 65 34 130 18 74 33 117 41 117 7 0 13 -2 13 -5z
m-100 -59 c0 -8 -25 -24 -55 -37 -30 -12 -55 -26 -55 -29 0 -4 23 -17 52 -31
49 -23 74 -49 47 -49 -7 0 -43 14 -81 31 -88 41 -88 56 0 96 77 36 92 39 92
19z m200 -17 c46 -21 70 -37 70 -48 0 -11 -27 -30 -75 -54 -66 -32 -75 -35
-75 -19 0 12 17 26 50 42 28 13 50 27 50 30 0 4 -22 17 -50 28 -30 12 -50 27
-50 36 0 21 -1 21 80 -15z"/>
<path d="M3903 3693 c-10 -3 -13 -40 -13 -133 0 -107 3 -129 16 -134 9 -3 96
-6 194 -6 153 0 179 2 184 16 3 9 6 64 6 124 0 85 -3 112 -16 124 -13 13 -44
16 -187 15 -95 0 -178 -3 -184 -6z m147 -37 c0 -8 -5 -16 -11 -18 -6 -2 -11
-33 -11 -78 0 -45 5 -76 11 -78 19 -6 12 -32 -8 -32 -21 0 -31 19 -31 61 0 16
-4 29 -10 29 -5 0 -10 9 -10 20 0 11 5 20 10 20 6 0 10 15 10 33 0 34 15 57
37 57 7 0 13 -6 13 -14z m118 -26 c2 -19 11 -43 19 -52 15 -16 15 -20 0 -35
-8 -10 -17 -34 -19 -53 -2 -27 -8 -36 -25 -38 -16 -2 -23 2 -23 12 0 9 5 16
10 16 6 0 10 13 10 29 0 17 5 33 10 36 7 4 7 12 0 25 -5 10 -10 30 -10 44 0
14 -4 26 -10 26 -5 0 -10 7 -10 16 0 10 7 14 23 12 17 -2 23 -11 25 -38z"/>
<path d="M9917 3589 c-3 -11 -6 -169 -7 -350 -1 -279 2 -333 15 -359 20 -38
68 -63 113 -58 l35 4 -7 -81 c-12 -164 -76 -333 -164 -435 -37 -42 -40 -43
-56 -27 -17 16 -96 23 -190 17 -19 -1 -26 2 -21 10 5 8 31 10 91 5 46 -4 84
-5 84 -1 0 3 -14 13 -31 22 l-31 16 32 31 c55 53 73 102 74 194 1 45 -2 84 -5
87 -3 4 -23 0 -45 -7 -156 -55 -396 -43 -454 23 -15 16 -20 15 -90 -12 -66
-26 -91 -30 -210 -34 -152 -5 -331 -30 -372 -50 -40 -20 -58 -63 -69 -162 -12
-106 -65 -380 -125 -640 -24 -106 -44 -195 -44 -197 0 -2 -27 -25 -60 -50 -45
-35 -62 -55 -69 -83 -16 -64 -44 -252 -38 -258 18 -18 73 14 140 82 48 48 81
74 96 74 34 0 81 28 91 56 5 13 11 49 12 79 2 53 3 55 30 55 20 0 28 5 28 18
0 55 91 325 103 306 3 -5 8 -71 12 -147 7 -133 7 -139 -14 -161 -12 -12 -37
-61 -57 -107 -19 -46 -48 -101 -65 -121 -48 -61 -53 -85 -23 -115 22 -22 30
-24 72 -18 56 8 112 33 119 52 4 11 11 9 29 -8 44 -41 94 -2 94 75 0 17 -6 41
-14 51 -12 17 -10 22 23 48 187 149 512 148 693 -3 36 -30 36 -31 31 -85 -7
-69 14 -108 55 -103 21 2 32 14 49 48 19 38 22 41 23 20 1 -65 64 -93 97 -44
35 54 9 144 -41 144 -16 0 -31 12 -48 38 -84 125 -244 219 -408 238 l-60 7 0
78 c0 71 2 79 19 79 13 0 24 11 32 34 7 20 25 40 45 51 21 11 41 33 51 56 l17
39 230 2 231 3 3 24 c2 14 -3 30 -11 36 -13 9 -8 20 30 70 62 82 136 240 169
360 26 93 28 114 28 295 0 180 -3 203 -27 295 -25 92 -27 115 -27 295 0 139
-3 199 -12 208 -8 8 -46 12 -104 12 -84 0 -92 -2 -97 -21z m-849 -1276 c-10
-2 -26 -2 -35 0 -10 3 -2 5 17 5 19 0 27 -2 18 -5z m65 0 c-7 -2 -21 -2 -30 0
-10 3 -4 5 12 5 17 0 24 -2 18 -5z m474 -9 c-3 -3 -12 -4 -19 -1 -8 3 -5 6 6
6 11 1 17 -2 13 -5z m-507 -329 c8 -24 25 -44 51 -61 21 -13 39 -27 39 -30 0
-3 -37 -5 -82 -4 -112 3 -110 3 -106 -22 3 -22 7 -23 83 -20 44 1 99 0 123 -3
l42 -6 0 -78 0 -78 -61 -7 c-34 -4 -89 -16 -122 -26 -34 -11 -64 -17 -67 -14
-3 3 -7 91 -9 195 l-3 189 50 0 c49 0 51 -1 62 -35z"/>
<path d="M4942 3520 c-78 -32 -139 -125 -167 -255 -8 -39 -15 -123 -15 -191 0
-180 -16 -209 -101 -180 -24 8 -45 13 -47 11 -13 -13 14 -79 50 -119 72 -83
182 -121 273 -96 56 16 129 79 170 147 29 50 29 50 75 45 43 -4 48 -2 82 36
30 34 36 48 36 85 0 71 47 139 65 95 4 -8 6 -7 6 4 2 27 30 49 56 42 20 -5 25
-1 31 21 9 35 -2 148 -17 177 -34 67 -98 105 -202 123 -20 3 -65 19 -100 35
-65 31 -146 39 -195 20z"/>
<path d="M3061 3473 c-5 -10 -16 -97 -25 -193 -24 -260 -24 -245 0 -248 20 -3
22 3 33 155 7 87 14 175 17 196 l6 37 354 0 c195 0 354 -3 354 -7 0 -20 -31
-382 -36 -410 l-5 -33 -171 0 c-134 0 -169 -3 -160 -12 21 -21 14 -67 -14 -95
l-26 -26 153 7 c85 3 177 9 205 12 l51 6 12 52 c6 28 20 163 32 299 16 194 18
251 9 263 -11 12 -74 14 -396 14 -355 0 -384 -1 -393 -17z"/>
<path d="M3738 3210 l4 -180 -316 0 c-204 0 -316 -4 -316 -10 0 -6 113 -10
320 -10 l320 0 0 190 c0 105 -3 190 -7 190 -5 0 -7 -81 -5 -180z"/>
<path d="M3120 3340 c0 -5 16 -10 35 -10 19 0 35 5 35 10 0 6 -16 10 -35 10
-19 0 -35 -4 -35 -10z"/>
<path d="M3292 3213 l3 -78 115 0 115 0 3 54 c6 103 9 101 -124 101 l-115 0 3
-77z m134 40 c-3 -10 -10 -38 -16 -62 -6 -23 -14 -41 -17 -38 -8 8 19 117 29
117 5 0 7 -8 4 -17z m-46 -12 c0 -5 -10 -13 -22 -17 l-21 -6 24 -19 c13 -10
20 -19 16 -19 -10 0 -67 29 -67 35 0 5 52 34 63 35 4 0 7 -4 7 -9z m90 -6 c17
-9 30 -19 30 -24 0 -11 -59 -36 -67 -28 -3 4 7 11 23 18 l29 11 -27 14 c-26
14 -36 24 -23 24 4 0 19 -7 35 -15z"/>
<path d="M3128 3233 c6 -2 18 -2 25 0 6 3 1 5 -13 5 -14 0 -19 -2 -12 -5z"/>
<path d="M1585 3181 c-54 -23 -73 -96 -56 -216 7 -44 7 -72 0 -75 -15 -10 13
-89 54 -153 50 -78 128 -150 199 -184 l58 -28 0 -47 c0 -81 21 -200 50 -293
22 -67 26 -91 17 -97 -8 -5 -7 -8 4 -8 16 0 29 -19 29 -42 0 -5 -22 -8 -52 -6
l-53 3 -27 -54 c-16 -30 -28 -65 -28 -77 0 -13 -9 -28 -21 -34 -13 -7 -19 -19
-17 -33 3 -22 6 -22 205 -25 l201 -2 11 -30 c5 -17 24 -38 41 -48 17 -10 35
-31 41 -49 7 -22 17 -33 30 -33 17 0 19 -8 19 -65 l0 -64 -37 -6 c-176 -29
-284 -85 -359 -186 -20 -28 -44 -49 -54 -49 -44 0 -66 -83 -34 -128 22 -31 55
-25 74 14 l16 30 14 -30 c34 -70 95 -28 88 61 -3 47 -2 48 45 80 79 53 151 76
259 81 115 5 199 -16 291 -73 57 -36 66 -48 47 -60 -5 -3 -10 -25 -10 -49 0
-76 59 -102 90 -40 l16 30 14 -30 c19 -39 52 -45 74 -14 9 12 16 32 16 44 0
15 8 24 25 28 14 4 31 17 37 31 17 37 2 71 -41 96 -21 12 -61 47 -89 79 l-51
57 -20 149 c-12 81 -21 154 -21 161 0 9 29 13 107 15 97 3 108 5 111 22 3 11
-2 25 -10 30 -9 6 -23 37 -32 69 -9 31 -30 72 -46 91 -17 18 -30 36 -30 40 0
8 44 8 90 0 35 -6 35 -6 31 -51 -5 -65 15 -187 59 -358 21 -82 42 -178 46
-213 4 -34 11 -65 15 -68 5 -3 9 -14 9 -24 0 -11 7 -38 17 -61 12 -30 25 -45
51 -56 19 -8 36 -12 39 -9 9 8 58 -21 108 -64 53 -46 80 -55 132 -45 83 15
127 66 89 103 -15 15 -16 13 -16 -28 0 -24 -3 -40 -7 -36 -4 4 -6 24 -4 44 2
35 -1 40 -46 69 -27 17 -62 47 -79 65 -17 19 -45 45 -61 59 -28 22 -32 33 -42
114 -37 284 -62 504 -67 605 -10 182 -23 199 -169 225 -50 8 -135 26 -190 40
-196 47 -188 47 -234 24 -59 -28 -131 -40 -251 -41 -156 -1 -270 33 -270 81 0
14 -3 35 -6 46 -4 18 3 22 63 38 121 31 221 106 287 216 46 77 66 149 66 245
0 97 -13 150 -45 182 l-24 24 -383 -1 c-211 0 -392 -4 -403 -8z m815 -1121 c0
-19 -7 -20 -98 -20 -86 0 -101 3 -117 20 -18 20 -17 20 98 20 110 0 117 -1
117 -20z m64 -345 c4 -11 -2 -15 -27 -15 -30 1 -31 1 -13 15 25 19 32 19 40 0z
m22 -82 c3 -16 10 -44 15 -63 5 -19 9 -44 9 -56 0 -22 3 -22 -127 2 -21 4 -23
10 -23 68 0 72 1 73 77 75 39 1 43 -2 49 -26z"/>
<path d="M3148 3183 c17 -2 47 -2 65 0 17 2 3 4 -33 4 -36 0 -50 -2 -32 -4z"/>
<path d="M3626 3122 c-18 -21 -10 -38 29 -58 32 -16 57 -7 31 11 -9 7 -16 17
-15 21 6 35 -21 51 -45 26z m26 -24 c-7 -7 -12 -8 -12 -2 0 6 3 14 7 17 3 4 9
5 12 2 2 -3 -1 -11 -7 -17z"/>
<path d="M8277 3022 c-15 -2 -25 -8 -22 -13 9 -13 655 -12 655 1 0 6 -21 11
-47 11 -102 4 -559 4 -586 1z"/>
<path d="M2813 2865 l-21 -25 241 0 242 0 -35 23 c-33 20 -48 22 -220 25
l-185 3 -22 -26z"/>
<path d="M7292 2543 c-30 -175 -56 -326 -59 -336 -4 -16 3 -18 83 -15 l88 3
13 65 c6 36 17 99 24 140 l12 74 24 -64 c28 -75 53 -302 36 -329 -6 -10 -10
-106 -9 -236 1 -206 2 -220 20 -223 15 -3 17 -9 10 -35 -5 -18 -8 -61 -7 -96
0 -57 4 -68 27 -88 20 -17 39 -23 75 -23 38 0 61 -8 117 -42 61 -38 76 -42
131 -43 51 0 66 4 87 24 30 28 33 62 9 83 -10 8 -44 27 -75 42 -39 19 -74 46
-109 87 -36 41 -59 59 -75 59 -26 0 -33 24 -11 33 10 4 16 35 20 104 4 54 21
204 39 333 28 208 31 262 32 470 0 129 -4 256 -8 283 l-7 47 -217 0 -217 0
-53 -317z"/>
<path d="M2593 2843 c9 -2 25 -2 35 0 9 3 1 5 -18 5 -19 0 -27 -2 -17 -5z"/>
<path d="M6285 2771 c-7 -12 12 -24 25 -16 11 7 4 25 -10 25 -5 0 -11 -4 -15
-9z"/>
<path d="M5933 2660 c0 -25 2 -35 4 -22 2 12 2 32 0 45 -2 12 -4 2 -4 -23z"/>
<path d="M5980 2510 l0 -180 308 2 307 3 -300 5 -300 5 0 173 c0 94 -3 172 -7
172 -5 0 -8 -81 -8 -180z"/>
<path d="M6528 2643 c12 -2 30 -2 40 0 9 3 -1 5 -23 4 -22 0 -30 -2 -17 -4z"/>
<path d="M6702 2590 c0 -14 2 -19 5 -12 2 6 2 18 0 25 -3 6 -5 1 -5 -13z"/>
<path d="M6196 2585 c-3 -9 -6 -43 -6 -75 0 -69 1 -70 114 -70 109 0 118 7
114 90 l-3 65 -106 3 c-91 2 -108 0 -113 -13z m122 -100 c0 -11 -6 -2 -13 20
-8 22 -13 49 -13 60 0 11 6 2 13 -20 8 -22 13 -49 13 -60z m-38 66 c0 -5 -10
-13 -22 -17 l-21 -6 24 -20 24 -19 -25 7 c-49 13 -54 26 -18 45 40 22 38 21
38 10z m100 -43 c-12 -10 -30 -18 -39 -18 -12 0 -10 5 8 19 l24 19 -21 6 c-12
4 -22 11 -22 17 0 5 16 1 36 -8 l36 -17 -22 -18z"/>
<path d="M5920 2545 c0 -32 -4 -45 -14 -45 -8 0 -16 6 -19 13 -2 6 -7 -26 -11
-73 -6 -75 -5 -86 11 -98 16 -11 19 -10 24 17 10 47 21 231 15 231 -3 0 -6
-20 -6 -45z"/>
<path d="M6548 2543 c6 -2 18 -2 25 0 6 3 1 5 -13 5 -14 0 -19 -2 -12 -5z"/>
<path d="M6693 2490 c0 -25 2 -35 4 -22 2 12 2 32 0 45 -2 12 -4 2 -4 -23z"/>
<path d="M4585 2500 c-101 -3 -142 -7 -100 -9 39 -2 84 -7 100 -11 17 -3 -17
-5 -75 -2 -124 5 -130 2 -149 -93 -15 -73 -3 -183 29 -267 41 -111 138 -213
244 -259 l56 -24 0 -65 c0 -86 15 -176 45 -277 l25 -82 -54 -54 c-52 -52 -76
-100 -76 -153 0 -13 -8 -24 -20 -27 -24 -6 -28 -52 -4 -61 9 -3 100 -6 203 -6
l187 0 11 -30 c6 -16 25 -38 42 -47 18 -11 35 -32 42 -51 7 -21 17 -32 30 -32
17 0 19 -8 19 -65 0 -64 0 -65 -28 -65 -43 0 -172 -39 -226 -68 -61 -33 -129
-93 -156 -137 -12 -19 -30 -35 -39 -35 -43 0 -68 -63 -47 -115 13 -31 20 -36
43 -33 20 2 33 12 45 38 13 27 17 30 18 14 0 -24 29 -54 53 -54 28 0 49 44 45
97 -3 47 -2 48 45 80 79 53 151 76 259 81 79 3 110 0 165 -16 89 -27 103 -39
110 -90 7 -50 28 -56 37 -10 6 29 8 31 22 16 13 -12 14 -20 5 -36 -25 -47 -1
-122 38 -122 23 0 51 31 51 56 0 13 6 8 18 -16 12 -25 25 -36 45 -38 23 -3 30
2 42 31 8 18 11 44 8 55 -5 20 -2 22 46 22 43 0 51 3 51 18 0 30 -22 50 -90
83 -86 42 -136 83 -149 122 -7 24 -41 303 -41 342 0 3 51 5 113 5 61 0 118 4
126 9 18 11 6 61 -14 61 -9 0 -15 10 -15 25 0 33 -24 91 -56 132 l-25 33 64 0
64 0 7 -80 c4 -48 22 -129 46 -205 41 -133 65 -239 75 -342 4 -35 10 -63 15
-63 4 0 10 -44 13 -98 6 -107 12 -132 33 -132 10 0 14 12 14 40 l0 39 28 -26
c41 -38 63 -43 198 -43 99 0 124 3 124 14 0 26 -35 55 -115 95 -117 59 -135
80 -151 188 -24 157 -45 390 -53 593 -8 211 -13 232 -64 264 -12 8 -129 35
-261 61 -215 41 -240 44 -255 31 -49 -45 -226 -73 -353 -57 -95 12 -147 25
-170 43 -9 8 -18 35 -21 71 -5 54 -4 57 17 57 12 0 44 7 70 16 152 52 268 173
311 323 37 130 25 268 -27 318 l-29 28 -232 1 c-128 0 -308 -2 -402 -6z m108
-27 c-7 -2 -21 -2 -30 0 -10 3 -4 5 12 5 17 0 24 -2 18 -5z m354 -1099 c-3 -3
-12 -4 -19 -1 -8 3 -5 6 6 6 11 1 17 -2 13 -5z m40 0 c-3 -3 -12 -4 -19 -1 -8
3 -5 6 6 6 11 1 17 -2 13 -5z m96 -1 c-13 -2 -35 -2 -50 0 -16 2 -5 4 22 4 28
0 40 -2 28 -4z m166 -355 c1 -14 -7 -18 -39 -18 -46 0 -52 11 -15 28 14 7 28
19 32 29 6 15 7 15 14 -3 4 -10 8 -27 8 -36z m-24 -58 l43 0 12 -80 c7 -45 10
-83 7 -86 -2 -3 -32 2 -65 10 -33 9 -72 16 -86 16 -25 0 -26 2 -26 63 0 55 3
64 23 73 12 6 28 10 35 8 8 -2 33 -4 57 -4z"/>
<path d="M6488 2493 c17 -2 47 -2 65 0 17 2 3 4 -33 4 -36 0 -50 -2 -32 -4z"/>
<path d="M6060 2435 c-18 -21 -4 -47 22 -43 29 4 35 34 10 47 -15 8 -23 7 -32
-4z m25 -15 c3 -5 1 -10 -4 -10 -6 0 -11 5 -11 10 0 6 2 10 4 10 3 0 8 -4 11
-10z"/>
<path d="M6025 2410 c3 -5 8 -10 11 -10 2 0 4 5 4 10 0 6 -5 10 -11 10 -5 0
-7 -4 -4 -10z"/>
<path d="M6683 2375 c0 -22 2 -30 4 -17 2 12 2 30 0 40 -3 9 -5 -1 -4 -23z"/>
<path d="M6632 2380 c0 -14 2 -19 5 -12 2 6 2 18 0 25 -3 6 -5 1 -5 -13z"/>
<path d="M6032 2379 c2 -6 8 -10 13 -10 5 0 11 4 13 10 2 6 -4 11 -13 11 -9 0
-15 -5 -13 -11z"/>
<path d="M6673 2265 c0 -22 2 -30 4 -17 2 12 2 30 0 40 -3 9 -5 -1 -4 -23z"/>
<path d="M6291 2269 c6 -11 5 -27 -1 -44 -5 -14 -10 -28 -10 -31 0 -6 66 -5
145 3 66 7 67 8 30 14 -31 5 -23 6 38 8 50 0 76 5 72 11 -4 6 -10 8 -15 5 -5
-3 -11 -1 -15 5 -3 5 -15 10 -26 10 -11 0 -17 5 -14 10 3 6 -2 10 -12 11 -16
0 -16 1 -1 7 9 4 -32 7 -92 8 -101 0 -108 -1 -99 -17z"/>
<path d="M6568 2283 c12 -2 32 -2 45 0 12 2 2 4 -23 4 -25 0 -35 -2 -22 -4z"/>
<path d="M10490 2238 c-1 -50 -2 -52 -16 -33 -8 11 -19 27 -24 35 -5 8 -12 12
-15 8 -4 -4 7 -27 25 -52 32 -47 40 -111 13 -111 -6 0 -15 -3 -19 -8 -4 -4
-16 0 -26 10 -12 11 -18 12 -18 3 0 -9 -6 -8 -24 4 -30 19 -32 16 -41 -54 l-7
-54 -19 23 c-13 16 -19 40 -20 75 l-1 51 -12 -35 -12 -34 -19 32 c-11 18 -23
32 -27 32 -5 0 3 -18 17 -40 l26 -41 -32 16 c-17 9 -33 14 -36 11 -3 -3 15
-15 40 -27 47 -23 75 -58 62 -79 -4 -6 -14 -10 -24 -8 -9 1 -27 -8 -39 -20
l-23 -23 25 -43 c14 -24 23 -46 20 -49 -12 -12 -51 16 -69 49 -10 19 -20 32
-22 30 -3 -2 0 -14 7 -25 13 -25 3 -27 -28 -5 -12 8 -22 11 -22 7 0 -5 12 -16
28 -25 26 -17 26 -17 5 -18 -13 0 -23 -5 -23 -11 0 -7 11 -8 31 -4 19 4 41 2
55 -6 26 -13 32 -37 12 -44 -17 -7 -15 -65 3 -76 11 -7 11 -9 1 -9 -19 0 -5
-89 18 -115 10 -12 27 -68 40 -138 23 -118 33 -137 72 -137 16 0 22 46 8 55
-6 4 -10 48 -9 101 l1 94 28 0 28 0 -1 -96 c0 -71 -4 -97 -14 -101 -7 -3 -13
-18 -13 -34 l0 -29 105 0 c101 0 175 16 175 37 0 34 51 238 63 251 17 20 29
100 16 108 -6 3 -5 11 2 20 6 7 9 20 6 29 -4 8 -1 17 5 21 7 4 5 10 -6 16 -41
23 9 65 63 53 36 -8 42 2 9 14 -23 9 -23 9 5 21 15 7 27 17 27 22 0 5 -10 2
-22 -6 -31 -22 -41 -20 -28 5 7 11 9 23 6 26 -3 3 -13 -10 -22 -30 -17 -36
-64 -69 -64 -44 0 6 9 23 20 37 11 14 20 31 20 38 0 18 -34 48 -63 56 -24 6
-25 8 -15 32 7 15 33 36 61 51 27 13 47 27 44 29 -3 3 -20 -2 -38 -11 l-32
-17 23 37 c12 20 20 38 17 41 -2 3 -15 -12 -28 -33 l-24 -38 -3 33 c-2 17 -8
32 -14 32 -7 0 -9 -15 -5 -41 4 -29 1 -49 -10 -65 -23 -36 -31 -29 -38 31 -4
30 -9 55 -11 55 -1 0 -14 -4 -28 -9 -17 -7 -26 -7 -29 2 -3 9 -8 9 -16 1 -7
-6 -23 -9 -37 -6 -19 3 -24 10 -24 36 0 17 12 49 25 71 32 51 32 69 0 30 l-24
-30 -1 48 c0 26 -4 47 -10 47 -5 0 -10 -24 -10 -52z m-92 -620 c3 -13 -3 -18
-22 -18 -20 0 -26 5 -26 21 0 15 5 20 22 17 13 -2 24 -11 26 -20z"/>
<path d="M5710 2200 c-20 -4 53 -8 165 -8 120 0 192 3 180 8 -24 10 -296 10
-345 0z"/>
<path d="M6470 2188 c-167 -11 -213 -16 -245 -27 -22 -8 17 -10 150 -6 195 5
285 13 285 25 0 12 -76 16 -190 8z"/>
<path d="M5660 2165 c-11 -13 18 -15 251 -14 243 0 260 1 214 14 -75 21 -448
21 -465 0z"/>
<path d="M5448 2153 c12 -2 30 -2 40 0 9 3 -1 5 -23 4 -22 0 -30 -2 -17 -4z"/>
<path d="M5588 2153 c7 -3 16 -2 19 1 4 3 -2 6 -13 5 -11 0 -14 -3 -6 -6z"/>
<path d="M7250 2045 c0 -35 19 -320 26 -383 7 -66 19 -60 28 15 4 32 21 133
40 226 l33 167 -64 0 c-60 0 -63 -1 -63 -25z"/>
<path d="M7284 1523 c3 -21 8 -90 11 -153 9 -163 10 -168 50 -176 44 -8 100
11 124 42 24 31 19 47 -29 99 -48 51 -85 111 -99 159 -9 35 -34 65 -54 66 -5
0 -6 -17 -3 -37z"/>
<path d="M7100 1421 c0 -11 5 -23 10 -26 6 -3 10 3 10 14 0 11 -4 23 -10 26
-5 3 -10 -3 -10 -14z"/>
</g>
</svg>
