<?xml version="1.0" standalone="no"?>
<!DOCTYPE svg PUBLIC "-//W3C//DTD SVG 20010904//EN"
 "http://www.w3.org/TR/2001/REC-SVG-20010904/DTD/svg10.dtd">
<svg version="1.0" xmlns="http://www.w3.org/2000/svg"
 width="700.000000pt" height="451.000000pt" viewBox="0 0 700.000000 451.000000"
 preserveAspectRatio="xMidYMid meet">

<g transform="translate(0.000000,451.000000) scale(0.100000,-0.100000)"
fill="#000000" stroke="none">
<path d="M6246 3772 c-10 -16 11 -52 31 -52 14 0 15 2 1 18 -9 9 -17 24 -20
32 -3 10 -6 11 -12 2z"/>
<path d="M6041 3704 c0 -11 3 -14 6 -6 3 7 2 16 -1 19 -3 4 -6 -2 -5 -13z"/>
<path d="M6092 3678 c-7 -7 -27 -17 -44 -23 -23 -7 -33 -16 -33 -30 0 -38 -35
-65 -35 -27 -1 16 -1 16 -14 -1 -17 -22 -41 -14 -79 30 -16 18 -32 33 -36 33
-3 0 -22 -15 -43 -34 -31 -28 -37 -42 -43 -91 -7 -49 -12 -59 -39 -76 -17 -10
-38 -19 -47 -19 -8 0 -20 -5 -27 -12 -6 -6 -26 -17 -44 -24 -46 -17 -241 -106
-250 -113 -5 -4 9 -25 30 -47 20 -22 75 -82 122 -133 47 -51 96 -105 110 -120
14 -14 45 -47 69 -73 l44 -48 -35 -14 c-19 -8 -40 -22 -48 -30 -7 -9 -20 -16
-29 -16 -9 0 -22 -5 -27 -10 -6 -6 -28 -19 -49 -30 -29 -15 -42 -17 -52 -8
-10 8 -20 8 -37 0 -22 -10 -27 -5 -72 61 -27 39 -56 74 -64 78 -8 4 -39 17
-68 29 -52 21 -53 21 -80 2 -56 -39 -152 -51 -216 -26 -14 5 -15 -18 -12 -215
2 -147 7 -225 15 -235 9 -11 8 -15 -6 -20 -10 -3 -31 -15 -48 -25 -16 -11 -48
-29 -70 -40 -22 -11 -64 -34 -94 -51 -30 -17 -56 -28 -58 -26 -9 8 -34 191
-31 223 3 32 8 36 63 59 33 13 65 24 71 24 10 0 44 61 44 79 0 5 -9 11 -19 14
-13 3 -29 -6 -48 -28 -28 -31 -101 -65 -141 -65 -17 0 -52 -60 -52 -88 0 -15
-6 -15 -31 -1 -15 8 -24 7 -35 -2 -18 -14 -19 -13 -27 29 -4 21 -3 32 5 32 7
0 3 7 -8 15 -12 9 -14 14 -5 15 7 0 11 6 8 14 -5 13 27 31 86 50 12 4 17 14
15 28 -3 21 -9 23 -65 26 -56 3 -66 0 -88 -22 -33 -33 -32 -61 6 -98 26 -26
28 -33 15 -40 -29 -16 -46 -40 -46 -64 0 -34 -13 -30 -53 17 l-34 41 -59 -27
c-32 -15 -74 -33 -91 -41 -69 -30 -100 -43 -163 -72 -143 -65 -147 -67 -305
-159 -22 -12 -50 -27 -62 -32 -11 -5 -24 -15 -28 -20 -3 -6 -15 -11 -26 -11
-22 0 -26 -25 -4 -34 21 -8 18 -18 -12 -40 -25 -19 -26 -19 -42 3 -15 20 -20
21 -44 10 -37 -17 -34 -41 13 -90 l39 -41 73 6 c130 12 178 12 178 0 0 -19
-36 -44 -63 -44 -14 0 -29 -4 -32 -10 -3 -5 -20 -10 -37 -10 -18 0 -47 -5 -65
-12 -26 -9 -41 -10 -65 0 -17 6 -33 10 -34 9 -2 -2 -4 -34 -5 -71 -3 -97 -14
-106 -128 -106 -130 0 -136 6 -135 147 1 125 20 185 62 191 13 2 26 10 29 18
3 10 21 14 58 14 57 0 89 20 67 42 -18 18 -14 30 7 23 14 -4 21 1 29 24 15 43
-5 56 -92 56 l-71 1 -105 125 c-58 69 -116 142 -130 162 -27 39 -52 46 -85 23
-11 -7 -39 -17 -62 -21 l-42 -7 6 124 6 124 -46 22 c-26 12 -52 22 -59 22 -7
0 -33 7 -58 16 -37 13 -53 27 -83 73 -40 61 -50 49 -22 -29 8 -23 15 -58 15
-77 0 -19 6 -46 14 -61 7 -15 16 -77 19 -142 4 -63 9 -125 13 -137 5 -19 0
-25 -30 -38 -20 -8 -52 -22 -72 -30 -20 -9 -39 -14 -41 -11 -3 2 -7 78 -10
168 -6 161 -12 198 -36 198 -7 0 -45 -14 -86 -30 -41 -17 -82 -29 -90 -28 -9
2 12 14 46 26 62 23 100 49 46 32 -98 -31 -209 -73 -218 -81 -5 -5 -17 -9 -27
-9 -11 0 -33 -7 -50 -16 -21 -11 -55 -16 -107 -15 -63 1 -84 -3 -128 -26 -29
-14 -61 -35 -70 -45 -17 -19 -16 -20 7 -38 36 -27 66 -30 89 -8 42 38 113 68
163 68 27 0 58 -5 68 -10 19 -10 47 -2 224 59 48 17 62 19 72 9 8 -9 13 -63
16 -158 l3 -144 -120 -59 c-66 -32 -127 -63 -135 -67 -32 -19 -96 -48 -117
-55 -13 -3 -23 -11 -23 -16 0 -5 -5 -9 -11 -9 -9 0 -181 -79 -219 -101 -8 -5
-35 -17 -60 -29 -25 -11 -52 -24 -60 -30 -8 -5 -30 -16 -48 -24 -30 -14 -32
-18 -27 -53 2 -21 7 -82 11 -135 l6 -98 26 6 c15 4 59 17 97 31 39 13 97 33
130 44 72 25 204 77 225 90 8 5 22 12 30 15 8 3 33 13 55 21 22 8 47 19 55 24
8 5 22 12 30 15 24 8 104 45 120 55 31 19 42 21 50 13 4 -5 11 -80 14 -166 l7
-158 -23 -9 c-25 -9 -59 -21 -163 -57 -38 -14 -79 -29 -90 -33 -11 -5 -33 -14
-50 -21 -16 -7 -43 -16 -60 -20 -16 -5 -55 -18 -85 -30 -30 -12 -70 -25 -88
-30 -18 -4 -38 -12 -45 -17 -7 -5 -39 -17 -72 -27 -33 -10 -72 -24 -86 -32
-14 -7 -59 -24 -100 -38 -41 -14 -117 -41 -169 -59 -52 -19 -124 -44 -160 -56
-36 -12 -74 -27 -85 -33 -11 -6 -33 -15 -50 -19 -16 -4 -55 -17 -85 -29 -30
-12 -68 -25 -85 -30 -16 -4 -47 -15 -67 -24 -90 -39 -108 -45 -151 -51 -43 -7
-47 -5 -56 16 -5 13 -14 186 -21 384 -6 198 -13 407 -16 465 -6 115 0 131 56
143 14 3 50 15 80 27 99 39 95 41 120 -36 27 -81 65 -124 109 -124 36 0 48 15
30 37 -12 14 -10 15 16 9 17 -3 37 -1 45 4 13 9 12 13 -8 29 -20 17 -22 28
-22 103 l0 83 53 20 c28 11 63 23 77 26 14 4 59 21 100 37 74 29 88 34 205 74
33 11 71 25 85 31 14 6 41 16 60 22 28 8 36 17 41 45 4 19 6 36 4 38 -2 2 -32
-6 -67 -18 -35 -13 -100 -36 -145 -51 -45 -16 -90 -33 -100 -38 -10 -5 -45
-17 -78 -27 -33 -10 -69 -24 -80 -31 -11 -7 -27 -13 -37 -13 -37 0 -85 -32
-99 -67 -13 -34 -52 -63 -84 -63 -9 0 -26 -6 -38 -14 -12 -8 -32 -17 -44 -20
-18 -6 -20 -4 -16 14 3 11 9 20 13 20 5 0 13 13 18 30 9 23 26 37 77 61 36 18
64 34 61 36 -2 3 -13 0 -24 -6 -28 -15 -35 -14 -59 8 -13 13 -22 38 -27 77
-11 99 -65 123 -67 30 l-1 -41 -13 30 c-14 31 -19 27 -15 -12 2 -31 -14 -29
-28 2 -7 14 -23 30 -37 37 -14 6 -25 15 -25 20 0 4 -6 8 -13 8 -28 0 -75 -81
-84 -147 -4 -34 -2 -44 16 -59 11 -10 21 -23 21 -28 0 -5 7 -18 17 -28 15 -17
15 -18 -3 -18 -11 0 -28 -6 -39 -13 -11 -8 -52 -24 -92 -36 -117 -38 -107 5
-93 -400 7 -194 9 -355 6 -358 -12 -12 -50 33 -77 93 -30 66 -52 94 -74 94
-11 0 -13 -8 -8 -32 l6 -33 -22 19 c-21 19 -21 19 -44 -2 -13 -12 -27 -22 -31
-22 -4 0 -24 17 -44 38 -35 36 -39 38 -72 29 l-35 -10 33 -9 c17 -5 32 -12 32
-17 0 -5 -11 -29 -25 -52 -30 -53 -31 -59 -6 -59 11 0 21 -4 23 -10 2 -5 23
-20 48 -33 l45 -24 3 -76 c2 -45 -1 -77 -7 -77 -5 0 -16 -3 -24 -6 -13 -5 -17
9 -22 73 l-7 78 -45 23 c-25 13 -48 21 -51 18 -7 -7 40 -126 50 -126 5 0 8 -7
8 -15 0 -8 4 -15 10 -15 5 0 14 -10 21 -21 14 -28 -3 -40 -45 -32 -27 6 -29 5
-21 -18 4 -13 12 -80 18 -147 8 -98 8 -125 -2 -132 -33 -20 52 -90 109 -90 15
0 30 6 33 13 6 16 -11 49 -33 64 -15 10 -16 20 -8 70 12 77 18 79 18 6 0 -58
1 -61 30 -72 16 -6 44 -16 60 -22 32 -12 80 0 80 20 0 13 -49 51 -66 51 -17 0
-17 28 -4 171 5 57 11 141 13 187 3 46 7 86 10 88 3 3 22 -5 44 -18 21 -13 50
-29 64 -37 l26 -13 7 -176 c4 -124 10 -182 20 -197 8 -12 88 -58 178 -104 147
-73 214 -108 258 -132 8 -4 35 -18 60 -29 25 -12 52 -25 60 -30 8 -4 70 -36
138 -71 67 -34 125 -66 128 -71 3 -4 11 -8 19 -8 8 0 36 -13 62 -28 26 -15 68
-36 93 -47 25 -10 52 -25 61 -32 8 -7 21 -13 27 -13 6 0 35 -14 63 -32 70 -43
120 -43 219 -1 41 17 113 46 160 63 47 18 99 38 115 45 17 7 45 18 63 25 18 7
30 15 28 18 -5 5 -71 -17 -131 -43 -16 -7 -57 -22 -90 -33 -73 -25 -109 -38
-198 -70 l-68 -24 -117 57 c-64 31 -124 61 -132 66 -8 5 -69 36 -135 70 -66
33 -174 89 -240 124 -66 35 -127 67 -135 70 -23 10 -227 112 -270 135 -14 8
-59 31 -100 52 -41 21 -80 44 -86 51 -8 7 -15 77 -19 182 -4 93 -9 173 -11
177 -2 4 0 9 6 13 12 8 13 45 1 45 -5 0 -9 46 -10 102 -1 56 -4 104 -6 107 -1
3 -6 98 -9 211 -4 113 -9 228 -11 255 -3 28 -2 55 2 60 13 16 70 45 90 45 10
0 31 7 47 15 15 8 35 15 42 15 8 0 25 7 38 16 14 8 27 11 30 6 3 -5 -22 -20
-57 -32 -34 -12 -81 -28 -104 -36 -23 -8 -47 -21 -53 -29 -9 -10 -7 -101 5
-372 9 -197 18 -364 20 -370 3 -7 13 -13 23 -13 23 0 42 -19 42 -41 0 -27 -19
-33 -41 -13 -10 9 -21 15 -23 13 -1 -2 -1 -81 2 -175 l4 -171 32 7 c17 5 56
18 86 30 30 12 66 24 80 27 14 3 30 9 35 13 6 4 44 19 85 33 41 15 100 36 130
48 30 11 73 27 95 34 22 8 65 23 95 35 30 12 69 25 85 29 17 4 39 12 50 18 26
14 84 34 115 40 14 3 30 9 35 14 6 4 45 19 87 33 42 13 84 29 94 34 11 5 44
17 74 27 30 9 73 25 95 35 22 10 67 27 100 38 80 27 123 42 168 58 20 8 54 20
75 28 47 17 91 32 167 58 33 12 74 26 90 33 17 7 38 16 47 19 15 5 18 18 17
93 0 48 -4 138 -8 198 -9 125 -2 145 54 145 24 0 35 -6 46 -27 8 -16 20 -34
27 -42 8 -8 31 -37 52 -65 21 -28 49 -63 62 -78 13 -14 50 -61 83 -103 33 -43
67 -85 75 -95 8 -10 32 -40 54 -68 l38 -49 57 27 c93 44 133 61 138 57 6 -7
-45 -173 -76 -245 -16 -37 -32 -78 -36 -92 -4 -14 -19 -46 -32 -71 -31 -60
-41 -119 -21 -119 19 0 58 37 58 55 0 13 5 13 33 1 17 -7 50 -19 72 -26 22 -7
55 -19 73 -27 l32 -13 -16 -31 c-11 -22 -12 -35 -5 -42 15 -15 57 16 66 50 3
15 13 42 20 58 20 43 92 226 126 320 16 44 36 94 44 110 8 17 31 73 51 125 59
152 82 200 97 200 8 0 34 11 58 24 118 65 139 76 139 69 0 -5 19 -28 41 -53
113 -125 149 -168 149 -178 0 -9 -72 -57 -112 -75 -24 -10 -28 -16 -22 -39 5
-25 3 -28 -19 -28 -14 0 -27 -7 -31 -15 -9 -23 -39 -18 -74 14 l-32 30 -20
-26 c-24 -31 -24 -29 -4 -84 44 -120 53 -238 35 -444 -5 -49 -5 -97 0 -106 4
-8 26 -24 49 -34 54 -25 73 -10 47 38 -18 32 -17 38 2 153 11 66 25 133 31
149 14 36 22 26 50 -60 42 -130 69 -199 82 -205 30 -16 99 -20 118 -7 23 16
15 29 -28 46 -18 8 -36 21 -41 30 -15 29 -77 313 -86 391 l-6 55 53 24 c73 33
100 55 85 70 -15 15 -28 14 -63 -3 -16 -8 -44 -17 -61 -21 -49 -10 -43 18 10
45 23 12 52 31 64 42 21 19 22 19 31 1 16 -28 112 -31 137 -3 10 11 22 20 27
20 6 0 164 76 228 109 8 5 60 30 115 56 55 26 107 51 115 55 8 5 110 57 227
115 116 58 228 117 248 130 20 14 40 25 45 25 5 0 29 14 53 30 25 17 48 30 51
30 16 0 86 54 86 66 0 14 11 18 44 14 10 -1 22 2 25 7 3 5 26 19 51 32 25 12
59 31 75 42 17 10 39 23 50 29 11 5 47 25 80 44 33 19 71 41 85 49 14 7 37 21
51 30 23 15 29 16 40 4 8 -8 57 -61 109 -118 52 -56 111 -120 131 -140 20 -21
39 -43 41 -50 3 -8 28 0 78 23 41 20 105 49 142 67 37 17 74 31 82 31 7 0 19
7 26 15 7 8 18 15 25 15 8 0 26 8 43 17 32 18 38 34 72 198 12 55 28 129 36
165 9 36 28 126 44 200 16 74 40 178 53 230 13 52 27 111 30 131 l5 36 -166
12 c-92 6 -212 16 -267 21 -55 6 -178 15 -274 21 -96 5 -176 11 -177 12 -7 6
21 94 35 114 14 20 25 22 101 23 47 0 114 7 150 15 36 8 77 17 92 20 24 5 25
7 15 30 -14 29 -8 29 -122 10 -128 -21 -181 -20 -198 5 -10 15 -16 17 -25 8z
m-887 -845 c50 -16 151 -92 163 -122 3 -9 10 -19 14 -22 5 -3 -6 -14 -24 -23
-43 -23 -133 -73 -195 -110 -36 -21 -59 -28 -93 -27 -24 1 -46 4 -48 5 -5 6
18 136 33 186 7 25 16 63 20 85 4 22 9 43 11 47 6 9 52 1 119 -19z m-2921
-128 c-10 -8 -24 -15 -31 -15 -7 0 -27 -6 -45 -14 -18 -7 -46 -18 -63 -23 -16
-6 -38 -14 -47 -18 -10 -4 -18 -3 -18 3 0 5 33 20 73 33 39 13 81 29 92 36 11
7 28 13 39 13 20 0 20 0 0 -15z m515 -167 c1 -16 -3 -28 -9 -28 -5 0 -10 21
-9 48 0 35 3 42 9 27 5 -11 9 -32 9 -47z m1581 -203 c0 -9 -8 -19 -17 -22 -10
-4 -23 -13 -29 -21 -17 -23 -39 10 -24 37 13 26 70 30 70 6z m-3380 -55 c0 -5
-7 -7 -15 -4 -8 4 -15 8 -15 10 0 2 7 4 15 4 8 0 15 -4 15 -10z m-40 -40 c0
-14 -33 -80 -40 -80 -3 0 -15 7 -26 15 -10 8 -27 15 -36 15 -22 0 -24 20 -2
20 9 0 27 9 41 20 27 21 63 27 63 10z m2639 -469 c9 -6 11 -16 7 -27 -5 -13
-9 -15 -15 -6 -4 7 -16 19 -27 27 -19 14 -19 14 1 15 11 0 26 -4 34 -9z m-162
-86 c21 -15 21 -16 4 -59 -22 -59 -26 -62 -57 -45 -24 12 -26 17 -20 57 3 24
8 48 12 53 8 14 37 11 61 -6z m123 -56 c0 -5 -7 -9 -15 -9 -9 0 -12 6 -9 15 6
15 24 11 24 -6z m-30 -74 c0 -9 -9 -15 -22 -15 -21 0 -21 0 -2 15 24 18 24 18
24 0z m-96 -30 c37 -13 70 -26 73 -28 3 -3 -25 -67 -42 -94 -1 -3 -39 9 -97
30 -23 8 -26 12 -17 28 8 16 6 19 -16 19 -28 0 -30 6 -15 44 12 32 26 32 114
1z m-93 -124 c22 -11 53 -23 69 -26 39 -9 45 -20 29 -58 -21 -54 -28 -59 -58
-43 -39 21 -109 46 -129 46 -66 0 -31 96 36 99 7 1 31 -8 53 -18z m-61 -129
c14 -5 46 -17 72 -27 l46 -16 -15 -45 c-17 -49 -36 -55 -95 -30 -18 8 -53 22
-78 32 -25 10 -46 18 -47 19 -3 1 21 69 30 82 7 12 33 7 87 -15z"/>
<path d="M997 3402 c-21 -23 -21 -32 -3 -32 8 0 18 9 21 21 9 28 2 33 -18 11z"/>
<path d="M851 3339 c-16 -21 -21 -37 -17 -54 5 -19 -2 -31 -29 -58 -38 -37
-50 -97 -20 -97 10 0 15 11 15 35 0 27 5 38 23 46 27 12 48 61 36 80 -5 9 2
25 23 46 27 28 29 33 12 32 -10 0 -30 -13 -43 -30z"/>
<path d="M4954 3322 c-32 -27 -36 -53 -16 -92 13 -23 31 -38 57 -47 45 -15 60
-7 28 14 -23 16 -30 33 -14 33 5 0 22 13 38 28 15 16 37 33 48 39 16 9 17 13
6 27 -19 23 -119 21 -147 -2z"/>
<path d="M2695 3294 c-38 -20 -45 -31 -45 -76 0 -39 16 -62 51 -73 27 -9 39 4
16 16 -24 14 -23 43 3 36 10 -3 20 -2 22 2 6 13 89 51 99 46 11 -7 12 6 1 21
-29 42 -95 55 -147 28z"/>
<path d="M1025 3278 c8 -31 -7 -65 -43 -95 -18 -16 -22 -23 -12 -23 9 0 30 13
48 29 36 33 43 79 16 102 -13 11 -14 9 -9 -13z"/>
<path d="M1306 3241 c-10 -11 -28 -22 -40 -24 -18 -4 -18 -4 4 -6 27 -1 70 23
70 40 0 15 -16 10 -34 -10z"/>
<path d="M1158 3214 c-27 -17 -38 -31 -38 -49 0 -35 -26 -72 -56 -79 -26 -7
-44 -40 -44 -82 0 -36 16 -21 24 21 6 28 15 40 41 52 35 17 55 48 55 88 0 14
6 25 13 25 6 1 26 12 42 25 39 32 12 32 -37 -1z"/>
<path d="M2828 3155 c-4 -4 -4 -21 -1 -38 6 -27 4 -30 -16 -24 -15 4 -24 -1
-32 -15 -10 -18 -12 -18 -28 -4 -10 9 -21 16 -26 16 -5 0 -20 11 -35 25 -27
26 -32 25 -68 -16 l-23 -26 23 4 c27 5 59 -21 98 -84 l28 -43 16 35 c9 19 21
35 27 35 6 0 8 4 5 9 -4 5 16 19 44 32 27 12 50 26 50 31 0 14 -55 70 -62 63z"/>
<path d="M1418 3133 c7 -3 16 -2 19 1 4 3 -2 6 -13 5 -11 0 -14 -3 -6 -6z"/>
<path d="M840 3108 c0 -13 4 -29 9 -37 13 -20 24 4 17 35 -8 30 -26 32 -26 2z"/>
<path d="M3889 3080 c-26 -26 -59 -56 -73 -65 -14 -10 -26 -21 -26 -25 0 -15
-67 -78 -101 -94 -59 -28 -75 -76 -25 -76 27 0 51 25 60 63 3 15 12 27 19 27
7 0 21 14 30 30 10 17 24 30 32 30 8 0 19 10 26 23 6 12 33 43 60 69 27 26 49
52 49 58 0 14 0 14 -51 -40z"/>
<path d="M1273 3087 c1 -34 -6 -47 -35 -66 -28 -17 -30 -21 -12 -21 40 0 85
76 55 94 -5 3 -9 0 -8 -7z"/>
<path d="M701 3004 c0 -11 3 -14 6 -6 3 7 2 16 -1 19 -3 4 -6 -2 -5 -13z"/>
<path d="M3010 2989 c-30 -16 -59 -31 -65 -33 -5 -2 -6 -7 -2 -12 5 -5 22 -1
38 9 17 9 36 17 43 17 14 0 52 37 45 44 -2 2 -29 -9 -59 -25z"/>
<path d="M1073 2956 c3 -7 -1 -25 -8 -39 -10 -19 -10 -27 -2 -30 7 -2 17 7 24
19 12 25 7 64 -9 64 -6 0 -8 -6 -5 -14z"/>
<path d="M2832 2905 c2 -2 20 -15 41 -29 43 -30 78 -36 57 -11 -7 8 -21 15
-31 15 -10 0 -20 4 -23 9 -3 5 -15 11 -27 14 -11 3 -19 4 -17 2z"/>
<path d="M1705 2524 c-22 -8 -58 -21 -80 -29 -22 -7 -89 -31 -150 -53 -60 -22
-126 -46 -145 -52 -156 -56 -187 -69 -163 -69 12 -1 56 13 98 29 42 17 80 30
86 30 6 0 25 7 42 14 18 8 59 24 92 35 33 11 85 30 115 41 30 12 69 25 85 29
33 8 75 29 75 36 0 8 -12 5 -55 -11z"/>
<path d="M5327 2045 c-42 -29 -53 -72 -16 -62 11 3 44 -1 72 -8 28 -7 55 -11
58 -9 4 2 12 -3 18 -10 8 -10 9 -16 1 -21 -5 -3 -10 -13 -10 -21 0 -11 6 -13
23 -8 30 9 37 22 37 69 0 45 -5 54 -40 78 -37 25 -98 22 -143 -8z"/>
<path d="M1247 1988 c-12 -19 -13 -64 -9 -241 5 -256 4 -251 94 -245 31 2 61
7 65 11 12 12 3 415 -10 455 -12 36 -13 37 -69 40 -50 3 -59 0 -71 -20z"/>
<path d="M1420 1753 c0 -87 5 -165 10 -173 7 -11 27 -15 75 -15 80 0 88 9 81
89 -4 32 -6 104 -6 159 0 91 -1 98 -17 91 -31 -13 -100 -16 -122 -5 -21 12
-21 11 -21 -146z"/>
<path d="M5395 1849 c-10 -15 3 -25 16 -12 7 7 7 13 1 17 -6 3 -14 1 -17 -5z"/>
<path d="M5404 1761 c8 -66 29 -115 39 -88 6 16 -21 128 -35 142 -7 7 -8 -10
-4 -54z"/>
<path d="M3835 1796 c-50 -15 -69 -47 -55 -98 7 -22 19 -39 36 -46 34 -16 43
-14 19 4 -19 14 -19 16 -2 25 9 6 17 19 17 29 0 13 7 20 20 20 11 0 29 6 40
12 15 10 27 10 50 1 28 -11 30 -10 30 13 0 19 -8 29 -35 40 -41 17 -66 17
-120 0z"/>
<path d="M255 1764 c-23 -5 -65 -62 -65 -88 0 -28 29 -76 47 -76 13 0 14 3 5
12 -16 16 -15 28 2 28 8 0 16 6 19 14 5 11 18 13 59 9 68 -6 108 8 108 40 0
38 -32 58 -97 62 -32 2 -67 1 -78 -1z"/>
<path d="M5600 1627 c-26 -15 -53 -21 -105 -21 -38 -1 -76 1 -84 4 -17 6 -68
-64 -73 -99 -2 -19 -18 -33 -67 -58 -35 -18 -70 -33 -76 -33 -7 0 -18 -6 -24
-14 -7 -8 -23 -17 -38 -21 -14 -3 -53 -19 -87 -35 -145 -67 -156 -70 -216 -54
-110 28 -220 11 -236 -38 -16 -47 -3 -136 31 -223 18 -48 41 -119 51 -159 l17
-72 -27 -67 c-14 -36 -29 -87 -32 -112 l-7 -45 48 0 c43 0 100 22 117 44 7 10
15 -16 20 -64 3 -23 6 -25 57 -24 37 1 62 8 82 23 15 12 32 21 38 21 5 0 11 7
15 15 6 17 -32 30 -64 22 -11 -3 -22 -1 -25 3 -3 5 1 50 9 102 28 174 20 393
-15 418 -4 3 -10 17 -14 32 l-7 27 59 -2 c32 0 73 5 91 12 30 13 37 12 87 -13
29 -14 59 -26 65 -26 10 0 47 -16 185 -80 22 -10 52 -22 68 -26 15 -3 30 -10
33 -15 3 -5 13 -9 23 -9 37 0 61 -37 61 -93 0 -29 -5 -58 -12 -65 -20 -20 0
-26 34 -10 18 9 62 30 98 47 36 17 68 31 73 31 4 0 35 13 70 29 90 42 134 61
142 61 3 0 13 7 21 15 9 8 23 15 33 15 10 0 48 16 84 35 36 19 72 35 80 35 24
0 60 45 63 76 1 16 0 46 -3 66 -4 34 -8 38 -71 64 -37 15 -87 36 -112 47 -25
11 -47 21 -50 22 -26 7 -63 21 -105 40 -27 12 -72 30 -100 39 -27 10 -71 27
-97 39 -44 20 -48 25 -54 64 -3 24 -9 45 -13 47 -3 2 -22 -6 -41 -17z m-353
-263 c18 -48 -49 -88 -107 -62 -54 24 -27 68 33 53 17 -5 26 -2 30 9 8 21 36
21 44 0z m-437 -649 c0 -52 -1 -55 -26 -55 -21 0 -24 3 -18 22 12 38 34 88 39
88 3 0 5 -25 5 -55z"/>
<path d="M4640 1486 c-32 -12 -35 -17 -34 -50 3 -79 47 -117 113 -98 43 13 75
42 53 49 -7 3 -17 14 -23 25 -10 19 -9 20 15 16 24 -5 26 -3 26 33 l0 39 -57
-1 c-32 0 -74 -6 -93 -13z"/>
<path d="M2376 1435 c10 -8 26 -14 34 -14 9 0 4 6 -10 14 -33 19 -49 19 -24 0z"/>
<path d="M2570 1435 c-14 -8 -19 -14 -10 -14 8 0 26 6 40 14 14 8 19 14 10 14
-8 0 -26 -6 -40 -14z"/>
<path d="M2444 1405 c25 -19 46 -19 70 0 24 18 4 20 -24 3 -15 -10 -22 -10
-32 0 -6 6 -17 12 -22 12 -6 0 -2 -7 8 -15z"/>
<path d="M2164 1366 c11 -9 24 -16 30 -16 12 0 7 5 -24 19 -24 11 -24 11 -6
-3z"/>
<path d="M2385 1364 l-30 -14 30 6 c17 3 34 10 40 15 14 13 -5 11 -40 -7z"/>
<path d="M2595 1366 c18 -14 18 -17 5 -28 -19 -16 -14 -52 6 -44 8 3 23 -3 34
-14 11 -11 25 -20 30 -20 11 0 -17 -49 -34 -61 -10 -8 25 -29 48 -29 18 0 99
26 141 45 17 7 45 19 63 26 18 6 30 14 28 17 -3 2 -23 -3 -46 -12 -59 -23 -62
-22 -58 28 2 33 -1 47 -12 51 -39 15 -79 43 -72 50 4 4 -6 4 -23 -1 -38 -10
-84 -10 -110 0 l-20 9 20 -17z"/>
<path d="M2222 1334 c10 -10 20 -16 22 -13 3 3 -5 11 -17 18 -21 13 -21 12 -5
-5z"/>
<path d="M2300 1335 c-33 -19 -10 -19 26 0 16 8 22 15 14 15 -8 -1 -26 -7 -40
-15z"/>
<path d="M2840 1330 c-9 -6 -10 -10 -3 -10 6 0 15 5 18 10 8 12 4 12 -15 0z"/>
<path d="M2444 1305 c25 -19 55 -19 97 0 41 17 19 20 -28 3 -27 -10 -38 -10
-53 0 -27 17 -39 14 -16 -3z"/>
<path d="M80 1301 c0 -6 4 -13 10 -16 6 -3 7 1 4 9 -7 18 -14 21 -14 7z"/>
<path d="M2200 1300 c-13 -8 -12 -10 3 -10 9 0 17 5 17 10 0 12 -1 12 -20 0z"/>
<path d="M1982 1274 c10 -10 20 -16 22 -13 3 3 -5 11 -17 18 -21 13 -21 12 -5
-5z"/>
<path d="M2140 1275 c-14 -8 -20 -14 -15 -14 6 0 21 6 35 14 14 8 21 14 15 14
-5 0 -21 -6 -35 -14z"/>
<path d="M2227 1269 c7 -7 15 -10 18 -7 3 3 -2 9 -12 12 -14 6 -15 5 -6 -5z"/>
<path d="M2945 1270 c-13 -6 -15 -9 -5 -9 8 0 22 4 30 9 18 12 2 12 -25 0z"/>
<path d="M2038 1247 c15 -7 29 -7 45 0 19 9 15 10 -23 10 -38 0 -42 -1 -22
-10z"/>
<path d="M2275 1247 c25 -21 54 -21 96 -2 33 16 33 16 4 9 -39 -10 -75 -10
-100 1 l-20 8 20 -16z"/>
<path d="M1752 1214 c10 -10 20 -16 22 -13 3 3 -5 11 -17 18 -21 13 -21 12 -5
-5z"/>
<path d="M1970 1215 c-14 -8 -20 -14 -15 -14 6 0 21 6 35 14 14 8 21 14 15 14
-5 0 -21 -6 -35 -14z"/>
<path d="M2065 1210 c3 -5 14 -10 23 -10 15 0 15 2 2 10 -20 13 -33 13 -25 0z"/>
<path d="M2260 1210 c-9 -6 -10 -10 -3 -10 6 0 15 5 18 10 8 12 4 12 -15 0z"/>
<path d="M1806 1185 c25 -19 72 -18 104 1 l25 15 -25 -6 c-56 -15 -78 -16 -84
-6 -4 6 -15 11 -24 11 -13 0 -13 -2 4 -15z"/>
<path d="M2124 1185 c11 -8 25 -15 32 -15 16 0 82 29 67 30 -7 0 -24 -5 -38
-12 -21 -9 -31 -9 -46 0 -27 17 -38 14 -15 -3z"/>
<path d="M3025 1185 c-16 -7 -23 -14 -15 -14 8 0 29 6 45 14 17 7 23 14 15 14
-8 0 -28 -6 -45 -14z"/>
<path d="M2277 1179 c7 -7 15 -10 18 -7 3 3 -2 9 -12 12 -14 6 -15 5 -6 -5z"/>
<path d="M2785 1165 c-31 -19 -55 -24 -107 -25 -65 0 -68 -1 -84 -32 -9 -17
-31 -46 -49 -65 -28 -29 -38 -33 -84 -33 -37 0 -51 -4 -51 -14 0 -8 6 -17 13
-19 9 -4 8 -8 -3 -17 -13 -9 -12 -11 5 -9 11 2 39 -1 63 -5 37 -7 48 -4 82 18
l40 26 -6 -102 c-4 -74 -2 -114 8 -143 l13 -40 81 -3 c114 -4 127 8 132 116 3
60 0 89 -12 113 -19 38 -19 52 -6 117 9 40 17 52 43 65 l32 17 -32 -6 c-25 -4
-33 -2 -33 9 0 9 -3 23 -6 31 -5 12 -2 15 12 9 12 -4 15 -3 10 5 -10 16 -14
15 -61 -13z"/>
<path d="M2882 1154 c10 -10 20 -15 24 -12 3 4 -5 12 -18 18 -22 12 -22 12 -6
-6z"/>
<path d="M2945 1155 c-24 -11 -26 -14 -9 -15 11 0 29 7 40 15 24 18 9 18 -31
0z"/>
<path d="M1540 1150 c0 -5 5 -10 11 -10 5 0 7 5 4 10 -3 6 -8 10 -11 10 -2 0
-4 -4 -4 -10z"/>
<path d="M1790 1150 c-9 -6 -10 -10 -3 -10 6 0 15 5 18 10 8 12 4 12 -15 0z"/>
<path d="M1917 1149 c7 -7 15 -10 18 -7 3 3 -2 9 -12 12 -14 6 -15 5 -6 -5z"/>
<path d="M2090 1150 c-8 -5 -10 -10 -5 -10 6 0 17 5 25 10 8 5 11 10 5 10 -5
0 -17 -5 -25 -10z"/>
<path d="M1598 1119 c18 -12 35 -19 38 -16 3 3 -8 13 -25 21 -43 23 -52 19
-13 -5z"/>
<path d="M1700 1123 c-19 -9 -30 -17 -24 -20 6 -2 31 5 55 17 24 11 35 19 24
19 -11 0 -36 -8 -55 -16z"/>
<path d="M1968 1124 c19 -13 28 -14 60 -3 20 7 32 14 25 16 -7 2 -22 -1 -34
-7 -15 -9 -24 -9 -32 -1 -6 6 -18 11 -26 11 -11 0 -9 -5 7 -16z"/>
<path d="M2260 1120 c-40 -22 -37 -25 9 -9 17 6 31 15 31 20 0 11 2 12 -40
-11z"/>
<path d="M2116 1115 c10 -8 24 -14 29 -14 6 0 1 6 -9 14 -11 8 -24 15 -30 15
-5 0 -1 -7 10 -15z"/>
<path d="M1754 1085 c11 -8 27 -15 35 -15 10 1 7 6 -9 15 -33 19 -50 18 -26 0z"/>
<path d="M1905 1085 c-24 -11 -26 -14 -9 -15 11 0 29 7 40 15 24 18 9 18 -31
0z"/>
<path d="M2168 1088 c7 -7 16 -7 28 0 14 8 13 10 -10 10 -18 0 -24 -4 -18 -10z"/>
<path d="M1375 1080 c3 -5 14 -10 23 -10 15 0 15 2 2 10 -20 13 -33 13 -25 0z"/>
<path d="M1420 1065 c0 -6 56 -35 67 -35 4 0 -7 9 -25 20 -33 20 -42 24 -42
15z"/>
<path d="M1520 1055 c-14 -8 -19 -14 -10 -14 8 0 26 6 40 14 14 8 19 14 10 14
-8 0 -26 -6 -40 -14z"/>
<path d="M1816 1060 c7 -7 19 -7 35 -1 23 9 22 10 -10 10 -24 1 -32 -2 -25 -9z"/>
<path d="M1964 1055 c11 -8 25 -15 30 -15 6 0 2 7 -8 15 -11 8 -25 15 -30 15
-6 0 -2 -7 8 -15z"/>
<path d="M2080 1054 l-25 -15 25 7 c14 3 32 10 40 15 13 7 13 8 0 8 -8 0 -26
-6 -40 -15z"/>
<path d="M1604 1026 c11 -9 24 -16 30 -16 12 0 7 5 -24 19 -24 11 -24 11 -6
-3z"/>
<path d="M1740 1025 c-16 -9 -19 -14 -9 -15 8 0 24 7 35 15 24 18 7 19 -26 0z"/>
<path d="M2015 1030 c4 -6 11 -8 16 -5 14 9 11 15 -7 15 -8 0 -12 -5 -9 -10z"/>
<path d="M2164 1025 c22 -17 40 -20 32 -6 -3 5 -16 11 -28 14 -22 6 -22 5 -4
-8z"/>
<path d="M2275 1025 c-16 -7 -23 -14 -15 -14 8 0 26 6 40 14 32 18 14 18 -25
0z"/>
<path d="M1216 995 c10 -8 24 -14 29 -14 6 0 1 6 -9 14 -11 8 -24 15 -30 15
-5 0 -1 -7 10 -15z"/>
<path d="M1354 995 c-25 -19 -15 -19 27 0 25 10 29 14 13 15 -11 0 -29 -7 -40
-15z"/>
<path d="M1654 1001 c3 -5 15 -7 26 -4 28 7 25 13 -6 13 -14 0 -23 -4 -20 -9z"/>
<path d="M1791 1007 c2 -1 13 -9 24 -17 19 -14 19 -14 6 3 -7 9 -18 17 -24 17
-6 0 -8 -1 -6 -3z"/>
<path d="M1914 994 c-18 -14 -18 -15 6 -8 14 3 32 10 40 15 12 7 11 8 -6 9
-11 0 -29 -7 -40 -16z"/>
<path d="M2218 1003 c7 -3 16 -2 19 1 4 3 -2 6 -13 5 -11 0 -14 -3 -6 -6z"/>
<path d="M1267 968 c6 -11 41 -10 47 1 3 4 -8 8 -23 7 -16 -1 -27 -4 -24 -8z"/>
<path d="M1450 965 c14 -8 30 -14 35 -14 6 0 -1 6 -15 14 -14 8 -29 14 -35 14
-5 0 1 -6 15 -14z"/>
<path d="M1570 965 c-16 -9 -19 -14 -9 -15 8 0 24 7 35 15 24 18 7 19 -26 0z"/>
<path d="M1858 973 c7 -3 16 -2 19 1 4 3 -2 6 -13 5 -11 0 -14 -3 -6 -6z"/>
<path d="M1986 971 c5 -5 20 -12 34 -15 l25 -7 -25 15 c-28 17 -50 21 -34 7z"/>
<path d="M2110 965 c-14 -8 -19 -14 -10 -14 8 0 26 6 40 14 14 8 19 14 10 14
-8 0 -26 -6 -40 -14z"/>
<path d="M972 934 c10 -10 20 -15 24 -12 3 4 -5 12 -18 18 -22 12 -22 12 -6
-6z"/>
<path d="M1185 934 c-19 -16 -19 -16 5 -9 14 4 32 11 40 16 12 7 11 8 -5 8
-11 0 -29 -7 -40 -15z"/>
<path d="M1508 943 c7 -3 16 -2 19 1 4 3 -2 6 -13 5 -11 0 -14 -3 -6 -6z"/>
<path d="M1630 945 c0 -2 10 -10 23 -16 20 -11 21 -11 8 4 -13 16 -31 23 -31
12z"/>
<path d="M1744 934 c-18 -14 -18 -15 6 -8 14 3 32 10 40 15 12 7 11 8 -6 9
-11 0 -29 -7 -40 -16z"/>
<path d="M2344 935 c-25 -19 -15 -19 27 0 25 10 29 14 13 15 -11 0 -29 -7 -40
-15z"/>
<path d="M1024 905 c11 -8 24 -15 30 -15 5 0 1 7 -10 15 -10 8 -23 14 -29 14
-5 0 -1 -6 9 -14z"/>
<path d="M1110 905 c-14 -8 -19 -14 -10 -14 8 0 26 6 40 14 14 8 19 14 10 14
-8 0 -26 -6 -40 -14z"/>
<path d="M1276 905 c10 -8 26 -14 34 -14 9 0 4 6 -10 14 -33 19 -49 19 -24 0z"/>
<path d="M1400 904 l-25 -15 25 5 c14 3 28 6 33 6 4 0 7 5 7 10 0 14 -10 12
-40 -6z"/>
<path d="M1688 913 c7 -3 16 -2 19 1 4 3 -2 6 -13 5 -11 0 -14 -3 -6 -6z"/>
<path d="M1844 906 c11 -9 24 -16 30 -16 12 0 7 5 -24 19 -24 11 -24 11 -6 -3z"/>
<path d="M1940 905 c-14 -8 -19 -14 -10 -14 8 0 26 6 40 14 14 8 19 14 10 14
-8 0 -26 -6 -40 -14z"/>
<path d="M2270 905 c-14 -8 -19 -14 -10 -14 8 0 26 6 40 14 14 8 19 14 10 14
-8 0 -26 -6 -40 -14z"/>
<path d="M1338 883 c7 -3 16 -2 19 1 4 3 -2 6 -13 5 -11 0 -14 -3 -6 -6z"/>
<path d="M1461 887 c2 -1 13 -9 24 -17 19 -14 19 -14 6 3 -7 9 -18 17 -24 17
-6 0 -8 -1 -6 -3z"/>
<path d="M1584 875 c-17 -13 -16 -14 14 -4 33 11 41 19 19 19 -7 0 -22 -7 -33
-15z"/>
<path d="M2180 875 c-14 -8 -19 -14 -10 -14 8 0 26 6 40 14 14 8 19 14 10 14
-8 0 -26 -6 -40 -14z"/>
<path d="M1845 870 c-3 -5 -1 -10 4 -10 6 0 11 5 11 10 0 6 -2 10 -4 10 -3 0
-8 -4 -11 -10z"/>
<path d="M1100 866 c0 -11 74 -46 96 -46 25 0 89 28 82 36 -3 2 -23 -4 -47
-13 -41 -16 -44 -16 -87 5 -24 12 -44 20 -44 18z"/>
<path d="M1515 850 c3 -5 12 -7 20 -3 21 7 19 13 -6 13 -11 0 -18 -4 -14 -10z"/>
<path d="M1698 840 c40 -24 47 -24 97 -1 48 23 33 27 -19 6 -32 -14 -39 -14
-66 0 -42 22 -51 18 -12 -5z"/>
<path d="M2085 840 c-26 -12 -33 -19 -20 -19 11 0 36 8 55 19 45 24 18 24 -35
0z"/>
<path d="M1470 835 c-24 -14 -24 -14 -3 -15 12 0 25 5 28 11 11 17 2 18 -25 4z"/>
<path d="M1850 830 c0 -6 7 -10 15 -10 8 0 15 2 15 4 0 2 -7 6 -15 10 -8 3
-15 1 -15 -4z"/>
<path d="M1400 805 c-14 -8 -20 -14 -15 -14 6 0 21 6 35 14 14 8 21 14 15 14
-5 0 -21 -6 -35 -14z"/>
<path d="M1902 804 c10 -10 20 -16 22 -13 3 3 -5 11 -17 18 -21 13 -21 12 -5
-5z"/>
<path d="M1994 805 c-24 -18 -7 -19 26 0 16 9 19 14 9 15 -8 0 -24 -7 -35 -15z"/>
<path d="M1660 800 c-8 -5 -10 -10 -5 -10 6 0 17 5 25 10 8 5 11 10 5 10 -5 0
-17 -5 -25 -10z"/>
<path d="M1264 775 c25 -19 44 -18 76 1 17 10 18 13 5 8 -41 -14 -63 -16 -69
-5 -4 6 -13 11 -19 11 -7 0 -3 -7 7 -15z"/>
<path d="M1585 775 c-23 -10 -25 -13 -10 -14 11 0 31 6 45 14 32 18 5 19 -35
0z"/>
<path d="M1677 769 c7 -7 15 -10 18 -7 3 3 -2 9 -12 12 -14 6 -15 5 -6 -5z"/>
<path d="M1506 745 c-25 -19 -9 -19 24 0 14 8 19 14 10 14 -8 0 -24 -6 -34
-14z"/>
<path d="M1826 745 c-26 -19 -6 -19 30 0 23 12 25 15 9 15 -11 -1 -29 -7 -39
-15z"/>
<path d="M1330 745 c0 -3 18 -14 41 -25 38 -20 43 -20 77 -6 25 10 30 15 17
15 -11 1 -26 -3 -34 -8 -9 -6 -30 -2 -57 10 -24 10 -44 16 -44 14z"/>
<path d="M1778 723 c7 -3 16 -2 19 1 4 3 -2 6 -13 5 -11 0 -14 -3 -6 -6z"/>
<path d="M1730 710 c-13 -8 -12 -10 3 -10 9 0 17 5 17 10 0 12 -1 12 -20 0z"/>
<path d="M1660 685 c-33 -19 -10 -19 26 0 16 8 22 15 14 15 -8 -1 -26 -7 -40
-15z"/>
<path d="M1455 680 c3 -5 11 -10 16 -10 6 0 7 5 4 10 -3 6 -11 10 -16 10 -6 0
-7 -4 -4 -10z"/>
<path d="M1510 656 c32 -19 68 -19 100 0 l25 15 -30 -7 c-38 -10 -75 -10 -100
0 -12 5 -10 2 5 -8z"/>
<path d="M2440 525 c-33 -19 -21 -19 21 0 19 8 27 14 19 14 -8 0 -26 -6 -40
-14z"/>
<path d="M2730 526 c0 -7 18 -19 41 -26 35 -12 42 -12 49 1 12 19 3 26 -47 32
-31 4 -43 1 -43 -7z"/>
<path d="M2360 495 c-16 -9 -19 -14 -9 -15 8 0 24 7 35 15 24 18 7 19 -26 0z"/>
<path d="M2580 467 c0 -48 159 -60 169 -12 2 14 -1 16 -15 10 -24 -11 -116 -7
-128 5 -14 14 -26 12 -26 -3z"/>
</g>
</svg>
