<?xml version="1.0" standalone="no"?>
<!DOCTYPE svg PUBLIC "-//W3C//DTD SVG 20010904//EN"
 "http://www.w3.org/TR/2001/REC-SVG-20010904/DTD/svg10.dtd">
<svg version="1.0" xmlns="http://www.w3.org/2000/svg"
 width="700.000000pt" height="510.000000pt" viewBox="0 0 700.000000 510.000000"
 preserveAspectRatio="xMidYMid meet">

<g transform="translate(0.000000,510.000000) scale(0.100000,-0.100000)"
fill="#000000" stroke="none">
<path d="M1822 4323 c26 -53 46 -99 43 -101 -2 -3 -26 13 -52 35 -58 49 -223
157 -229 151 -2 -3 24 -22 58 -43 98 -60 285 -209 296 -237 2 -4 -52 -9 -120
-11 l-123 -3 128 -1 c145 -1 145 -1 225 -105 20 -26 38 -46 40 -43 6 6 -96
130 -157 190 -28 27 -51 53 -51 58 0 15 -92 207 -99 207 -4 0 15 -44 41 -97z"/>
<path d="M2104 4114 c7 -76 6 -115 -2 -137 -10 -26 -8 -34 17 -71 42 -62 83
-137 79 -142 -3 -2 -40 9 -84 25 -91 33 -217 63 -208 50 3 -5 13 -9 23 -9 31
0 187 -48 241 -74 27 -13 50 -20 50 -15 0 14 -37 86 -77 148 -30 46 -33 59
-28 93 8 44 -4 238 -14 238 -3 0 -2 -48 3 -106z"/>
<path d="M2385 3873 c-55 -16 -124 -78 -154 -138 -28 -56 -27 -17 -23 -802 l2
-583 50 0 50 0 2 668 3 667 23 33 c40 56 72 66 218 70 l131 4 52 -95 c81 -151
49 -141 469 -145 345 -3 354 -2 391 19 36 20 62 56 122 169 l24 45 100 3 c139
4 179 -3 222 -41 57 -50 63 -76 63 -262 l0 -165 51 0 51 0 -4 183 c-5 202 -11
227 -72 295 -20 22 -58 49 -84 60 -47 21 -65 21 -846 24 -611 2 -808 0 -841
-9z m1145 -128 c7 -8 10 -22 6 -30 -8 -23 -594 -23 -602 0 -4 8 -4 22 0 30 8
22 577 23 596 0z"/>
<path d="M5229 3631 l-29 -29 0 -292 0 -291 100 90 100 91 303 0 c258 0 306 2
325 16 21 15 22 20 22 213 0 179 -2 199 -18 214 -17 15 -59 17 -396 17 l-378
0 -29 -29z m479 -73 c7 -7 12 -31 12 -55 l0 -43 54 0 c53 0 91 -20 66 -35 -5
-3 -7 -17 -4 -31 4 -15 2 -24 -6 -24 -7 0 -9 -8 -5 -19 3 -11 1 -22 -5 -26 -5
-3 -10 -15 -10 -26 0 -17 -7 -19 -68 -19 -44 0 -75 5 -88 15 -10 8 -29 15 -41
15 -21 0 -23 5 -23 60 0 47 3 60 15 60 9 0 27 11 40 25 19 18 25 35 25 70 0
46 13 58 38 33z m-178 -183 l0 -85 -41 0 c-33 0 -40 3 -35 16 3 9 6 47 6 85
l0 69 35 0 35 0 0 -85z"/>
<path d="M2902 3125 c-38 -32 -48 -63 -62 -190 -6 -55 -13 -116 -16 -137 l-5
-36 55 20 c66 24 71 44 31 104 -17 25 -25 51 -25 78 l0 41 64 17 c61 16 67 16
106 0 42 -17 42 -17 37 -64 -2 -30 -13 -59 -30 -81 -34 -44 -27 -72 22 -88 20
-6 42 -16 49 -22 15 -12 15 0 2 152 -18 198 -27 215 -131 225 -61 7 -68 5 -97
-19z"/>
<path d="M1079 2891 l-29 -29 0 -287 0 -287 24 19 c13 10 58 48 99 86 l74 67
297 0 c293 0 328 3 348 34 4 6 8 95 8 199 0 174 -1 188 -20 207 -19 19 -33 20
-396 20 l-376 0 -29 -29z"/>
<path d="M5330 2729 c-67 -27 -90 -92 -51 -140 16 -19 22 -22 32 -11 33 31 65
-14 34 -48 -14 -15 -15 -22 -5 -42 21 -39 52 -68 74 -68 31 0 84 36 107 72 26
42 22 126 -8 166 -39 53 -135 90 -183 71z"/>
<path d="M5577 2674 c-21 -11 -27 -20 -21 -32 4 -9 9 -32 12 -50 6 -42 80
-120 143 -150 52 -25 106 -28 135 -8 19 14 18 15 -7 43 -14 15 -52 63 -83 106
-32 42 -68 84 -79 92 -27 19 -64 19 -100 -1z"/>
<path d="M4130 1950 l0 -570 50 0 50 0 0 570 0 570 -50 0 -50 0 0 -570z"/>
<path d="M2392 2192 c-2 -7 0 -18 5 -23 5 -5 166 -8 404 -7 370 3 394 4 394
21 0 16 -25 18 -399 20 -322 2 -400 -1 -404 -11z"/>
<path d="M1843 2145 c-43 -19 -73 -69 -73 -124 l0 -43 41 41 c37 37 46 41 90
41 44 0 53 -4 89 -41 l40 -41 0 43 c0 55 -27 101 -73 122 -42 20 -71 21 -114
2z"/>
<path d="M1270 2016 l-43 -116 -54 -30 c-40 -23 -59 -41 -70 -68 -20 -48 -19
-116 2 -168 l16 -42 -42 -108 -43 -109 0 -270 c-1 -258 -2 -272 -24 -319 -12
-27 -22 -50 -22 -52 0 -10 119 -44 189 -55 96 -14 219 -1 304 31 l50 19 66
-58 c36 -33 103 -97 148 -144 61 -62 84 -80 87 -68 33 108 57 416 37 488 -19
70 -41 88 -103 86 -43 -1 -74 -12 -162 -57 -61 -30 -111 -54 -113 -53 -4 5
-44 259 -41 262 2 2 37 -8 78 -21 41 -14 103 -28 138 -31 l63 -6 56 54 c30 30
107 110 170 178 99 107 113 126 97 132 -53 21 -83 10 -212 -76 l-127 -85 -142
65 c-78 35 -168 73 -200 84 -55 19 -58 21 -55 50 3 26 0 31 -17 31 -16 0 -21
-6 -21 -25 0 -24 -2 -25 -65 -25 l-65 0 0 35 c0 33 2 35 34 35 19 0 45 9 60
21 l26 21 -20 25 c-38 49 -18 86 41 77 19 -3 46 -1 61 5 43 16 49 39 28 101
-17 51 -18 62 -5 155 19 128 19 122 -9 129 -13 3 -31 8 -39 12 -11 4 -25 -23
-57 -110z"/>
<path d="M4535 1991 c-51 -13 -92 -39 -124 -78 -55 -66 -65 -145 -30 -235 19
-50 19 -57 5 -97 l-14 -43 31 8 c32 8 73 9 182 5 234 -9 313 312 103 420 -44
23 -110 31 -153 20z m76 -131 c12 -38 14 -40 54 -40 23 0 45 -3 49 -7 4 -4 -9
-21 -29 -38 -34 -29 -35 -31 -23 -67 15 -48 5 -57 -32 -30 -16 12 -34 22 -40
22 -6 0 -24 -10 -40 -22 -37 -27 -47 -18 -32 30 12 36 11 38 -23 65 -19 16
-32 33 -29 38 3 5 24 9 48 9 41 0 43 1 55 40 6 22 16 40 21 40 5 0 15 -18 21
-40z"/>
<path d="M5928 1770 c-2 -7 -1 -38 4 -69 44 -314 67 -438 108 -591 26 -96 60
-229 75 -295 34 -148 36 -154 42 -138 3 7 -9 75 -26 150 -23 105 -31 173 -35
285 -6 178 -30 301 -92 478 -57 164 -70 196 -76 180z"/>
<path d="M5555 1585 c-34 -98 -82 -171 -175 -270 l-100 -106 6 -42 c28 -190
43 -227 238 -592 58 -109 106 -202 106 -205 0 -4 -34 -26 -75 -49 -71 -41 -96
-71 -57 -71 23 0 258 56 272 65 6 4 9 14 6 23 -3 10 -7 33 -10 52 -3 19 -51
170 -107 335 l-101 300 6 90 c2 50 14 135 26 190 23 108 19 190 -13 265 -13
31 -15 33 -22 15z"/>
<path d="M5126 1582 c-2 -4 -36 -76 -75 -160 -66 -143 -71 -158 -71 -220 l1
-67 69 135 c83 159 133 277 127 295 -6 14 -45 27 -51 17z"/>
<path d="M6363 1548 c-37 -48 -69 -185 -88 -380 -20 -194 -40 -310 -70 -406
-13 -42 -22 -78 -20 -80 12 -13 92 151 115 238 11 42 81 632 75 638 -1 1 -7
-3 -12 -10z"/>
<path d="M2210 1007 c0 -597 0 -596 60 -669 17 -20 54 -48 83 -62 l52 -26 812
0 c904 0 851 -4 927 68 51 49 74 103 82 190 l7 72 -52 0 -51 0 0 -57 c0 -73
-30 -129 -85 -160 l-40 -23 -797 3 c-791 2 -797 2 -825 23 -15 11 -38 36 -50
54 l-23 33 0 548 0 549 -50 0 -50 0 0 -543z"/>
<path d="M5746 1345 c-4 -11 -10 -61 -13 -111 -10 -163 34 -242 207 -374 82
-62 130 -112 155 -160 9 -17 20 -30 26 -30 17 0 -21 62 -96 155 -157 196 -247
363 -264 490 -5 39 -8 46 -15 30z"/>
<path d="M3490 1215 c0 -13 51 -15 395 -15 344 0 395 2 395 15 0 13 -51 15
-395 15 -344 0 -395 -2 -395 -15z"/>
<path d="M2969 1201 c-78 -11 -119 -51 -119 -117 0 -15 6 -24 15 -24 8 0 15 5
15 10 0 6 9 10 20 10 10 0 40 7 65 15 41 14 47 14 67 0 13 -8 30 -15 40 -15
10 0 18 -4 18 -10 0 -17 20 -11 27 8 4 9 11 20 15 23 5 3 13 22 18 43 7 33 6
36 -14 36 -11 1 -32 7 -46 15 -27 15 -47 16 -121 6z"/>
<path d="M6584 1079 c-30 -29 -86 -99 -125 -157 -63 -91 -126 -175 -177 -234
-14 -16 -13 -18 6 -18 35 0 88 56 189 199 53 75 116 164 141 199 24 34 39 62
32 62 -6 0 -36 -23 -66 -51z"/>
<path d="M2850 844 c-36 -14 -76 -33 -90 -44 l-25 -19 30 -31 c106 -112 311
-119 431 -16 34 30 37 35 25 50 -18 22 -59 43 -126 66 l-53 18 -21 -29 c-27
-37 -45 -37 -73 1 -12 17 -24 30 -27 29 -3 0 -35 -11 -71 -25z"/>
<path d="M4982 762 c-1 -51 -7 -102 -12 -113 -8 -13 -6 -63 6 -170 9 -82 14
-153 11 -156 -3 -2 -41 -17 -84 -31 -51 -18 -78 -32 -78 -42 0 -12 23 -15 139
-18 77 -1 143 1 147 5 4 4 9 26 11 48 l3 40 -52 3 c-51 3 -51 3 -57 40 -5 32
-21 273 -29 432 -2 31 -4 14 -5 -38z"/>
<path d="M5122 530 c0 -14 2 -19 5 -12 2 6 2 18 0 25 -3 6 -5 1 -5 -13z"/>
<path d="M1235 409 c-207 -14 -540 -27 -578 -22 -44 6 -63 -7 -72 -48 -17 -77
27 -189 74 -189 15 0 17 7 14 48 -8 85 -21 82 322 71 165 -6 406 -9 535 -7
201 3 240 6 267 20 17 10 35 23 39 29 4 8 0 7 -15 -1 -47 -25 -268 23 -433 94
-21 9 -39 15 -40 15 -2 -1 -52 -5 -113 -10z"/>
</g>
</svg>
