<svg xmlns="http://www.w3.org/2000/svg" xmlns:xlink="http://www.w3.org/1999/xlink" width="4468" height="3591" viewBox="0 0 4468 3591">
  <defs>
    <style>
      .cls-1 {
        clip-path: url(#clip-Artboard_1);
      }

      .cls-2 {
        fill: #fff;
      }

      .cls-3, .cls-4 {
        stroke: none;
      }

      .cls-4 {
        fill: #707070;
      }
    </style>
    <clipPath id="clip-Artboard_1">
      <rect width="4468" height="3591"/>
    </clipPath>
  </defs>
  <g id="Artboard_1" data-name="Artboard – 1" class="cls-1">
    <g id="Path_1" data-name="Path 1" class="cls-2" transform="translate(-365 -222)">
      <path class="cls-3" d="M 685.3154907226563 1145.39599609375 C 652.5277099609375 1145.39599609375 616.5786743164063 1144.510009765625 578.5191040039063 1143.571899414063 C 534.4866943359375 1142.486694335938 484.5792846679688 1141.256469726563 431.7658996582031 1141.256469726563 C 409.3206787109375 1141.256469726563 387.5108947753906 1140.234252929688 366.9420776367188 1138.218505859375 C 346.7398986816406 1136.238403320313 327.1590881347656 1133.243286132813 308.7432861328125 1129.316284179688 C 290.6723022460938 1125.462890625 273.2070922851563 1120.601684570313 256.8324890136719 1114.868041992188 C 240.7804870605469 1109.247436523438 225.3166809082031 1102.627197265625 210.87109375 1095.19140625 C 196.7250823974609 1087.909912109375 183.1488800048828 1079.636840820313 170.5190887451172 1070.602294921875 C 158.1664886474609 1061.765625 146.3630828857422 1051.945434570313 135.4366912841797 1041.414428710938 C 124.7644882202148 1031.12841796875 114.6198883056641 1019.866271972656 105.2844848632813 1007.9404296875 C 96.18088531494141 996.3106689453125 87.58168792724609 983.7110595703125 79.72589111328125 970.4916381835938 C 72.07928466796875 957.6244506835938 64.91288757324219 943.7926635742188 58.42548751831055 929.3804321289063 C 52.12508773803711 915.3832397460938 46.27888870239258 900.4246826171875 41.04948806762695 884.9200439453125 C 35.98428726196289 869.9020385742188 31.34628677368164 853.9226684570313 27.2642879486084 837.4256591796875 C 23.32308769226074 821.4974365234375 19.78088760375977 804.6034545898438 16.73588752746582 787.212646484375 C 13.80748748779297 770.4876708984375 11.24848747253418 752.7852783203125 9.130086898803711 734.5972290039063 C 7.102687358856201 717.1922607421875 5.414487361907959 698.7880249023438 4.112087249755859 679.8958740234375 C 2.873887300491333 661.9332275390625 1.943687319755554 642.9334716796875 1.34728729724884 623.4246826171875 C 0.7850872874259949 605.036865234375 0.5000873208045959 585.5482788085938 0.5000873208045959 565.5000610351563 C 0.5000873208045959 555.8904418945313 1.283687353134155 546.2122802734375 2.828887224197388 536.7342529296875 C 4.349287509918213 527.4100341796875 6.648687362670898 518.0226440429688 9.663487434387207 508.8326416015625 C 12.62888717651367 499.7932434082031 16.36788749694824 490.696044921875 20.77668762207031 481.7938537597656 C 25.1122875213623 473.0392456054688 30.21488761901855 464.2328491210938 35.94268798828125 455.6190490722656 C 41.57388687133789 447.1504516601563 47.96368789672852 438.6358642578125 54.93468856811523 430.3118591308594 C 61.78628540039063 422.1304626464844 69.38668823242188 413.9092407226563 77.52488708496094 405.8766479492188 C 85.521484375 397.9838562011719 94.25568389892578 390.057861328125 103.4846878051758 382.3182678222656 C 112.5506896972656 374.7156677246094 122.3410873413086 367.0860595703125 132.5842895507813 359.6414489746094 C 152.5284881591797 345.1464538574219 174.969482421875 330.7828674316406 199.2834930419922 316.9500427246094 C 222.7148895263672 303.6192626953125 248.4520874023438 290.4588623046875 275.7807006835938 277.8342590332031 C 302.1015014648438 265.675048828125 330.5154724121094 253.7272491455078 360.2336730957031 242.3230590820313 C 388.8498840332031 231.3414459228516 419.3208923339844 220.6156463623047 450.80029296875 210.4434509277344 C 510.5706787109375 191.1290588378906 575.2052612304688 173.3776550292969 642.9082641601563 157.6818542480469 C 706.2014770507813 143.0084533691406 771.6295166015625 130.2468566894531 837.3748779296875 119.7512512207031 C 960.896484375 100.0324554443359 1080.611328125 89.1728515625 1174.466918945313 89.1728515625 C 1190.206909179688 89.1728515625 1204.574096679688 90.09945678710938 1217.169921875 91.92705535888672 C 1229.477294921875 93.71285247802734 1240.470336914063 96.41365051269531 1249.843505859375 99.95445251464844 C 1254.44189453125 101.6914520263672 1258.752685546875 103.6688537597656 1262.656127929688 105.8318557739258 C 1266.505249023438 107.9646530151367 1270.069458007813 110.3394546508789 1273.249877929688 112.890251159668 C 1276.383911132813 115.4038543701172 1279.236083984375 118.1612548828125 1281.727294921875 121.0858535766602 C 1284.181030273438 123.9666519165039 1286.356323242188 127.0940551757813 1288.192504882813 130.3806457519531 C 1290.264038085938 134.0892486572266 1291.9697265625 138.1180572509766 1293.261474609375 142.3554534912109 C 1294.529663085938 146.5154571533203 1295.437133789063 151.0000457763672 1295.958251953125 155.6846466064453 C 1296.46923828125 160.2772521972656 1296.624267578125 165.1988525390625 1296.419311523438 170.3130493164063 C 1296.218627929688 175.3164520263672 1295.667236328125 180.654052734375 1294.7802734375 186.1778564453125 C 1293.07470703125 196.8012542724609 1290.039428710938 208.6360473632813 1285.758911132813 221.3536529541016 C 1281.733032226563 233.3136596679688 1276.438842773438 246.5460510253906 1270.023071289063 260.6834411621094 C 1245.065063476563 315.679443359375 1205.131469726563 380.5382385253906 1162.85302734375 449.2050476074219 C 1074.535888671875 592.6466674804688 974.43505859375 755.2266235351563 974.43505859375 886.7994384765625 C 974.43505859375 900.98828125 974.0576782226563 914.6212768554688 973.3134765625 927.31982421875 C 972.5704956054688 939.998046875 971.4378662109375 952.15185546875 969.947265625 963.4442749023438 C 968.4620971679688 974.69482421875 966.5739135742188 985.45166015625 964.334716796875 995.4158325195313 C 962.1087036132813 1005.322265625 959.4642944335938 1014.764038085938 956.4749145507813 1023.479248046875 C 944.79345703125 1057.535278320313 927.1491088867188 1083.088623046875 902.5335083007813 1101.599853515625 C 896.624267578125 1106.043823242188 890.185302734375 1110.1640625 883.3956909179688 1113.846313476563 C 876.7531127929688 1117.448852539063 869.5473022460938 1120.755249023438 861.9786987304688 1123.673706054688 C 854.6060791015625 1126.516479492188 846.630859375 1129.090454101563 838.2744750976563 1131.32421875 C 830.1792602539063 1133.488037109375 821.432861328125 1135.411010742188 812.2782592773438 1137.039306640625 C 794.9439086914063 1140.122680664063 775.6837158203125 1142.279296875 753.3974609375 1143.632080078125 C 733.8442993164063 1144.819091796875 711.574462890625 1145.39599609375 685.3154907226563 1145.39599609375 Z"/>
      <path class="cls-4" d="M 1174.466674804688 89.6728515625 C 1080.63671875 89.6728515625 960.9498901367188 100.5302734375 837.4536743164063 120.2449951171875 C 771.7196655273438 130.7386474609375 706.3031005859375 143.498291015625 643.0210571289063 158.1688232421875 C 575.3316650390625 173.8614501953125 510.7109375 191.6092529296875 450.953857421875 210.9190673828125 C 419.48291015625 221.088623046875 389.0205078125 231.8114013671875 360.4127197265625 242.789794921875 C 330.704833984375 254.1903076171875 302.3011474609375 266.1336669921875 275.990234375 278.2880249023438 C 248.6744384765625 290.9068603515625 222.94970703125 304.0608520507813 199.5306396484375 317.3846435546875 C 175.2325439453125 331.2084350585938 152.8074951171875 345.5616455078125 132.8780517578125 360.0460815429688 C 122.644287109375 367.4838256835938 112.8629150390625 375.1062622070313 103.805908203125 382.7014770507813 C 94.5870361328125 390.4322509765625 85.863037109375 398.3492431640625 77.8758544921875 406.232666015625 C 69.7489013671875 414.2540283203125 62.1593017578125 422.4634399414063 55.317626953125 430.6328735351563 C 48.3585205078125 438.94287109375 41.9798583984375 447.4424438476563 36.358642578125 455.8960571289063 C 30.6427001953125 464.4920654296875 25.5509033203125 473.280029296875 21.2244873046875 482.015625 C 16.8262939453125 490.8966674804688 13.0963134765625 499.9716796875 10.1383056640625 508.9884643554688 C 7.1317138671875 518.1538696289063 4.8382568359375 527.5160522460938 3.322265625 536.8148803710938 C 1.78125 546.2662353515625 0.9998779296875 555.917236328125 0.9998779296875 565.5000610351563 C 0.9998779296875 585.5432739257813 1.284912109375 605.0266723632813 1.8466796875 623.409423828125 C 2.44287109375 642.911865234375 3.3729248046875 661.905029296875 4.6107177734375 679.8614501953125 C 5.9127197265625 698.745849609375 7.60009765625 717.1420288085938 9.62646484375 734.5394287109375 C 11.743896484375 752.7178344726563 14.301513671875 770.41064453125 17.228271484375 787.126220703125 C 20.271240234375 804.505859375 23.81103515625 821.388427734375 27.74951171875 837.305419921875 C 31.828125 853.7890625 36.4622802734375 869.7552490234375 41.5233154296875 884.76025390625 C 46.7474365234375 900.2494506835938 52.5875244140625 915.192626953125 58.88134765625 929.175048828125 C 65.36083984375 943.570068359375 72.5186767578125 957.385009765625 80.1556396484375 970.2362670898438 C 88.00048828125 983.437255859375 96.587646484375 996.01904296875 105.6781005859375 1007.632263183594 C 114.999267578125 1019.539672851563 125.1280517578125 1030.784423828125 135.783447265625 1041.054443359375 C 146.6925048828125 1051.568481445313 158.47705078125 1061.373046875 170.8099365234375 1070.195434570313 C 183.419921875 1079.216064453125 196.975341796875 1087.476318359375 211.0997314453125 1094.746704101563 C 225.525146484375 1102.172119140625 240.96728515625 1108.783081054688 256.9976806640625 1114.39599609375 C 273.352294921875 1120.122680664063 290.797119140625 1124.97802734375 308.8475341796875 1128.827026367188 C 327.244873046875 1132.750244140625 346.80712890625 1135.742431640625 366.99072265625 1137.720703125 C 387.5433349609375 1139.73486328125 409.336669921875 1140.756225585938 431.7657470703125 1140.756225585938 C 484.5853271484375 1140.756225585938 534.49609375 1141.986450195313 578.5316772460938 1143.071899414063 C 616.5882568359375 1144.009887695313 652.5343017578125 1144.895874023438 685.3158569335938 1144.895874023438 C 711.564697265625 1144.895874023438 733.824462890625 1144.319213867188 753.3674926757813 1143.1328125 C 775.6344604492188 1141.781005859375 794.8759155273438 1139.626831054688 812.1912841796875 1136.546875 C 821.3316650390625 1134.921020507813 830.0640869140625 1133.001220703125 838.1456909179688 1130.841064453125 C 846.485107421875 1128.61181640625 854.443115234375 1126.043212890625 861.799072265625 1123.20703125 C 869.3477172851563 1120.296264648438 876.5338745117188 1116.9990234375 883.15771484375 1113.406616210938 C 889.9256591796875 1109.736083984375 896.3436889648438 1105.629272460938 902.2332763671875 1101.200073242188 C 926.7662963867188 1082.751098632813 944.3540649414063 1057.275268554688 956.0020751953125 1023.317016601563 C 958.9854736328125 1014.619018554688 961.6248779296875 1005.19482421875 963.8468627929688 995.3062744140625 C 966.0827026367188 985.356689453125 967.968505859375 974.6146240234375 969.45166015625 963.378662109375 C 970.940673828125 952.0984497070313 972.0720825195313 939.9566650390625 972.8142700195313 927.2906494140625 C 973.55810546875 914.6016845703125 973.93505859375 900.9784545898438 973.93505859375 886.7994384765625 C 973.93505859375 755.0850830078125 1074.075317382813 592.4410400390625 1162.42724609375 448.9430541992188 C 1204.697021484375 380.2898559570313 1244.622680664063 315.4440307617188 1269.567626953125 260.476806640625 C 1275.9765625 246.3548583984375 1281.264526367188 233.1383056640625 1285.28466796875 221.194091796875 C 1289.556640625 208.502685546875 1292.585327148438 196.69482421875 1294.286499023438 186.0986328125 C 1295.170288085938 180.594482421875 1295.7197265625 175.276611328125 1295.91943359375 170.2930908203125 C 1296.12353515625 165.203857421875 1295.96923828125 160.3076171875 1295.461303710938 155.7401123046875 C 1294.943481445313 151.0858154296875 1294.042236328125 146.6317138671875 1292.783081054688 142.501220703125 C 1291.50146484375 138.2978515625 1289.81005859375 134.302001953125 1287.755737304688 130.6246337890625 C 1285.935546875 127.3662109375 1283.779052734375 124.26611328125 1281.346435546875 121.4100341796875 C 1278.875732421875 118.5093994140625 1276.046264648438 115.7740478515625 1272.936889648438 113.2802734375 C 1269.778442382813 110.7471923828125 1266.237915039063 108.3883056640625 1262.413696289063 106.269287109375 C 1258.531127929688 104.1177978515625 1254.242431640625 102.150634765625 1249.666748046875 100.4222412109375 C 1240.327270507813 96.894287109375 1229.369506835938 94.202392578125 1217.097900390625 92.421875 C 1204.52587890625 90.597900390625 1190.1826171875 89.6728515625 1174.466674804688 89.6728515625 M 1174.466674804688 88.6728515625 C 1538.698852539063 88.6728515625 974.93505859375 574.4824829101563 974.93505859375 886.7994384765625 C 974.93505859375 1115.2041015625 879.2059936523438 1145.895874023438 685.3159790039063 1145.895874023438 C 614.0838012695313 1145.895874023438 529.6262817382813 1141.756225585938 431.7657470703125 1141.756225585938 C 67.5340576171875 1141.756225585938 -0.0001220703125 877.8170166015625 -0.0001220703125 565.5000610351563 C -0.0001220703125 253.18310546875 810.235107421875 88.6728515625 1174.466674804688 88.6728515625 Z"/>
    </g>
    <g id="Path_2" data-name="Path 2" class="cls-2" transform="translate(3470 2445)">
      <path class="cls-3" d="M 685.3154907226563 1145.39599609375 C 652.5277099609375 1145.39599609375 616.5786743164063 1144.510009765625 578.5191040039063 1143.571899414063 C 534.4866943359375 1142.486694335938 484.5792846679688 1141.256469726563 431.7658996582031 1141.256469726563 C 409.3206787109375 1141.256469726563 387.5108947753906 1140.234252929688 366.9420776367188 1138.218505859375 C 346.7398986816406 1136.238403320313 327.1590881347656 1133.243286132813 308.7432861328125 1129.316284179688 C 290.6723022460938 1125.462890625 273.2070922851563 1120.601684570313 256.8324890136719 1114.868041992188 C 240.7804870605469 1109.247436523438 225.3166809082031 1102.627197265625 210.87109375 1095.19140625 C 196.7250823974609 1087.909912109375 183.1488800048828 1079.636840820313 170.5190887451172 1070.602294921875 C 158.1664886474609 1061.765625 146.3630828857422 1051.945434570313 135.4366912841797 1041.414428710938 C 124.7644882202148 1031.12841796875 114.6198883056641 1019.866271972656 105.2844848632813 1007.9404296875 C 96.18088531494141 996.3106689453125 87.58168792724609 983.7110595703125 79.72589111328125 970.4916381835938 C 72.07928466796875 957.6244506835938 64.91288757324219 943.7926635742188 58.42548751831055 929.3804321289063 C 52.12508773803711 915.3832397460938 46.27888870239258 900.4246826171875 41.04948806762695 884.9200439453125 C 35.98428726196289 869.9020385742188 31.34628677368164 853.9226684570313 27.2642879486084 837.4256591796875 C 23.32308769226074 821.4974365234375 19.78088760375977 804.6034545898438 16.73588752746582 787.212646484375 C 13.80748748779297 770.4876708984375 11.24848747253418 752.7852783203125 9.130086898803711 734.5972290039063 C 7.102687358856201 717.1922607421875 5.414487361907959 698.7880249023438 4.112087249755859 679.8958740234375 C 2.873887300491333 661.9332275390625 1.943687319755554 642.9334716796875 1.34728729724884 623.4246826171875 C 0.7850872874259949 605.036865234375 0.5000873208045959 585.5482788085938 0.5000873208045959 565.5000610351563 C 0.5000873208045959 555.8904418945313 1.283687353134155 546.2122802734375 2.828887224197388 536.7342529296875 C 4.349287509918213 527.4100341796875 6.648687362670898 518.0226440429688 9.663487434387207 508.8326416015625 C 12.62888717651367 499.7932434082031 16.36788749694824 490.696044921875 20.77668762207031 481.7938537597656 C 25.1122875213623 473.0392456054688 30.21488761901855 464.2328491210938 35.94268798828125 455.6190490722656 C 41.57388687133789 447.1504516601563 47.96368789672852 438.6358642578125 54.93468856811523 430.3118591308594 C 61.78628540039063 422.1304626464844 69.38668823242188 413.9092407226563 77.52488708496094 405.8766479492188 C 85.521484375 397.9838562011719 94.25568389892578 390.057861328125 103.4846878051758 382.3182678222656 C 112.5506896972656 374.7156677246094 122.3410873413086 367.0860595703125 132.5842895507813 359.6414489746094 C 152.5284881591797 345.1464538574219 174.969482421875 330.7828674316406 199.2834930419922 316.9500427246094 C 222.7148895263672 303.6192626953125 248.4520874023438 290.4588623046875 275.7807006835938 277.8342590332031 C 302.1015014648438 265.675048828125 330.5154724121094 253.7272491455078 360.2336730957031 242.3230590820313 C 388.8498840332031 231.3414459228516 419.3208923339844 220.6156463623047 450.80029296875 210.4434509277344 C 510.5706787109375 191.1290588378906 575.2052612304688 173.3776550292969 642.9082641601563 157.6818542480469 C 706.2014770507813 143.0084533691406 771.6295166015625 130.2468566894531 837.3748779296875 119.7512512207031 C 960.896484375 100.0324554443359 1080.611328125 89.1728515625 1174.466918945313 89.1728515625 C 1190.206909179688 89.1728515625 1204.574096679688 90.09945678710938 1217.169921875 91.92705535888672 C 1229.477294921875 93.71285247802734 1240.470336914063 96.41365051269531 1249.843505859375 99.95445251464844 C 1254.44189453125 101.6914520263672 1258.752685546875 103.6688537597656 1262.656127929688 105.8318557739258 C 1266.505249023438 107.9646530151367 1270.069458007813 110.3394546508789 1273.249877929688 112.890251159668 C 1276.383911132813 115.4038543701172 1279.236083984375 118.1612548828125 1281.727294921875 121.0858535766602 C 1284.181030273438 123.9666519165039 1286.356323242188 127.0940551757813 1288.192504882813 130.3806457519531 C 1290.264038085938 134.0892486572266 1291.9697265625 138.1180572509766 1293.261474609375 142.3554534912109 C 1294.529663085938 146.5154571533203 1295.437133789063 151.0000457763672 1295.958251953125 155.6846466064453 C 1296.46923828125 160.2772521972656 1296.624267578125 165.1988525390625 1296.419311523438 170.3130493164063 C 1296.218627929688 175.3164520263672 1295.667236328125 180.654052734375 1294.7802734375 186.1778564453125 C 1293.07470703125 196.8012542724609 1290.039428710938 208.6360473632813 1285.758911132813 221.3536529541016 C 1281.733032226563 233.3136596679688 1276.438842773438 246.5460510253906 1270.023071289063 260.6834411621094 C 1245.065063476563 315.679443359375 1205.131469726563 380.5382385253906 1162.85302734375 449.2050476074219 C 1074.535888671875 592.6466674804688 974.43505859375 755.2266235351563 974.43505859375 886.7994384765625 C 974.43505859375 900.98828125 974.0576782226563 914.6212768554688 973.3134765625 927.31982421875 C 972.5704956054688 939.998046875 971.4378662109375 952.15185546875 969.947265625 963.4442749023438 C 968.4620971679688 974.69482421875 966.5739135742188 985.45166015625 964.334716796875 995.4158325195313 C 962.1087036132813 1005.322265625 959.4642944335938 1014.764038085938 956.4749145507813 1023.479248046875 C 944.79345703125 1057.535278320313 927.1491088867188 1083.088623046875 902.5335083007813 1101.599853515625 C 896.624267578125 1106.043823242188 890.185302734375 1110.1640625 883.3956909179688 1113.846313476563 C 876.7531127929688 1117.448852539063 869.5473022460938 1120.755249023438 861.9786987304688 1123.673706054688 C 854.6060791015625 1126.516479492188 846.630859375 1129.090454101563 838.2744750976563 1131.32421875 C 830.1792602539063 1133.488037109375 821.432861328125 1135.411010742188 812.2782592773438 1137.039306640625 C 794.9439086914063 1140.122680664063 775.6837158203125 1142.279296875 753.3974609375 1143.632080078125 C 733.8442993164063 1144.819091796875 711.574462890625 1145.39599609375 685.3154907226563 1145.39599609375 Z"/>
      <path class="cls-4" d="M 1174.466674804688 89.6728515625 C 1080.63671875 89.6728515625 960.9498901367188 100.5302734375 837.4536743164063 120.2449951171875 C 771.7196655273438 130.7386474609375 706.3031005859375 143.498291015625 643.0210571289063 158.1688232421875 C 575.3316650390625 173.8614501953125 510.7109375 191.6092529296875 450.953857421875 210.9190673828125 C 419.48291015625 221.088623046875 389.0205078125 231.8114013671875 360.4127197265625 242.789794921875 C 330.704833984375 254.1903076171875 302.3011474609375 266.1336669921875 275.990234375 278.2880249023438 C 248.6744384765625 290.9068603515625 222.94970703125 304.0608520507813 199.5306396484375 317.3846435546875 C 175.2325439453125 331.2084350585938 152.8074951171875 345.5616455078125 132.8780517578125 360.0460815429688 C 122.644287109375 367.4838256835938 112.8629150390625 375.1062622070313 103.805908203125 382.7014770507813 C 94.5870361328125 390.4322509765625 85.863037109375 398.3492431640625 77.8758544921875 406.232666015625 C 69.7489013671875 414.2540283203125 62.1593017578125 422.4634399414063 55.317626953125 430.6328735351563 C 48.3585205078125 438.94287109375 41.9798583984375 447.4424438476563 36.358642578125 455.8960571289063 C 30.6427001953125 464.4920654296875 25.5509033203125 473.280029296875 21.2244873046875 482.015625 C 16.8262939453125 490.8966674804688 13.0963134765625 499.9716796875 10.1383056640625 508.9884643554688 C 7.1317138671875 518.1538696289063 4.8382568359375 527.5160522460938 3.322265625 536.8148803710938 C 1.78125 546.2662353515625 0.9998779296875 555.917236328125 0.9998779296875 565.5000610351563 C 0.9998779296875 585.5432739257813 1.284912109375 605.0266723632813 1.8466796875 623.409423828125 C 2.44287109375 642.911865234375 3.3729248046875 661.905029296875 4.6107177734375 679.8614501953125 C 5.9127197265625 698.745849609375 7.60009765625 717.1420288085938 9.62646484375 734.5394287109375 C 11.743896484375 752.7178344726563 14.301513671875 770.41064453125 17.228271484375 787.126220703125 C 20.271240234375 804.505859375 23.81103515625 821.388427734375 27.74951171875 837.305419921875 C 31.828125 853.7890625 36.4622802734375 869.7552490234375 41.5233154296875 884.76025390625 C 46.7474365234375 900.2494506835938 52.5875244140625 915.192626953125 58.88134765625 929.175048828125 C 65.36083984375 943.570068359375 72.5186767578125 957.385009765625 80.1556396484375 970.2362670898438 C 88.00048828125 983.437255859375 96.587646484375 996.01904296875 105.6781005859375 1007.632263183594 C 114.999267578125 1019.539672851563 125.1280517578125 1030.784423828125 135.783447265625 1041.054443359375 C 146.6925048828125 1051.568481445313 158.47705078125 1061.373046875 170.8099365234375 1070.195434570313 C 183.419921875 1079.216064453125 196.975341796875 1087.476318359375 211.0997314453125 1094.746704101563 C 225.525146484375 1102.172119140625 240.96728515625 1108.783081054688 256.9976806640625 1114.39599609375 C 273.352294921875 1120.122680664063 290.797119140625 1124.97802734375 308.8475341796875 1128.827026367188 C 327.244873046875 1132.750244140625 346.80712890625 1135.742431640625 366.99072265625 1137.720703125 C 387.5433349609375 1139.73486328125 409.336669921875 1140.756225585938 431.7657470703125 1140.756225585938 C 484.5853271484375 1140.756225585938 534.49609375 1141.986450195313 578.5316772460938 1143.071899414063 C 616.5882568359375 1144.009887695313 652.5343017578125 1144.895874023438 685.3158569335938 1144.895874023438 C 711.564697265625 1144.895874023438 733.824462890625 1144.319213867188 753.3674926757813 1143.1328125 C 775.6344604492188 1141.781005859375 794.8759155273438 1139.626831054688 812.1912841796875 1136.546875 C 821.3316650390625 1134.921020507813 830.0640869140625 1133.001220703125 838.1456909179688 1130.841064453125 C 846.485107421875 1128.61181640625 854.443115234375 1126.043212890625 861.799072265625 1123.20703125 C 869.3477172851563 1120.296264648438 876.5338745117188 1116.9990234375 883.15771484375 1113.406616210938 C 889.9256591796875 1109.736083984375 896.3436889648438 1105.629272460938 902.2332763671875 1101.200073242188 C 926.7662963867188 1082.751098632813 944.3540649414063 1057.275268554688 956.0020751953125 1023.317016601563 C 958.9854736328125 1014.619018554688 961.6248779296875 1005.19482421875 963.8468627929688 995.3062744140625 C 966.0827026367188 985.356689453125 967.968505859375 974.6146240234375 969.45166015625 963.378662109375 C 970.940673828125 952.0984497070313 972.0720825195313 939.9566650390625 972.8142700195313 927.2906494140625 C 973.55810546875 914.6016845703125 973.93505859375 900.9784545898438 973.93505859375 886.7994384765625 C 973.93505859375 755.0850830078125 1074.075317382813 592.4410400390625 1162.42724609375 448.9430541992188 C 1204.697021484375 380.2898559570313 1244.622680664063 315.4440307617188 1269.567626953125 260.476806640625 C 1275.9765625 246.3548583984375 1281.264526367188 233.1383056640625 1285.28466796875 221.194091796875 C 1289.556640625 208.502685546875 1292.585327148438 196.69482421875 1294.286499023438 186.0986328125 C 1295.170288085938 180.594482421875 1295.7197265625 175.276611328125 1295.91943359375 170.2930908203125 C 1296.12353515625 165.203857421875 1295.96923828125 160.3076171875 1295.461303710938 155.7401123046875 C 1294.943481445313 151.0858154296875 1294.042236328125 146.6317138671875 1292.783081054688 142.501220703125 C 1291.50146484375 138.2978515625 1289.81005859375 134.302001953125 1287.755737304688 130.6246337890625 C 1285.935546875 127.3662109375 1283.779052734375 124.26611328125 1281.346435546875 121.4100341796875 C 1278.875732421875 118.5093994140625 1276.046264648438 115.7740478515625 1272.936889648438 113.2802734375 C 1269.778442382813 110.7471923828125 1266.237915039063 108.3883056640625 1262.413696289063 106.269287109375 C 1258.531127929688 104.1177978515625 1254.242431640625 102.150634765625 1249.666748046875 100.4222412109375 C 1240.327270507813 96.894287109375 1229.369506835938 94.202392578125 1217.097900390625 92.421875 C 1204.52587890625 90.597900390625 1190.1826171875 89.6728515625 1174.466674804688 89.6728515625 M 1174.466674804688 88.6728515625 C 1538.698852539063 88.6728515625 974.93505859375 574.4824829101563 974.93505859375 886.7994384765625 C 974.93505859375 1115.2041015625 879.2059936523438 1145.895874023438 685.3159790039063 1145.895874023438 C 614.0838012695313 1145.895874023438 529.6262817382813 1141.756225585938 431.7657470703125 1141.756225585938 C 67.5340576171875 1141.756225585938 -0.0001220703125 877.8170166015625 -0.0001220703125 565.5000610351563 C -0.0001220703125 253.18310546875 810.235107421875 88.6728515625 1174.466674804688 88.6728515625 Z"/>
    </g>
    <g id="Path_3" data-name="Path 3" class="cls-2" transform="translate(1475 1178)">
      <path class="cls-3" d="M -122.3637390136719 1902.848876953125 C -133.5984954833984 1902.848876953125 -144.2649993896484 1901.852172851563 -154.0664978027344 1899.885986328125 C -163.6812438964844 1897.957397460938 -172.7369995117188 1895.041381835938 -180.9817352294922 1891.219116210938 C -189.0644989013672 1887.4716796875 -196.5987396240234 1882.746459960938 -203.3749847412109 1877.174194335938 C -210.0157470703125 1871.713134765625 -216.1184997558594 1865.282958984375 -221.5139923095703 1858.061401367188 C -227.1917419433594 1850.4619140625 -232.2549896240234 1841.760375976563 -236.562744140625 1832.198974609375 C -240.7694854736328 1822.861938476563 -244.3767395019531 1812.436157226563 -247.2844848632813 1801.211669921875 C -250.1187438964844 1790.270141601563 -252.3699951171875 1778.25390625 -253.9757385253906 1765.496948242188 C -255.5377349853516 1753.086669921875 -256.5339965820313 1739.615478515625 -256.9367370605469 1725.457153320313 C -257.3277282714844 1711.715454101563 -257.1709899902344 1696.924682617188 -256.4712524414063 1681.495971679688 C -255.7937469482422 1666.560913085938 -254.5869903564453 1650.586669921875 -252.8847351074219 1634.016967773438 C -251.2419891357422 1618.027465820313 -249.0884857177734 1601.0048828125 -246.4839935302734 1583.422485351563 C -243.9802398681641 1566.519409179688 -240.9832458496094 1548.583984375 -237.5764923095703 1530.113891601563 C -231.1417388916016 1495.229125976563 -223.2569885253906 1458.216430664063 -213.4714965820313 1416.961181640625 C -204.7927398681641 1380.371704101563 -194.8359985351563 1341.382934570313 -183.0324859619141 1297.766479492188 C -161.1749877929688 1216.999633789063 -136.6864929199219 1134.17138671875 -113.0042419433594 1054.070434570313 C -83.26449584960938 953.4808959960938 -55.17399215698242 858.4701538085938 -34.16449356079102 774.3339233398438 C -22.90224266052246 729.23193359375 -14.65599250793457 691.18017578125 -8.954492568969727 658.0046997070313 C -5.876992225646973 640.097900390625 -3.524742126464844 623.4069213867188 -1.962492227554321 608.3948974609375 C -0.3284921944141388 592.69140625 0.5000078082084656 578.2593994140625 0.5000078082084656 565.4999389648438 C 0.5000078082084656 555.8904418945313 1.283507823944092 546.212158203125 2.829007863998413 536.7341918945313 C 4.349257946014404 527.409912109375 6.648507595062256 518.0223999023438 9.663257598876953 508.8324279785156 C 12.62875747680664 499.7931823730469 16.36775779724121 490.6959228515625 20.77650833129883 481.7936706542969 C 25.11225700378418 473.0391845703125 30.21475791931152 464.232666015625 35.94250869750977 455.6189270019531 C 41.57375717163086 447.1504211425781 47.96350860595703 438.6356811523438 54.93450927734375 430.3116760253906 C 61.78625869750977 422.1304321289063 69.38675689697266 413.9091796875 77.52475738525391 405.8766784667969 C 85.52150726318359 397.9839172363281 94.25550842285156 390.0576782226563 103.484504699707 382.3181762695313 C 112.5505065917969 374.7156677246094 122.3410110473633 367.0859375 132.5842590332031 359.6414184570313 C 152.5285034179688 345.1464233398438 174.9692535400391 330.7829284667969 199.2835083007813 316.9499206542969 C 222.7147521972656 303.6191711425781 248.4520111083984 290.4589233398438 275.78076171875 277.8341674804688 C 302.1015014648438 265.6749267578125 330.5155029296875 253.7271728515625 360.2335205078125 242.3229217529297 C 388.8497619628906 231.3414306640625 419.3207702636719 220.6156768798828 450.8002624511719 210.4434204101563 C 510.5707702636719 191.1291809082031 575.2050170898438 173.3776702880859 642.9082641601563 157.6819305419922 C 706.2015380859375 143.0084228515625 771.6295166015625 130.2469177246094 837.374755859375 119.7514266967773 C 960.896240234375 100.0324249267578 1080.611206054688 89.17292785644531 1174.466796875 89.17292785644531 C 1186.573974609375 89.17292785644531 1198.521484375 90.43092346191406 1209.977294921875 92.91192626953125 C 1221.20556640625 95.34367370605469 1232.274047851563 99.01817321777344 1242.875244140625 103.8329238891602 C 1253.26171875 108.550422668457 1263.48876953125 114.4936752319336 1273.271728515625 121.498176574707 C 1282.851318359375 128.3564300537109 1292.271240234375 136.4224243164063 1301.27001953125 145.47216796875 C 1307.795288085938 152.0339202880859 1314.256713867188 159.2719268798828 1320.475219726563 166.9846801757813 C 1326.591796875 174.5706787109375 1332.6435546875 182.8274230957031 1338.462280273438 191.5254211425781 C 1344.182739257813 200.076171875 1349.837280273438 209.2916717529297 1355.269287109375 218.9156799316406 C 1360.606201171875 228.3716735839844 1365.876708984375 238.4851684570313 1370.934204101563 248.9759216308594 C 1380.775268554688 269.387939453125 1390.21630859375 292.0684204101563 1398.994995117188 316.3869323730469 C 1407.439208984375 339.7796630859375 1415.50146484375 365.3271789550781 1422.95751953125 392.3199157714844 C 1430.109985351563 418.2136840820313 1436.900268554688 446.1441650390625 1443.139038085938 475.3359375 C 1449.10498046875 503.2504272460938 1454.72998046875 533.0802001953125 1459.857788085938 563.9967041015625 C 1464.742797851563 593.450439453125 1469.31005859375 624.6956787109375 1473.432495117188 656.8644409179688 C 1477.3427734375 687.3746948242188 1480.959716796875 719.5516967773438 1484.183471679688 752.5016479492188 C 1487.224243164063 783.5829467773438 1489.998779296875 816.2084350585938 1492.430053710938 849.47216796875 C 1494.70751953125 880.6331787109375 1496.747314453125 913.2239379882813 1498.492309570313 946.3386840820313 C 1501.593994140625 1005.192443847656 1503.899536132813 1068.33544921875 1505.344970703125 1134.01416015625 C 1507.996948242188 1254.525146484375 1507.378295898438 1364.568969726563 1506.926513671875 1444.91943359375 C 1506.775268554688 1471.841674804688 1506.64453125 1495.092651367188 1506.64453125 1515.370971679688 C 1506.64453125 1524.956665039063 1505.425048828125 1534.533935546875 1503.019775390625 1543.837158203125 C 1500.6572265625 1552.97412109375 1497.085815429688 1562.100463867188 1492.40380859375 1570.962890625 C 1487.806518554688 1579.665405273438 1482.01123046875 1588.354125976563 1475.17919921875 1596.788208007813 C 1468.473754882813 1605.065673828125 1460.584228515625 1613.326416015625 1451.730224609375 1621.340209960938 C 1443.045776367188 1629.20068359375 1433.193725585938 1637.040649414063 1422.447998046875 1644.642211914063 C 1411.915283203125 1652.093139648438 1400.233764648438 1659.520141601563 1387.72802734375 1666.717407226563 C 1375.478515625 1673.766967773438 1362.100952148438 1680.789672851563 1347.96728515625 1687.590454101563 C 1334.1328125 1694.247680664063 1319.193237304688 1700.874877929688 1303.56396484375 1707.288696289063 C 1190.394287109375 1753.729736328125 1030.693725585938 1793.664916992188 828.8982543945313 1825.985229492188 C 743.7680053710938 1839.619873046875 651.0205078125 1851.885986328125 553.2319946289063 1862.4423828125 C 467.1730041503906 1871.732666015625 377.2200012207031 1879.708374023438 285.8720092773438 1886.148193359375 C 206.3175048828125 1891.756469726563 127.7020111083984 1896.076416015625 52.20925903320313 1898.988159179688 C -13.27499198913574 1901.513916015625 -73.64124298095703 1902.848876953125 -122.3637390136719 1902.848876953125 Z"/>
      <path class="cls-4" d="M 1174.466796875 89.6729736328125 C 1080.63671875 89.6729736328125 960.9497680664063 100.5303955078125 837.4537353515625 120.2451171875 C 771.7197265625 130.7386474609375 706.302978515625 143.4981689453125 643.021240234375 158.1689453125 C 575.331787109375 173.8614501953125 510.7109985351563 191.609130859375 450.9539794921875 210.919189453125 C 419.4830322265625 221.088623046875 389.0205078125 231.8114013671875 360.4127807617188 242.7896728515625 C 330.7047729492188 254.190185546875 302.301025390625 266.1334228515625 275.990234375 278.2879638671875 C 248.6744995117188 290.906982421875 222.9497680664063 304.0606689453125 199.53076171875 317.3843994140625 C 175.2324829101563 331.2081298828125 152.8074951171875 345.5616455078125 132.8782348632813 360.0458984375 C 122.644287109375 367.483642578125 112.863037109375 375.106201171875 103.8060302734375 382.701416015625 C 94.5872802734375 390.43212890625 85.863037109375 398.34912109375 77.87603759765625 406.232421875 C 69.7490234375 414.25390625 62.15948486328125 422.46337890625 55.3179931640625 430.6329345703125 C 48.3587646484375 438.942626953125 41.97998046875 447.4423828125 36.3590087890625 455.8958740234375 C 30.64300537109375 464.491943359375 25.551025390625 473.2799072265625 21.2247314453125 482.015625 C 16.8262939453125 490.896484375 13.0965576171875 499.971435546875 10.1385498046875 508.9884033203125 C 7.1317138671875 518.1539306640625 4.8385009765625 527.515869140625 3.322265625 536.814697265625 C 1.78125 546.2662353515625 1 555.9171142578125 1 565.4998779296875 C 1 578.2767333984375 0.1705322265625 592.7259521484375 -1.4652099609375 608.4466552734375 C -3.0284423828125 623.4697265625 -5.3824462890625 640.171630859375 -8.4617919921875 658.0894775390625 C -14.165283203125 691.2774658203125 -22.4139404296875 729.3409423828125 -33.679443359375 774.4552001953125 C -54.6915283203125 858.6016845703125 -82.783447265625 953.617431640625 -112.5247802734375 1054.212158203125 C -136.206298828125 1134.310424804688 -160.6939697265625 1217.135986328125 -182.5496826171875 1297.897216796875 C -194.35205078125 1341.508422851563 -204.3074951171875 1380.4921875 -212.9849853515625 1417.076416015625 C -222.7684326171875 1458.32373046875 -230.6517333984375 1495.328125 -237.084716796875 1530.204711914063 C -240.490478515625 1548.6689453125 -243.4864501953125 1566.598388671875 -245.9892578125 1583.49560546875 C -248.5927734375 1601.070922851563 -250.7452392578125 1618.0859375 -252.38720703125 1634.068115234375 C -254.0887451171875 1650.628173828125 -255.29443359375 1666.592895507813 -255.9718017578125 1681.518676757813 C -256.6710205078125 1696.935180664063 -256.8277587890625 1711.71337890625 -256.43701171875 1725.44287109375 C -256.0345458984375 1739.585205078125 -255.039794921875 1753.040161132813 -253.479736328125 1765.434448242188 C -251.876708984375 1778.17041015625 -249.6295166015625 1790.165405273438 -246.800537109375 1801.086181640625 C -243.8997802734375 1812.283447265625 -240.302001953125 1822.68212890625 -236.10693359375 1831.993408203125 C -231.81396484375 1841.52197265625 -226.76953125 1850.19189453125 -221.113525390625 1857.76220703125 C -215.741943359375 1864.951416015625 -209.667236328125 1871.352661132813 -203.0574951171875 1876.787963867188 C -196.31396484375 1882.333129882813 -188.8157958984375 1887.035888671875 -180.771484375 1890.765380859375 C -172.562255859375 1894.571166992188 -163.54443359375 1897.474975585938 -153.96826171875 1899.395629882813 C -144.198974609375 1901.35546875 -133.5655517578125 1902.348876953125 -122.36376953125 1902.348876953125 C -73.647705078125 1902.348876953125 -13.2879638671875 1901.01416015625 52.19000244140625 1898.488647460938 C 127.677490234375 1895.5771484375 206.2877807617188 1891.257446289063 285.8367309570313 1885.6494140625 C 377.1787719726563 1879.210205078125 467.12548828125 1871.23486328125 553.17822265625 1861.945190429688 C 650.958251953125 1851.3896484375 743.697265625 1839.124877929688 828.8192749023438 1825.491455078125 C 1030.576782226563 1793.177124023438 1190.239990234375 1753.25244140625 1303.374267578125 1706.826171875 C 1318.994506835938 1700.416137695313 1333.9248046875 1693.792724609375 1347.75048828125 1687.139892578125 C 1361.873291015625 1680.344482421875 1375.23974609375 1673.327392578125 1387.478515625 1666.283935546875 C 1399.970947265625 1659.0947265625 1411.639282226563 1651.675903320313 1422.159301757813 1644.234130859375 C 1432.888793945313 1636.643920898438 1442.724975585938 1628.816650390625 1451.394775390625 1620.9697265625 C 1460.229736328125 1612.972900390625 1468.101318359375 1604.731201171875 1474.790771484375 1596.473388671875 C 1481.602294921875 1588.064697265625 1487.379516601563 1579.403198242188 1491.961791992188 1570.729248046875 C 1496.62548828125 1561.901123046875 1500.182983398438 1552.811401367188 1502.535522460938 1543.7119140625 C 1504.930297851563 1534.44970703125 1506.14453125 1524.914428710938 1506.14453125 1515.370849609375 C 1506.14453125 1495.091186523438 1506.275268554688 1471.839599609375 1506.426513671875 1444.916748046875 C 1506.878295898438 1364.569091796875 1507.4970703125 1254.529174804688 1504.844970703125 1134.025146484375 C 1503.399780273438 1068.351684570313 1501.09423828125 1005.213684082031 1497.993041992188 946.3648681640625 C 1496.248046875 913.25341796875 1494.20849609375 880.6663818359375 1491.931274414063 849.5086669921875 C 1489.50048828125 816.2489013671875 1486.726318359375 783.62744140625 1483.685791015625 752.5504150390625 C 1480.462524414063 719.60546875 1476.845947265625 687.4334716796875 1472.936767578125 656.927978515625 C 1468.81494140625 624.765380859375 1464.24853515625 593.526123046875 1459.364501953125 564.078369140625 C 1454.238037109375 533.16943359375 1448.614501953125 503.347412109375 1442.650268554688 475.4404296875 C 1436.413330078125 446.2584228515625 1429.62548828125 418.33740234375 1422.475830078125 392.453125 C 1415.02294921875 365.47265625 1406.964721679688 339.9373779296875 1398.524536132813 316.556640625 C 1389.751708984375 292.254150390625 1380.317504882813 269.5897216796875 1370.484008789063 249.19287109375 C 1365.431030273438 238.712158203125 1360.16552734375 228.60791015625 1354.833740234375 219.161376953125 C 1349.407958984375 209.5482177734375 1343.76025390625 200.3436279296875 1338.046752929688 191.803466796875 C 1332.236083984375 183.11767578125 1326.193237304688 174.8729248046875 1320.0859375 167.2984619140625 C 1313.878295898438 159.59912109375 1307.428466796875 152.3741455078125 1300.91552734375 145.82470703125 C 1291.936279296875 136.794677734375 1282.537719726563 128.7469482421875 1272.980712890625 121.9046630859375 C 1263.223999023438 114.919189453125 1253.025512695313 108.9921875 1242.66845703125 104.2882080078125 C 1232.099731445313 99.4879150390625 1221.06494140625 95.824951171875 1209.871459960938 93.400634765625 C 1198.4501953125 90.9271240234375 1186.53857421875 89.6729736328125 1174.466796875 89.6729736328125 M 1174.466796875 88.6729736328125 C 1538.698974609375 88.6729736328125 1507.14453125 1203.0537109375 1507.14453125 1515.370849609375 C 1507.14453125 1827.68798828125 241.8679809570313 1903.348876953125 -122.36376953125 1903.348876953125 C -486.595458984375 1903.348876953125 0 877.81689453125 0 565.4998779296875 C 0 253.1829833984375 810.2349853515625 88.6729736328125 1174.466796875 88.6729736328125 Z"/>
    </g>
  </g>
</svg>
