<?xml version="1.0" standalone="no"?>
<!DOCTYPE svg PUBLIC "-//W3C//DTD SVG 20010904//EN"
 "http://www.w3.org/TR/2001/REC-SVG-20010904/DTD/svg10.dtd">
<svg version="1.0" xmlns="http://www.w3.org/2000/svg"
 width="884.000000pt" height="592.000000pt" viewBox="0 0 884.000000 592.000000"
 preserveAspectRatio="xMidYMid meet">

<g transform="translate(0.000000,592.000000) scale(0.100000,-0.100000)"
fill="#000000" stroke="none">
<path d="M4341 5653 l-43 -36 63 -63 63 -64 78 0 c43 0 78 4 78 9 0 11 -132
144 -169 170 l-27 19 -43 -35z"/>
<path d="M4315 4251 c-79 -21 -154 -81 -193 -155 -37 -70 -38 -188 -4 -258 51
-103 136 -159 255 -166 71 -4 82 -2 142 27 271 134 188 538 -114 557 -31 2
-69 0 -86 -5z"/>
<path d="M3093 4072 l-283 -2 0 -108 0 -107 457 3 c252 2 458 4 459 5 0 1 -1
48 -4 104 l-4 102 -172 3 c-94 2 -298 2 -453 0z"/>
<path d="M5218 4072 l-168 -2 0 -100 c0 -55 -1 -103 -2 -106 -2 -4 317 -7 707
-8 789 -1 746 3 797 -68 22 -32 23 -40 26 -280 l3 -248 75 0 75 0 -3 308 c-3
302 -3 308 -27 357 -30 59 -59 86 -127 120 l-51 24 -469 1 c-258 0 -514 2
-569 3 -55 1 -175 1 -267 -1z"/>
<path d="M1998 3641 l-3 -168 67 -2 66 -2 4 133 c3 116 6 138 25 171 l22 37
-89 0 -89 0 -3 -169z"/>
<path d="M699 3378 c-35 -18 -85 -54 -110 -79 -38 -37 -49 -57 -60 -103 -13
-60 -12 -77 26 -291 l18 -100 -26 -95 c-23 -82 -24 -97 -13 -115 20 -30 97
-45 227 -45 166 0 208 27 194 125 l-7 41 54 10 53 9 1 130 c1 121 -1 135 -27
195 -15 36 -33 86 -39 112 -11 42 -10 49 10 76 58 78 -38 162 -185 162 -39 0
-68 -8 -116 -32z m267 -225 c10 -96 -7 -171 -46 -204 -22 -19 -30 -34 -30 -60
l-1 -34 -29 35 c-53 62 -77 199 -49 279 11 32 23 38 94 44 22 2 43 4 47 5 3 1
10 -28 14 -65z"/>
<path d="M7954 3229 c-31 -16 -54 -62 -54 -112 0 -58 46 -128 115 -175 l50
-34 7 41 c10 60 14 63 56 42 63 -31 140 -33 205 -6 15 6 17 4 11 -19 -3 -14
-3 -37 0 -50 4 -18 11 -22 30 -19 18 4 27 -1 36 -18 11 -20 10 -25 -8 -40 -19
-15 -20 -18 -7 -29 10 -8 13 -21 9 -33 -6 -19 -5 -19 25 3 38 26 74 80 91 134
16 51 8 171 -14 214 -31 60 -65 72 -206 72 -96 -1 -142 4 -197 20 -79 22 -117
24 -149 9z"/>
<path d="M4360 3213 c-108 -21 -153 -165 -148 -473 l3 -180 -102 0 -103 0 0
-80 0 -80 110 0 c61 0 110 -1 110 -2 0 -21 57 -377 76 -478 45 -238 53 -270
74 -270 15 0 22 17 38 88 32 136 80 394 100 532 l18 125 112 3 112 3 0 79 0
80 -102 0 -103 0 3 177 c4 209 -8 304 -49 389 -22 46 -38 66 -63 78 -34 16
-41 17 -86 9z"/>
<path d="M1320 3170 c0 -5 18 -10 40 -10 45 0 31 31 115 -262 l48 -168 186 2
186 3 -181 2 -180 3 -54 188 c-29 103 -57 202 -62 220 -8 30 -12 32 -53 32
-25 0 -45 -4 -45 -10z"/>
<path d="M1494 3036 c-9 -23 53 -239 72 -253 25 -18 303 -18 327 0 19 14 80
228 71 251 -5 14 -33 16 -235 16 -189 0 -231 -2 -235 -14z"/>
<path d="M6052 2978 c-14 -14 -17 -324 -4 -346 7 -10 159 -12 728 -10 l719 3
3 174 c2 133 -1 176 -10 183 -7 4 -330 8 -718 8 -536 0 -709 -3 -718 -12z"/>
<path d="M1530 2695 c-7 -9 -10 -25 -6 -40 6 -22 11 -26 39 -23 25 2 33 8 35
26 7 44 -41 70 -68 37z"/>
<path d="M1846 2694 c-29 -29 -12 -64 31 -64 32 0 46 31 27 58 -18 26 -37 28
-58 6z"/>
<path d="M8400 2580 c0 -57 -21 -84 -82 -102 -34 -10 -42 -9 -66 9 -22 16 -28
29 -30 70 -3 50 -4 51 -40 57 -20 3 -67 6 -104 6 l-68 0 0 -32 c0 -18 -3 -72
-7 -120 l-6 -88 52 0 c51 0 51 0 45 -27 -4 -16 -10 -32 -14 -38 -8 -11 -17
-69 -25 -175 l-5 -65 16 32 c19 37 16 38 102 -30 l63 -49 -53 -57 c-70 -75
-91 -91 -122 -93 -30 -3 -29 4 -26 -163 1 -121 6 -132 60 -140 176 -25 288
-12 405 46 l65 33 -7 76 c-9 89 -7 366 4 540 7 107 6 135 -9 193 -10 38 -26
80 -35 93 -14 22 -89 74 -106 74 -4 0 -7 -22 -7 -50z"/>
<path d="M2002 1623 c3 -744 3 -759 24 -803 11 -25 28 -51 37 -59 9 -7 14 -18
10 -24 -3 -5 -1 -7 5 -3 6 3 13 2 17 -4 3 -6 25 -20 48 -33 l42 -22 745 -5
745 -5 0 -105 0 -105 -226 -5 -226 -5 -42 -28 c-23 -15 -47 -39 -53 -52 -6
-13 -14 -23 -17 -20 -4 2 -7 -4 -8 -13 0 -9 -4 -38 -8 -65 l-8 -47 1267 0
1266 0 0 35 c0 43 -23 101 -53 133 -49 53 -67 57 -302 62 l-220 5 -3 108 -3
107 291 0 290 0 0 25 c0 21 5 25 30 25 40 0 57 31 30 55 -28 25 -25 39 15 80
41 40 55 43 80 15 24 -27 55 -10 55 30 0 30 0 30 60 30 60 0 60 0 60 -30 0
-40 31 -57 55 -30 24 26 37 25 74 -5 39 -33 48 -61 26 -85 -25 -28 -16 -54 22
-58 24 -2 33 -9 35 -25 3 -20 10 -22 66 -25 61 -3 62 -3 62 23 0 31 98 135
126 135 10 0 32 -14 50 -31 31 -30 32 -30 68 -15 35 14 36 17 36 65 l0 51 75
0 75 0 2 293 c1 160 3 342 4 402 1 61 0 215 -3 343 l-6 232 -68 0 -68 0 -3
-539 c-3 -527 -3 -540 -24 -567 -11 -15 -33 -37 -48 -48 l-27 -21 -2107 -3
-2107 -2 -45 22 c-26 14 -53 37 -65 58 -19 34 -20 51 -20 673 l0 637 -68 0
-68 0 3 -757z"/>
<path d="M562 1877 c3 -51 13 -90 31 -129 28 -58 32 -79 20 -92 -4 -4 -9 -26
-10 -49 -2 -23 -19 -148 -38 -278 -34 -224 -40 -248 -125 -514 -50 -153 -90
-284 -90 -290 0 -14 141 -58 151 -48 4 5 28 58 53 118 82 200 78 197 71 70 -3
-60 -8 -143 -12 -182 l-6 -73 71 0 c69 0 71 1 76 28 3 15 44 270 91 567 46
297 89 563 95 590 6 28 11 57 11 65 0 8 7 60 15 115 14 92 14 100 -2 112 -28
21 -111 33 -225 33 -75 0 -121 5 -146 15 l-36 15 5 -73z"/>
<path d="M5873 783 c9 -2 25 -2 35 0 9 3 1 5 -18 5 -19 0 -27 -2 -17 -5z"/>
<path d="M5854 695 c-18 -19 -23 -31 -19 -48 15 -47 61 -61 95 -27 27 27 25
55 -6 79 -34 27 -40 26 -70 -4z"/>
<path d="M5761 674 c0 -11 3 -14 6 -6 3 7 2 16 -1 19 -3 4 -6 -2 -5 -13z"/>
<path d="M6620 671 c-75 -24 -132 -72 -161 -136 -47 -103 5 -231 117 -285 159
-77 352 85 304 256 -30 108 -167 195 -260 165z m125 -30 c143 -65 169 -250 50
-349 -85 -69 -207 -62 -279 18 -46 51 -56 77 -56 142 0 151 151 251 285 189z"/>
<path d="M6625 539 c-59 -34 -72 -98 -29 -148 21 -25 33 -31 66 -31 51 0 98
43 98 89 0 62 -85 118 -135 90z"/>
<path d="M299 354 c-11 -24 -19 -52 -17 -61 2 -10 54 -32 158 -66 85 -29 157
-55 160 -59 3 -4 82 -8 175 -10 131 -2 176 0 194 11 24 13 23 14 -35 32 -32
10 -67 16 -78 13 -13 -4 -16 -2 -11 6 5 9 2 10 -14 5 -17 -5 -20 -3 -14 12 5
15 3 16 -8 6 -18 -17 -34 -16 -20 1 9 10 8 16 -3 26 -12 9 -20 9 -38 -4 -30
-21 -66 -20 -106 4 -34 21 -37 19 -44 -23 -3 -16 -10 -13 -55 22 -29 23 -55
50 -58 61 -5 16 -10 17 -30 8 -32 -15 -72 -3 -107 32 l-29 30 -20 -46z"/>
<path d="M8270 150 c0 -8 -8 -10 -24 -6 -18 4 -29 1 -39 -14 -7 -11 -17 -17
-20 -13 -4 3 -7 1 -7 -5 0 -6 -7 -9 -15 -6 -8 4 -15 1 -15 -5 0 -6 -3 -10 -7
-9 -5 0 -29 -5 -55 -12 l-48 -14 31 -13 c46 -19 89 -16 163 12 80 30 130 32
174 5 l32 -20 0 55 c0 60 -4 63 -38 39 -32 -22 -87 -22 -112 1 -13 12 -20 14
-20 5z m-5 -49 c-6 -5 -25 10 -25 20 0 5 6 4 14 -3 8 -7 12 -15 11 -17z"/>
</g>
</svg>
