<?xml version="1.0" standalone="no"?>
<!DOCTYPE svg PUBLIC "-//W3C//DTD SVG 20010904//EN"
 "http://www.w3.org/TR/2001/REC-SVG-20010904/DTD/svg10.dtd">
<svg version="1.0" xmlns="http://www.w3.org/2000/svg"
 width="700.000000pt" height="451.000000pt" viewBox="0 0 700.000000 451.000000"
 preserveAspectRatio="xMidYMid meet">

<g transform="translate(0.000000,451.000000) scale(0.100000,-0.100000)"
fill="#000000" stroke="none">
<path d="M3315 4433 c-238 -29 -496 -105 -670 -196 -96 -51 -171 -94 -208
-120 -300 -211 -503 -502 -573 -822 -22 -100 -29 -286 -15 -386 22 -157 80
-324 155 -450 l35 -59 -127 -60 c-70 -34 -143 -70 -162 -80 -84 -44 -85 -44
-137 11 -82 87 -225 168 -378 215 -73 22 -357 32 -432 15 -168 -39 -288 -94
-396 -182 -157 -128 -249 -333 -232 -513 11 -112 77 -268 142 -334 7 -7 16
-19 20 -25 18 -28 150 -127 214 -161 254 -133 602 -136 856 -7 33 17 66 38 73
46 7 8 18 15 25 15 23 0 160 143 199 208 56 93 78 163 84 272 6 118 -8 185
-57 283 -38 76 -38 76 -17 90 20 13 59 32 276 134 76 35 188 89 208 100 2 1
-9 21 -26 45 -55 80 -109 206 -148 349 -29 102 -26 375 4 491 39 148 109 288
211 423 53 70 190 207 241 241 19 13 54 37 78 54 23 16 45 30 49 30 3 0 21 11
39 25 18 14 38 25 44 25 7 0 24 9 39 19 15 11 45 26 67 34 21 8 77 29 124 47
47 18 103 36 125 40 22 4 78 17 125 28 47 11 135 23 195 27 162 9 155 6 155
76 l0 59 -87 -1 c-49 -1 -101 -4 -118 -6z m-2210 -2058 c70 -8 197 -48 236
-76 15 -10 30 -19 34 -19 11 0 64 -45 122 -102 102 -101 157 -262 134 -394
-12 -67 -57 -175 -89 -211 -9 -11 -31 -36 -49 -56 -105 -119 -318 -206 -504
-207 -90 0 -242 33 -320 70 -106 52 -116 58 -186 129 -161 160 -196 368 -96
562 31 58 159 193 195 204 13 4 34 16 48 25 65 46 278 94 375 85 22 -2 67 -7
100 -10z"/>
<path d="M633 1945 c0 -33 2 -45 4 -27 2 18 2 45 0 60 -2 15 -4 0 -4 -33z"/>
<path d="M1519 1993 c-4 -17 -6 -39 -8 -66 -1 -23 -5 -28 -23 -25 -17 2 -22 9
-21 26 2 12 -2 22 -8 22 -6 0 -9 -12 -7 -27 3 -24 8 -28 41 -31 l37 -3 0 55
c0 31 -2 56 -5 56 -3 0 -6 -3 -6 -7z"/>
<path d="M453 1983 c-21 -8 -15 -31 12 -49 31 -20 32 -31 3 -37 -20 -3 -20 -4
2 -3 33 1 34 37 3 51 -36 16 -27 31 16 26 7 -2 10 2 6 8 -6 11 -21 13 -42 4z"/>
<path d="M820 1980 c0 -5 5 -10 10 -10 6 0 10 5 10 10 0 6 -4 10 -10 10 -5 0
-10 -4 -10 -10z"/>
<path d="M1117 1983 c-4 -3 -7 -26 -7 -50 0 -40 2 -43 28 -43 41 0 60 15 46
37 -6 10 -21 19 -33 21 -11 2 -21 10 -21 18 0 19 15 18 35 -2 20 -20 33 -11
15 11 -13 15 -51 20 -63 8z m53 -68 c0 -8 -9 -15 -20 -15 -11 0 -20 7 -20 15
0 8 9 15 20 15 11 0 20 -7 20 -15z"/>
<path d="M768 1969 c-2 -6 -2 -26 0 -45 3 -24 9 -34 21 -33 10 0 11 2 4 6 -15
5 -18 50 -4 55 5 2 3 8 -4 15 -9 9 -15 9 -17 2z"/>
<path d="M538 1949 c-22 -13 -23 -45 -2 -53 42 -16 80 6 68 38 -10 25 -22 19
-16 -9 4 -22 1 -25 -22 -25 -31 0 -37 33 -8 49 9 6 13 10 7 10 -5 0 -18 -4
-27 -10z"/>
<path d="M665 1946 c-12 -27 7 -50 44 -54 29 -3 31 -1 31 27 0 17 -4 31 -10
31 -5 0 -10 -11 -10 -25 0 -18 -5 -25 -19 -25 -15 0 -21 8 -23 33 -3 27 -5 29
-13 13z"/>
<path d="M1303 1944 c-4 -10 1 -20 13 -27 18 -10 18 -11 -6 -18 l-25 -7 27 -1
c36 -1 43 14 16 34 -20 13 -21 17 -8 25 10 7 11 10 2 10 -7 0 -15 -7 -19 -16z"/>
<path d="M820 1920 c0 -16 5 -30 10 -30 6 0 10 14 10 30 0 17 -4 30 -10 30 -5
0 -10 -13 -10 -30z"/>
<path d="M860 1925 c0 -18 7 -26 25 -31 14 -3 32 -4 40 0 16 6 21 56 5 56 -5
0 -9 -10 -7 -22 2 -18 -3 -23 -23 -23 -20 0 -25 5 -23 23 2 12 -2 22 -7 22 -6
0 -10 -11 -10 -25z"/>
<path d="M960 1920 c0 -16 4 -30 9 -30 5 0 11 14 13 30 3 20 0 30 -9 30 -8 0
-13 -12 -13 -30z"/>
<path d="M1020 1921 c0 -17 5 -31 10 -31 6 0 10 11 10 24 0 14 -4 28 -10 31
-6 4 -10 -7 -10 -24z"/>
<path d="M1238 1933 c-38 -19 -36 -43 2 -43 27 0 30 3 30 30 0 17 -1 30 -2 29
-2 -1 -15 -8 -30 -16z m22 -23 c0 -5 -9 -10 -21 -10 -11 0 -17 5 -14 10 3 6
13 10 21 10 8 0 14 -4 14 -10z"/>
<path d="M1367 1944 c-4 -4 -7 -15 -7 -25 0 -19 39 -35 62 -26 7 3 1 6 -14 6
-38 1 -36 21 2 21 24 0 28 3 23 17 -4 11 -8 12 -11 5 -5 -15 -39 -16 -44 -1
-2 5 -7 7 -11 3z"/>
<path d="M1063 1923 c9 -2 23 -2 30 0 6 3 -1 5 -18 5 -16 0 -22 -2 -12 -5z"/>
<path d="M645 1764 c-9 -25 -14 -48 -11 -51 3 -3 8 2 12 11 8 20 54 22 54 1 0
-8 5 -15 11 -15 6 0 9 6 6 13 -2 6 -10 29 -18 50 -7 20 -18 37 -25 37 -6 0
-19 -21 -29 -46z m33 -13 c-15 -5 -19 4 -11 24 6 18 7 18 13 -1 4 -10 3 -21
-2 -23z"/>
<path d="M1260 1760 c0 -53 16 -70 22 -22 4 37 31 35 40 -3 6 -29 6 -29 5 5
-2 28 -6 36 -24 38 -13 2 -23 10 -23 18 0 8 -4 14 -10 14 -5 0 -10 -22 -10
-50z"/>
<path d="M740 1731 c0 -28 5 -51 10 -51 6 0 10 6 10 14 0 9 12 16 28 18 23 3
27 8 27 33 0 27 -3 30 -37 33 l-38 3 0 -50z m64 30 c10 -16 -5 -41 -25 -41
-19 0 -27 29 -12 43 9 10 31 9 37 -2z"/>
<path d="M840 1731 c0 -28 5 -51 10 -51 6 0 10 6 10 14 0 9 12 16 28 18 23 3
27 8 27 33 0 27 -3 30 -37 33 l-38 3 0 -50z m65 14 c0 -13 -8 -21 -22 -23 -17
-3 -23 2 -23 16 0 10 3 22 7 26 13 13 38 1 38 -19z"/>
<path d="M940 1744 c0 -19 5 -34 10 -34 6 0 10 11 10 25 0 13 7 28 17 33 13 8
11 10 -10 10 -24 0 -27 -4 -27 -34z"/>
<path d="M999 1764 c-18 -22 1 -49 36 -49 35 0 54 27 36 49 -8 9 -24 16 -36
16 -12 0 -28 -7 -36 -16z m59 -17 c4 -20 -25 -34 -40 -19 -15 15 -1 44 19 40
10 -2 19 -11 21 -21z"/>
<path d="M1119 1773 l24 -5 -24 -12 c-35 -17 -30 -40 9 -44 32 -3 33 -2 30 30
-3 29 -7 33 -33 35 -23 1 -24 0 -6 -4z m21 -38 c0 -8 -7 -15 -15 -15 -16 0
-20 12 -8 23 11 12 23 8 23 -8z"/>
<path d="M1190 1765 c-20 -24 -8 -50 25 -52 28 -2 28 -1 5 5 -35 11 -37 38 -3
50 23 9 25 11 7 11 -12 1 -27 -6 -34 -14z"/>
<path d="M2755 4016 c-306 -173 -516 -417 -605 -702 -91 -294 -14 -642 201
-901 55 -68 213 -211 262 -239 110 -63 249 -134 262 -134 7 0 33 -9 58 -20 25
-11 68 -22 94 -25 26 -2 80 -12 118 -23 186 -52 486 -56 720 -9 33 7 64 12 69
12 5 0 66 -128 136 -285 l127 -285 -71 -35 c-39 -19 -86 -45 -103 -57 -17 -13
-35 -23 -40 -23 -8 0 -105 -92 -133 -126 -184 -227 -185 -510 -4 -741 48 -60
139 -141 199 -175 199 -115 471 -159 670 -108 43 11 84 20 91 20 12 0 117 49
200 93 17 9 39 26 49 37 10 11 22 20 27 20 14 0 99 89 139 145 170 240 139
547 -78 760 -51 51 -150 125 -167 125 -3 0 -24 11 -46 25 -22 14 -47 25 -55
25 -9 0 -30 7 -46 16 -84 43 -335 58 -493 30 -50 -9 -93 -13 -96 -9 -4 5 -26
53 -49 108 -43 99 -59 135 -100 228 -78 175 -100 226 -132 298 l-24 56 -40
-12 c-76 -24 -253 -45 -376 -45 -674 0 -1209 443 -1209 1000 0 198 69 386 202
551 57 70 216 219 234 219 6 0 16 6 22 13 6 7 40 28 76 46 68 36 70 42 35 85
-5 6 -18 23 -30 39 -24 32 -41 33 -94 3z m1955 -2714 c128 -33 246 -98 321
-179 97 -104 139 -203 139 -331 0 -153 -61 -275 -190 -383 -146 -122 -332
-173 -552 -150 -97 10 -150 26 -268 84 -79 39 -193 149 -234 226 -101 190 -63
409 97 564 53 51 129 107 146 107 5 0 26 10 46 22 20 11 53 24 73 29 21 4 66
14 102 23 81 20 215 14 320 -12z"/>
<path d="M4222 998 c-18 -23 -19 -78 -1 -78 6 0 8 8 4 20 -15 47 42 82 65 40
14 -27 -3 -60 -33 -61 -16 -1 -17 -3 -5 -6 29 -7 58 15 58 45 0 16 -5 33 -12
40 -16 16 -63 15 -76 0z"/>
<path d="M4545 1000 c3 -5 8 -10 11 -10 2 0 4 5 4 10 0 6 -5 10 -11 10 -5 0
-7 -4 -4 -10z"/>
<path d="M4488 988 c-9 -28 7 -73 27 -75 11 -2 14 0 8 3 -16 7 -17 54 -2 54 6
0 4 7 -5 15 -18 18 -23 19 -28 3z"/>
<path d="M4330 944 c0 -41 17 -46 22 -6 4 37 31 35 39 -3 5 -26 7 -27 14 -11
12 27 -7 51 -44 53 -29 1 -31 -1 -31 -33z"/>
<path d="M4553 945 c0 -22 2 -30 4 -17 2 12 2 30 0 40 -3 9 -5 -1 -4 -23z"/>
<path d="M4585 971 c-9 -8 -5 -50 5 -56 6 -4 10 5 10 19 0 14 5 26 10 26 6 0
13 1 18 2 4 1 10 -11 13 -28 7 -29 7 -29 8 -3 1 26 22 44 35 32 3 -4 6 -17 6
-30 0 -12 5 -23 10 -23 12 0 13 40 2 56 -7 11 -107 15 -117 5z"/>
<path d="M4742 968 c-30 -30 8 -72 50 -55 7 3 1 6 -14 6 -34 1 -38 21 -5 21
30 0 40 10 26 27 -14 16 -41 17 -57 1z m43 -8 c3 -5 -3 -10 -15 -10 -12 0 -18
5 -15 10 3 6 10 10 15 10 5 0 12 -4 15 -10z"/>
<path d="M4430 950 c0 -5 7 -10 15 -10 8 0 15 5 15 10 0 6 -7 10 -15 10 -8 0
-15 -4 -15 -10z"/>
<path d="M4816 903 c-6 -14 -5 -15 5 -6 7 7 10 15 7 18 -3 3 -9 -2 -12 -12z"/>
<path d="M4320 786 c0 -31 5 -56 10 -56 6 0 10 14 10 31 0 41 32 36 41 -6 l7
-30 1 31 c1 33 -21 60 -39 49 -5 -3 -10 1 -10 9 0 8 -4 18 -10 21 -6 4 -10
-15 -10 -49z"/>
<path d="M4060 780 c0 -27 5 -50 10 -50 6 0 10 11 10 25 0 20 5 25 25 25 20 0
25 -5 25 -25 0 -14 5 -25 10 -25 6 0 10 23 10 50 0 28 -4 50 -10 50 -5 0 -10
-9 -10 -20 0 -15 -7 -20 -25 -20 -18 0 -25 5 -25 20 0 11 -4 20 -10 20 -5 0
-10 -22 -10 -50z"/>
<path d="M4488 819 c-22 -13 -23 -52 -2 -74 23 -22 66 -15 80 13 12 25 8 62
-7 62 -5 0 -7 -10 -4 -22 8 -32 -16 -62 -42 -54 -41 13 -33 68 12 79 l20 5
-20 1 c-11 0 -28 -4 -37 -10z"/>
<path d="M4780 780 c0 -27 5 -50 10 -50 6 0 10 23 10 50 0 28 -4 50 -10 50 -5
0 -10 -22 -10 -50z"/>
<path d="M4867 812 c-2 -4 -2 -24 0 -44 4 -26 10 -38 21 -38 12 0 13 3 4 12
-15 15 -16 48 -2 48 6 0 10 4 10 9 0 11 -28 22 -33 13z"/>
<path d="M4183 770 c0 -25 2 -35 4 -22 2 12 2 32 0 45 -2 12 -4 2 -4 -23z"/>
<path d="M4227 792 c-23 -27 -5 -66 29 -59 14 2 22 1 17 -3 -4 -5 -19 -10 -33
-12 -23 -4 -23 -5 -6 -13 31 -13 51 7 54 56 3 41 1 45 -21 47 -13 1 -31 -6
-40 -16z m51 -25 c4 -20 -25 -34 -40 -19 -15 15 -1 44 19 40 10 -2 19 -11 21
-21z"/>
<path d="M4603 775 c2 -38 4 -40 35 -41 31 -1 32 0 32 38 0 24 -4 37 -10 33
-5 -3 -10 -17 -10 -30 0 -23 -16 -42 -27 -32 -3 4 -9 21 -14 39 -8 33 -8 33
-6 -7z"/>
<path d="M4705 800 c-3 -5 4 -10 17 -11 23 -1 22 -1 -2 -8 -39 -11 -34 -45 8
-49 29 -3 32 -1 32 25 0 42 -38 71 -55 43z m33 -42 c-6 -18 -28 -21 -28 -4 0
9 7 16 16 16 9 0 14 -5 12 -12z"/>
<path d="M4827 803 c-11 -10 -8 -73 3 -73 6 0 10 18 10 40 0 41 -2 45 -13 33z"/>
<path d="M4920 802 c0 -7 7 -26 15 -42 13 -25 13 -29 0 -34 -8 -3 -15 -11 -15
-17 0 -17 39 20 57 54 20 39 10 60 -10 22 -9 -16 -16 -25 -17 -19 0 16 -29 51
-30 36z"/>
<path d="M4418 773 c6 -2 18 -2 25 0 6 3 1 5 -13 5 -14 0 -19 -2 -12 -5z"/>
<path d="M4087 653 c-4 -3 -7 -26 -7 -50 0 -42 1 -43 33 -43 36 0 67 25 67 53
0 31 -72 62 -93 40z m70 -29 c8 -22 -9 -48 -36 -52 -18 -3 -21 1 -21 32 0 32
3 36 25 36 15 0 28 -7 32 -16z"/>
<path d="M4293 610 c0 -30 2 -43 4 -27 2 15 2 39 0 55 -2 15 -4 2 -4 -28z"/>
<path d="M4330 650 c0 -5 5 -10 11 -10 5 0 7 5 4 10 -3 6 -8 10 -11 10 -2 0
-4 -4 -4 -10z"/>
<path d="M4691 613 c-1 -52 0 -53 28 -53 59 0 66 61 8 68 -14 2 -28 11 -30 20
-3 9 -5 -7 -6 -35z m57 -16 c4 -20 -25 -34 -40 -19 -15 15 -1 44 19 40 10 -2
19 -11 21 -21z"/>
<path d="M4793 610 c0 -30 2 -43 4 -27 2 15 2 39 0 55 -2 15 -4 2 -4 -28z"/>
<path d="M4199 614 c-18 -22 1 -49 37 -51 18 -1 21 0 9 4 -37 9 -40 23 -6 23
26 0 32 3 27 16 -3 9 -6 18 -6 20 0 11 -49 2 -61 -12z m51 -4 c0 -5 -9 -10
-21 -10 -11 0 -17 5 -14 10 3 6 13 10 21 10 8 0 14 -4 14 -10z"/>
<path d="M4330 595 c0 -19 5 -35 10 -35 6 0 10 16 10 35 0 19 -4 35 -10 35 -5
0 -10 -16 -10 -35z"/>
<path d="M4377 595 c9 -19 20 -35 25 -35 7 0 38 52 38 65 0 16 -18 1 -27 -22
l-10 -28 -11 28 c-6 15 -16 27 -22 27 -5 0 -2 -16 7 -35z"/>
<path d="M4454 616 c-12 -32 0 -51 36 -53 23 -1 27 1 10 4 -40 8 -48 23 -11
23 26 0 32 4 29 18 -4 22 -56 29 -64 8z m51 -6 c4 -6 -5 -10 -20 -10 -15 0
-24 4 -20 10 3 6 12 10 20 10 8 0 17 -4 20 -10z"/>
<path d="M4540 595 c0 -19 5 -35 10 -35 6 0 10 11 10 25 0 13 8 29 18 34 14 9
13 10 -10 11 -25 0 -28 -3 -28 -35z"/>
<path d="M4610 624 c8 -3 22 -8 30 -11 11 -4 8 -8 -10 -12 -14 -4 -26 -15 -28
-24 -3 -13 4 -17 28 -17 29 0 31 2 28 33 -3 28 -7 32 -33 34 -16 1 -23 0 -15
-3z m35 -44 c-3 -5 -13 -10 -21 -10 -8 0 -14 5 -14 10 0 6 9 10 21 10 11 0 17
-4 14 -10z"/>
<path d="M4832 613 c-15 -27 3 -53 36 -52 21 1 22 2 7 6 -37 9 -40 23 -6 23
26 0 32 4 29 18 -5 24 -54 28 -66 5z m48 -3 c0 -5 -9 -10 -21 -10 -11 0 -17 5
-14 10 3 6 13 10 21 10 8 0 14 -4 14 -10z"/>
<path d="M4920 610 c0 -11 7 -20 15 -20 21 0 19 -17 -2 -24 -11 -3 -8 -4 6 -3
31 3 39 23 12 32 -26 8 -27 22 -3 28 13 4 11 5 -5 6 -17 1 -23 -5 -23 -19z"/>
<path d="M2972 3438 c-7 -7 -12 -24 -12 -40 0 -23 7 -31 50 -49 33 -14 50 -27
50 -39 0 -29 -26 -43 -65 -36 -40 8 -48 -8 -9 -18 34 -9 91 11 105 35 13 25
-12 69 -40 69 -29 0 -65 34 -58 53 4 12 18 17 46 17 22 0 43 5 46 10 9 15 -98
13 -113 -2z"/>
<path d="M3442 3413 c-24 -26 -28 -43 -12 -43 6 0 10 -20 10 -45 0 -36 5 -48
24 -61 19 -12 29 -13 43 -5 16 9 17 10 1 11 -21 0 -38 29 -38 65 0 18 7 28 25
35 31 12 32 28 3 32 -13 2 -23 8 -23 15 0 22 -10 21 -33 -4z"/>
<path d="M3124 3368 c7 -18 21 -49 31 -70 20 -41 15 -67 -15 -75 -22 -6 -28
-33 -7 -33 25 0 67 52 102 126 20 42 34 78 31 81 -13 14 -33 -9 -50 -58 l-20
-54 -25 57 c-17 38 -32 57 -44 58 -16 0 -16 -3 -3 -32z"/>
<path d="M3313 3388 c-6 -7 -13 -18 -17 -25 -8 -15 32 -53 57 -53 12 0 17 -6
15 -17 -3 -14 -13 -18 -41 -17 -20 1 -37 -2 -37 -6 0 -13 52 -18 82 -8 39 14
36 44 -7 70 -40 23 -41 44 -1 41 17 -1 26 3 26 13 0 18 -63 19 -77 2z"/>
<path d="M3565 3374 c-44 -48 -27 -99 38 -114 37 -8 77 -4 77 9 0 3 -19 6 -41
6 -32 0 -45 5 -56 23 l-15 22 61 0 c57 0 61 1 61 23 0 58 -82 77 -125 31z m83
-6 c21 -21 13 -28 -35 -28 l-48 1 24 19 c27 23 42 25 59 8z"/>
<path d="M3730 3330 c0 -56 3 -70 15 -70 11 0 15 12 15 44 0 35 5 48 22 60 36
25 58 5 58 -54 0 -38 4 -50 15 -50 11 0 15 12 15 48 0 41 4 50 23 59 39 18 57
0 57 -57 0 -38 4 -50 15 -50 21 0 20 88 -1 118 -18 26 -65 30 -84 7 -12 -14
-15 -14 -30 0 -19 18 -43 19 -71 5 -13 -7 -19 -7 -19 0 0 5 -7 10 -15 10 -12
0 -15 -14 -15 -70z"/>
<path d="M4036 3384 c-25 -24 -16 -47 26 -67 48 -23 42 -52 -8 -44 -41 7 -46
-8 -6 -16 33 -7 76 12 80 35 3 15 -32 44 -73 62 -19 8 20 26 43 21 17 -4 23
-2 20 7 -7 20 -63 22 -82 2z"/>
<path d="M2740 3000 c0 -82 3 -100 15 -100 12 0 15 18 15 100 0 82 -3 100 -15
100 -12 0 -15 -18 -15 -100z"/>
<path d="M3915 3091 c-3 -5 -1 -12 5 -16 12 -7 30 2 30 16 0 12 -27 12 -35 0z"/>
<path d="M3030 3061 c0 -11 -8 -22 -17 -24 -17 -4 -17 -5 0 -6 13 -1 17 -10
17 -47 0 -58 14 -84 45 -84 30 0 34 25 5 33 -16 4 -20 14 -20 50 0 42 2 46 28
50 l27 4 -27 2 c-21 1 -28 6 -28 21 0 11 -7 20 -15 20 -8 0 -15 -9 -15 -19z"/>
<path d="M3810 3065 c0 -7 -8 -19 -17 -24 -10 -6 -12 -11 -5 -11 7 0 12 -15
12 -39 0 -64 15 -91 50 -91 34 0 41 19 10 27 -17 4 -20 14 -20 53 0 42 3 49
23 53 l22 4 -22 2 c-16 1 -23 7 -23 21 0 11 -7 20 -15 20 -8 0 -15 -7 -15 -15z"/>
<path d="M2890 3040 c-8 -5 -25 -7 -37 -3 -22 5 -23 3 -23 -66 0 -56 3 -71 15
-71 11 0 15 12 15 49 0 32 6 55 16 65 36 37 64 10 64 -61 0 -40 4 -53 15 -53
12 0 15 14 15 63 0 59 -2 65 -25 75 -31 14 -36 14 -55 2z"/>
<path d="M3170 3037 c-33 -15 -40 -26 -40 -64 0 -45 40 -75 94 -71 23 2 40 8
38 13 -2 6 -13 9 -25 7 -29 -4 -77 17 -77 34 0 10 16 14 61 14 59 0 61 1 55
23 -3 12 -6 25 -6 29 0 6 -57 29 -69 27 -3 0 -17 -6 -31 -12z m69 -26 c14 -25
5 -31 -41 -31 -24 0 -38 5 -38 13 0 37 62 51 79 18z"/>
<path d="M3343 3036 c-21 -10 -33 -23 -38 -44 -13 -59 46 -108 101 -83 19 8
24 8 24 -2 0 -24 -24 -37 -67 -37 -43 0 -57 -12 -27 -24 31 -12 72 -6 98 15
24 19 26 26 26 99 0 74 -1 78 -22 78 -13 0 -32 2 -43 6 -11 3 -34 -1 -52 -8z
m75 -18 c7 -7 12 -27 12 -44 0 -36 -23 -50 -66 -40 -19 5 -24 13 -24 39 0 38
15 57 45 57 12 0 26 -5 33 -12z"/>
<path d="M3570 3040 c-8 -5 -25 -7 -37 -3 -22 5 -23 3 -23 -66 0 -56 3 -71 15
-71 10 0 15 10 15 34 0 46 16 86 34 86 17 0 30 16 18 24 -4 2 -14 1 -22 -4z"/>
<path d="M3653 3043 c-38 -7 -26 -22 13 -16 25 4 39 2 45 -8 14 -23 11 -26
-33 -32 -53 -7 -74 -31 -54 -61 16 -24 61 -33 82 -15 10 8 14 8 14 0 0 -6 7
-11 15 -11 19 0 22 112 2 128 -16 14 -56 21 -84 15z m67 -83 c0 -22 -34 -44
-56 -36 -19 7 -18 33 4 45 28 17 52 13 52 -9z"/>
<path d="M4028 3037 c-28 -11 -53 -60 -41 -81 3 -6 15 -21 26 -33 43 -48 137
-14 137 50 0 39 -7 49 -43 65 -32 14 -42 14 -79 -1z m74 -24 c44 -39 -2 -106
-56 -82 -19 9 -26 20 -26 40 0 51 46 75 82 42z"/>
<path d="M4255 3040 c-11 -4 -30 -6 -43 -3 -22 5 -23 4 -20 -63 2 -53 6 -69
18 -69 11 0 16 14 18 50 4 55 15 75 43 75 25 0 39 -30 39 -84 0 -34 4 -46 15
-46 19 0 22 112 3 128 -21 16 -51 21 -73 12z"/>
<path d="M3920 2970 c0 -56 3 -70 15 -70 12 0 15 14 15 70 0 56 -3 70 -15 70
-12 0 -15 -14 -15 -70z"/>
<path d="M5696 2048 c-3 -13 -6 -36 -6 -51 0 -39 20 -24 21 16 l1 32 18 -40
18 -39 18 38 18 37 12 -38 12 -38 1 53 c1 63 -20 72 -40 17 -7 -19 -16 -35
-19 -35 -3 0 -12 16 -19 35 -14 40 -26 45 -35 13z"/>
<path d="M5880 2032 c0 -5 -12 -14 -26 -21 -34 -15 -26 -36 14 -36 28 -1 32 3
32 27 0 15 -4 30 -10 33 -5 3 -10 2 -10 -3z m0 -30 c0 -13 -12 -22 -22 -16
-10 6 -1 24 13 24 5 0 9 -4 9 -8z"/>
<path d="M5928 2023 c7 -11 5 -21 -5 -31 -7 -8 -11 -17 -8 -20 3 -3 12 3 19
14 15 19 15 19 30 -1 8 -11 16 -15 16 -9 0 5 -5 15 -12 22 -8 8 -8 15 2 27 15
18 0 21 -18 3 -9 -9 -12 -9 -12 0 0 7 -5 12 -10 12 -7 0 -8 -6 -2 -17z"/>
<path d="M6000 2011 c0 -17 5 -33 10 -36 6 -4 10 8 10 29 0 20 -4 36 -10 36
-5 0 -10 -13 -10 -29z"/>
<path d="M6051 2003 c1 -28 3 -31 6 -13 3 14 10 31 15 38 8 9 6 12 -6 12 -12
0 -16 -9 -15 -37z"/>
<path d="M6098 2005 c5 -41 18 -38 24 5 3 23 1 30 -12 30 -12 0 -15 -8 -12
-35z"/>
<path d="M6148 2023 c5 -10 7 -23 5 -30 -2 -6 1 -14 6 -18 7 -4 11 7 11 29 0
26 -4 36 -15 36 -12 0 -13 -5 -7 -17z"/>
<path d="M6190 2023 c0 -31 18 -48 50 -48 27 -1 30 2 30 32 0 18 -4 33 -10 33
-5 0 -10 -11 -10 -25 0 -18 -5 -25 -20 -25 -15 0 -20 7 -20 25 0 14 -4 25 -10
25 -5 0 -10 -8 -10 -17z"/>
<path d="M6290 2005 c0 -19 4 -35 9 -35 5 0 11 16 13 35 3 24 0 35 -9 35 -8 0
-13 -13 -13 -35z"/>
<path d="M6347 2008 c8 -44 10 -45 15 -4 3 25 0 36 -9 36 -9 0 -11 -10 -6 -32z"/>
<path d="M6398 2005 c2 -19 8 -35 14 -35 13 0 6 63 -8 67 -6 2 -8 -10 -6 -32z"/>
<path d="M5650 1851 c0 -28 5 -51 10 -51 6 0 10 9 10 20 0 11 6 20 14 20 8 0
18 -9 21 -20 3 -11 11 -20 16 -20 6 0 7 5 3 11 -4 7 -7 28 -8 48 -1 33 -4 36
-33 39 l-33 3 0 -50z m56 28 c3 -6 0 -15 -7 -20 -22 -14 -29 -11 -29 11 0 21
24 27 36 9z"/>
<path d="M6214 1875 c-21 -32 -15 -58 18 -69 60 -21 105 37 60 77 -27 24 -59
21 -78 -8z m66 1 c6 -8 10 -25 8 -38 -2 -18 -9 -23 -33 -23 -24 0 -31 5 -33
23 -4 25 13 52 33 52 7 0 18 -7 25 -14z"/>
<path d="M5838 1879 c-2 -6 -2 -26 0 -45 3 -24 9 -34 21 -33 10 0 11 2 4 6
-15 5 -18 50 -4 55 5 2 3 8 -4 15 -9 9 -15 9 -17 2z"/>
<path d="M5753 1863 c-7 -2 -13 -15 -13 -29 0 -24 35 -42 62 -31 7 3 1 6 -14
6 -35 1 -37 21 -3 21 17 0 25 5 24 18 0 10 -3 12 -6 5 -5 -15 -43 -18 -43 -4
0 5 8 12 18 14 11 3 12 5 2 5 -8 0 -21 -2 -27 -5z"/>
<path d="M5890 1841 c0 -21 6 -32 21 -36 11 -4 23 -4 26 -1 4 3 -1 6 -10 6
-12 0 -17 9 -17 30 0 17 -4 30 -10 30 -5 0 -10 -13 -10 -29z"/>
<path d="M5950 1836 c0 -20 5 -36 10 -36 6 0 10 13 10 29 0 17 -4 33 -10 36
-6 4 -10 -8 -10 -29z"/>
<path d="M5990 1836 c0 -20 5 -36 10 -36 6 0 10 13 10 29 0 17 -4 33 -10 36
-6 4 -10 -8 -10 -29z"/>
<path d="M6050 1836 c0 -20 5 -36 10 -36 6 0 10 13 10 29 0 17 -4 33 -10 36
-6 4 -10 -8 -10 -29z"/>
<path d="M6092 1858 c9 -7 19 -24 21 -38 4 -21 4 -21 6 6 1 21 -5 34 -15 38
-25 10 -29 7 -12 -6z"/>
<path d="M6330 1836 c0 -20 2 -36 4 -36 8 0 12 61 4 66 -4 3 -8 -11 -8 -30z"/>
<path d="M6368 1861 c7 -4 17 -21 22 -37 l8 -29 1 31 c1 20 -5 34 -15 38 -22
9 -31 7 -16 -3z"/>
<path d="M6148 1833 c6 -2 18 -2 25 0 6 3 1 5 -13 5 -14 0 -19 -2 -12 -5z"/>
<path d="M6428 1833 c6 -2 18 -2 25 0 6 3 1 5 -13 5 -14 0 -19 -2 -12 -5z"/>
<path d="M5653 1670 c0 -30 2 -43 4 -27 2 15 2 39 0 55 -2 15 -4 2 -4 -28z"/>
<path d="M6028 1698 c-9 -28 7 -73 27 -75 11 -2 14 0 8 3 -16 7 -17 54 -2 54
8 0 8 5 -1 15 -15 18 -26 19 -32 3z"/>
<path d="M6427 1703 c-2 -4 -2 -25 0 -45 4 -26 10 -38 21 -38 12 0 13 3 4 12
-15 15 -16 45 -1 50 7 2 6 8 -4 16 -8 7 -17 9 -20 5z"/>
<path d="M5713 1693 c-19 -4 -23 -11 -23 -39 0 -41 17 -46 22 -6 2 16 9 27 18
27 9 0 16 -11 18 -27 4 -34 22 -37 22 -4 0 20 -25 61 -33 55 -1 -1 -12 -4 -24
-6z"/>
<path d="M5885 1687 c-10 -8 -16 -23 -13 -38 2 -20 9 -24 38 -26 19 -1 26 1
15 3 -45 11 -50 17 -21 23 36 7 44 26 18 40 -14 7 -24 7 -37 -2z m32 -13 c-3
-3 -12 -4 -19 -1 -8 3 -5 6 6 6 11 1 17 -2 13 -5z"/>
<path d="M5971 1686 c-8 -10 -7 -17 4 -26 20 -16 19 -27 -2 -34 -11 -3 -8 -4
7 -3 33 3 39 33 8 43 l-23 8 25 6 c20 5 22 7 8 12 -9 4 -21 1 -27 -6z"/>
<path d="M6176 1693 c-3 -4 -24 -6 -46 -5 -40 3 -40 2 -40 -33 0 -19 5 -35 10
-35 6 0 10 14 10 30 0 20 5 30 15 30 10 0 15 -10 15 -30 0 -16 5 -30 10 -30 6
0 10 14 10 31 0 41 32 36 41 -6 l7 -30 1 31 c1 31 -19 60 -33 47z"/>
<path d="M6249 1681 c-20 -16 -22 -23 -13 -38 6 -10 24 -19 40 -20 18 -1 21 0
9 4 -34 9 -41 23 -13 23 35 0 42 13 19 34 -17 15 -20 15 -42 -3z m34 -8 c-7
-2 -19 -2 -25 0 -7 3 -2 5 12 5 14 0 19 -2 13 -5z"/>
<path d="M5794 1658 c19 -44 29 -44 48 -3 8 19 12 35 8 35 -4 0 -13 -12 -20
-27 l-13 -28 -9 28 c-5 15 -14 27 -18 27 -5 0 -3 -14 4 -32z"/>
<path d="M6331 1653 c1 -36 2 -37 8 -8 4 21 12 30 26 30 14 0 22 -9 27 -30 6
-29 6 -29 5 5 -2 32 -5 35 -34 38 -32 3 -33 2 -32 -35z"/>
<path d="M2030 869 l0 -50 33 3 c31 3 32 5 32 48 0 37 -3 45 -20 47 -11 2 -14
0 -7 -3 20 -9 14 -34 -9 -34 -16 0 -20 5 -16 20 3 11 1 20 -4 20 -5 0 -9 -23
-9 -51z m55 -19 c0 -22 -39 -19 -43 3 -3 15 1 18 20 15 12 -2 23 -10 23 -18z"/>
<path d="M2287 907 c-9 -26 5 -87 21 -87 12 0 13 3 4 12 -16 16 -15 45 0 50 9
3 8 9 -4 21 -12 12 -17 13 -21 4z"/>
<path d="M2497 907 c-2 -7 -1 -30 3 -52 7 -38 8 -38 9 -8 0 17 7 34 14 37 9 5
9 7 -1 12 -6 3 -10 10 -6 15 3 5 1 9 -4 9 -6 0 -12 -6 -15 -13z"/>
<path d="M2600 870 c0 -48 1 -50 29 -50 33 0 57 23 45 42 -5 7 -7 23 -5 36 2
16 -3 22 -16 22 -14 0 -15 -2 -4 -9 16 -10 6 -31 -15 -31 -8 0 -14 9 -14 20 0
11 -4 20 -10 20 -5 0 -10 -22 -10 -50z m55 -20 c0 -8 -8 -16 -17 -18 -13 -2
-18 3 -18 18 0 15 5 20 18 18 9 -2 17 -10 17 -18z"/>
<path d="M2990 904 c0 -10 -6 -14 -14 -11 -23 9 -48 -16 -44 -44 2 -20 9 -25
41 -27 l37 -3 0 50 c0 28 -4 51 -10 51 -5 0 -10 -7 -10 -16z m-2 -46 c-4 -27
-33 -36 -42 -13 -8 22 1 35 25 35 15 0 20 -6 17 -22z"/>
<path d="M2135 887 c-10 -8 -16 -23 -13 -38 2 -20 9 -24 38 -26 33 -1 34 -1 6
5 -38 9 -40 26 -3 30 31 4 35 17 8 31 -13 7 -23 6 -36 -2z m32 -13 c-3 -3 -12
-4 -19 -1 -8 3 -5 6 6 6 11 1 17 -2 13 -5z"/>
<path d="M2221 886 c-10 -12 -8 -17 8 -26 27 -14 27 -28 -1 -33 -20 -4 -19 -4
5 -6 21 -1 27 4 27 19 0 10 -8 24 -17 29 -17 10 -17 10 0 11 10 0 15 5 12 10
-9 14 -21 12 -34 -4z"/>
<path d="M2408 880 c-19 -15 -21 -22 -12 -37 16 -27 60 -29 74 -3 12 23 8 35
-20 50 -14 7 -24 5 -42 -10z m50 -23 c4 -20 -25 -34 -40 -19 -15 15 -1 44 19
40 10 -2 19 -11 21 -21z"/>
<path d="M2718 892 c-13 -2 -18 -13 -18 -38 0 -19 5 -34 10 -34 6 0 10 10 10
23 0 13 5 28 12 35 14 14 9 20 -14 14z"/>
<path d="M2766 884 c-31 -30 -15 -65 28 -63 30 2 30 2 4 6 -40 6 -36 33 4 33
30 0 31 0 13 20 -22 24 -29 25 -49 4z m31 -10 c-3 -3 -12 -4 -19 -1 -8 3 -5 6
6 6 11 1 17 -2 13 -5z"/>
<path d="M2856 887 c-11 -8 -17 -23 -14 -38 2 -20 9 -24 38 -26 33 -1 34 -1 6
5 -38 9 -40 26 -3 30 29 4 34 11 15 30 -15 15 -20 15 -42 -1z m31 -13 c-3 -3
-12 -4 -19 -1 -8 3 -5 6 6 6 11 1 17 -2 13 -5z"/>
<path d="M2348 863 c6 -2 18 -2 25 0 6 3 1 5 -13 5 -14 0 -19 -2 -12 -5z"/>
<path d="M2548 863 c6 -2 18 -2 25 0 6 3 1 5 -13 5 -14 0 -19 -2 -12 -5z"/>
<path d="M2193 743 c-9 -3 -13 -23 -12 -56 1 -29 4 -42 6 -29 3 13 12 22 22
22 23 0 45 25 38 43 -6 16 -35 26 -54 20z m40 -20 c9 -9 -12 -33 -29 -33 -8 0
-14 9 -14 20 0 19 28 28 43 13z"/>
<path d="M2271 675 c1 -27 3 -32 6 -15 3 14 12 33 20 42 14 15 13 17 -6 15
-18 -1 -21 -7 -20 -42z"/>
<path d="M2332 708 c-32 -32 8 -80 48 -58 34 18 19 70 -20 70 -9 0 -21 -5 -28
-12z m45 -9 c15 -15 5 -39 -17 -39 -22 0 -32 24 -17 39 6 6 14 11 17 11 3 0
11 -5 17 -11z"/>
<path d="M2420 701 c-5 -11 -7 -26 -4 -35 7 -19 39 -30 56 -20 9 6 5 10 -12
14 -34 8 -34 42 0 51 l25 7 -27 1 c-17 1 -31 -6 -38 -18z"/>
<path d="M2500 705 c-25 -31 25 -84 53 -56 8 8 4 11 -16 11 -20 0 -27 5 -27
19 0 23 15 35 32 25 8 -5 6 -10 -8 -15 -16 -6 -14 -8 9 -8 25 -1 27 1 17 19
-13 23 -42 26 -60 5z"/>
<path d="M2590 700 c0 -11 7 -20 15 -20 8 0 15 -4 15 -10 0 -5 -7 -10 -15 -10
-8 0 -15 -4 -15 -10 0 -15 26 -12 41 6 10 13 10 17 -2 25 -8 5 -17 9 -21 9
-15 0 -8 19 10 23 13 4 11 5 -5 6 -17 1 -23 -5 -23 -19z"/>
<path d="M2657 706 c-6 -15 1 -26 14 -26 5 0 6 6 3 14 -3 8 2 16 13 19 15 4
15 5 -3 6 -12 0 -24 -5 -27 -13z"/>
<path d="M2732 708 c-20 -20 -14 -48 13 -60 19 -9 28 -9 37 0 9 9 5 12 -16 12
-23 0 -27 4 -24 23 2 12 10 22 18 22 8 0 14 -6 13 -12 -2 -7 4 -13 12 -13 13
0 14 4 5 20 -12 22 -40 26 -58 8z"/>
<path d="M2820 700 c0 -11 7 -20 15 -20 8 0 15 -4 15 -10 0 -5 -10 -10 -22
-10 -17 0 -19 -3 -10 -12 9 -9 17 -10 29 -2 25 16 27 32 4 39 -26 8 -27 22 -3
28 13 4 11 5 -5 6 -17 1 -23 -5 -23 -19z"/>
<path d="M2690 670 c0 -5 -10 -10 -22 -10 -17 0 -19 -3 -10 -12 9 -9 17 -10
29 -2 20 13 29 34 14 34 -6 0 -11 -4 -11 -10z"/>
</g>
</svg>
