<?xml version="1.0" standalone="no"?>
<!DOCTYPE svg PUBLIC "-//W3C//DTD SVG 20010904//EN"
 "http://www.w3.org/TR/2001/REC-SVG-20010904/DTD/svg10.dtd">
<svg version="1.0" xmlns="http://www.w3.org/2000/svg"
 width="1350.000000pt" height="450.000000pt" viewBox="0 0 1350.000000 450.000000"
 preserveAspectRatio="xMidYMid meet">

<g transform="translate(0.000000,450.000000) scale(0.100000,-0.100000)"
fill="#000000" stroke="none">
<path d="M6446 4255 c-11 -8 -28 -15 -38 -15 -28 0 -21 -23 18 -58 32 -28 37
-30 51 -17 8 8 19 15 24 15 13 0 11 -27 -2 -36 -8 -4 -7 -9 2 -15 11 -7 12
-12 1 -26 -35 -49 -46 -92 -50 -183 -5 -132 28 -303 54 -278 3 4 1 15 -5 26
-12 23 -15 151 -4 202 l6 33 37 -73 37 -73 20 26 20 26 46 -32 c26 -18 47 -38
47 -45 0 -7 4 -11 9 -8 4 3 33 -12 64 -34 30 -22 59 -40 63 -40 16 0 -9 139
-36 204 -17 39 -30 87 -30 107 0 20 -7 42 -15 49 -8 7 -15 20 -15 30 0 36 -81
82 -160 90 l-55 5 2 38 c5 78 -42 119 -91 82z"/>
<path d="M5126 3983 c-3 -4 -25 -9 -49 -12 -38 -5 -42 -9 -45 -36 -2 -16 4
-39 12 -50 15 -20 15 -20 16 1 0 28 19 44 52 44 24 0 28 4 28 30 0 31 -2 35
-14 23z"/>
<path d="M5011 3785 c-51 -43 -54 -70 -37 -302 9 -114 20 -226 26 -248 5 -22
10 -43 10 -46 0 -4 -58 -10 -130 -14 l-130 -7 0 -29 0 -29 -245 0 -246 0 -24
-25 -25 -24 0 -1146 c0 -1106 1 -1166 27 -1195 3 -3 104 -7 226 -10 l222 -5
17 -182 c9 -100 19 -186 22 -192 4 -6 13 -8 21 -4 12 4 15 25 15 97 0 50 3
135 7 189 l6 97 27 0 28 0 8 -192 c8 -168 11 -191 26 -194 18 -2 22 18 33 191
3 50 9 114 12 142 l6 53 173 0 174 0 0 170 0 170 80 0 c79 0 80 0 80 25 l0 25
271 0 271 0 -3 -402 -4 -403 238 -3 c154 -1 245 1 258 8 18 10 19 20 17 158
l-3 147 -57 3 c-55 3 -57 4 -63 35 -4 18 -9 40 -11 50 -5 16 12 17 260 17
l266 0 0 -205 c0 -198 1 -205 20 -205 19 0 20 7 20 115 l0 115 210 0 210 0 0
-115 0 -115 25 0 25 0 0 205 0 205 135 0 c122 0 137 2 155 20 20 20 20 33 20
1179 l0 1160 -26 20 c-26 20 -38 21 -383 21 -237 1 -350 4 -339 10 15 9 13 20
-19 118 -20 59 -39 111 -43 115 -4 4 -15 -4 -24 -19 -17 -25 -17 -28 14 -98
27 -64 30 -76 19 -99 -12 -26 -14 -27 -105 -27 l-92 0 -22 -35 c-24 -38 -26
-38 -89 9 l-35 26 -598 0 c-587 0 -597 0 -608 20 -6 11 -17 20 -25 20 -19 0
-19 -1 7 142 16 86 19 124 11 136 -6 10 -34 20 -74 27 l-64 10 -3 62 -3 63 30
-6 c33 -7 99 25 134 64 25 28 14 44 -20 31 -29 -11 -45 -3 -144 75 -77 61
-122 69 -168 31z m211 -121 c28 -14 29 -17 15 -32 -15 -14 -18 -14 -37 3 -18
17 -28 45 -15 45 4 0 20 -7 37 -16z m34 -423 l6 -131 -100 0 -99 0 12 54 c7
30 16 86 20 125 l7 70 41 5 c56 8 101 12 105 10 2 -1 5 -61 8 -133z m-386
-116 l55 -13 -67 -1 c-63 -1 -79 5 -61 22 8 9 7 9 73 -8z m2703 -267 c4 -79 7
-464 7 -855 l0 -713 -105 0 -105 0 0 370 0 370 -25 0 c-23 0 -25 -3 -25 -50
l0 -50 -54 0 c-30 0 -57 4 -60 8 -2 4 2 37 9 72 36 172 35 204 -11 395 -44
185 -55 207 -111 231 -42 18 -53 18 -53 -2 0 -12 -6 -15 -25 -10 -22 6 -30 -1
-71 -66 -26 -40 -74 -106 -106 -146 l-60 -73 26 -24 26 -24 66 29 c36 17 69
30 73 30 4 0 13 -24 20 -53 11 -51 10 -59 -38 -212 -49 -156 -50 -159 -51
-105 l-1 55 -19 -35 c-18 -32 -19 -59 -20 -372 l0 -338 -946 -2 -946 -3 -24
-59 c-21 -53 -24 -74 -24 -203 l0 -143 -125 0 -125 0 0 150 c0 132 -3 156 -22
205 l-23 55 -152 0 -153 0 0 855 0 855 1623 0 1624 0 6 -142z m-623 -441 c-8
-8 -40 -31 -70 -51 l-55 -38 55 51 c30 28 62 51 70 51 13 0 13 -2 0 -13z m173
-479 c-6 -12 -121 -9 -128 2 -4 6 22 56 57 110 l63 100 6 -102 c3 -57 4 -106
2 -110z m-175 -110 c33 -106 36 -128 18 -128 -8 0 -20 -9 -26 -20 -6 -11 -17
-20 -25 -20 -12 0 -15 21 -15 115 0 94 3 115 15 115 9 0 21 -23 33 -62z m238
0 c77 -97 78 -98 65 -111 -6 -6 -11 -21 -11 -34 0 -23 -2 -23 -114 -23 l-113
0 -6 83 c-4 45 -7 97 -7 115 l0 32 69 0 68 0 49 -62z m134 -53 l0 -115 -32 0
-32 0 24 17 c14 9 26 17 28 18 1 1 -16 41 -38 90 -22 48 -40 91 -40 96 0 5 20
9 45 9 l45 0 0 -115z m0 -270 l0 -115 -210 0 -210 0 0 115 0 115 210 0 210 0
0 -115z m0 -185 l0 -30 -210 0 -210 0 0 30 0 30 210 0 210 0 0 -30z m0 -680
l0 -70 -210 0 -210 0 0 70 0 70 210 0 210 0 0 -70z m-1016 -155 c48 -28 48
-28 26 -45 -12 -9 -48 -31 -81 -49 l-59 -32 0 96 0 97 33 -20 c17 -11 54 -32
81 -47z"/>
<path d="M4840 2665 c0 -13 41 -15 310 -15 269 0 310 2 310 15 0 13 -41 15
-310 15 -269 0 -310 -2 -310 -15z"/>
<path d="M5606 2404 c-5 -12 -14 -15 -37 -10 -17 3 -40 1 -51 -5 -19 -10 -19
-11 6 -34 21 -19 25 -30 20 -54 -5 -23 -3 -31 8 -31 24 0 55 28 62 56 4 15 17
34 28 44 13 11 19 23 15 33 -8 22 -43 22 -51 1z"/>
<path d="M5397 2294 l-27 -15 19 -37 c11 -20 31 -52 45 -71 36 -49 43 -108 17
-157 -65 -125 -65 -122 -64 -250 0 -67 3 -127 7 -132 9 -16 273 -14 279 1 5
13 11 168 9 231 0 21 -12 62 -27 92 -14 29 -29 70 -32 91 -5 36 -5 37 12 21
17 -16 19 -16 40 0 l23 17 -29 57 c-31 61 -66 88 -117 88 -47 0 -90 20 -109
50 -17 27 -19 28 -46 14z"/>
<path d="M6438 2255 c-43 -29 -74 -98 -64 -146 12 -64 96 -140 117 -107 14 21
10 58 -6 65 -9 3 -22 18 -31 34 -13 25 -13 33 0 64 13 29 21 36 56 41 31 5 44
13 55 34 13 25 13 29 -1 34 -35 14 -90 5 -126 -19z"/>
<path d="M6556 2075 c-10 -8 -23 -16 -29 -18 -5 -1 -13 -24 -17 -50 l-7 -47
33 0 c18 0 43 4 56 9 25 9 78 58 78 72 0 9 -73 49 -87 49 -4 0 -17 -7 -27 -15z"/>
<path d="M4450 1925 l0 -35 360 0 360 0 0 35 0 35 -360 0 -360 0 0 -35z"/>
<path d="M4520 1825 l0 -25 290 0 290 0 0 25 0 25 -290 0 -290 0 0 -25z"/>
<path d="M4836 1453 c-3 -4 -25 -9 -49 -12 -36 -5 -42 -10 -45 -33 -3 -26 -3
-26 33 -15 27 8 41 8 55 -1 14 -9 19 -8 24 4 13 35 1 75 -18 57z"/>
<path d="M4719 1276 c7 -8 21 -12 31 -9 31 8 23 23 -11 23 -26 0 -29 -3 -20
-14z"/>
<path d="M4834 1275 c25 -19 32 -19 40 0 4 11 -2 15 -27 15 -30 -1 -31 -1 -13
-15z"/>
<path d="M4778 1206 c-4 -74 4 -127 15 -109 10 16 7 173 -3 173 -5 0 -10 -29
-12 -64z"/>
<path d="M9771 3796 c-8 -9 -9 -16 -2 -21 6 -3 8 -24 5 -48 -4 -29 -1 -48 10
-62 15 -20 15 -20 16 2 0 21 42 53 70 53 19 0 10 -49 -12 -64 -12 -9 -18 -16
-12 -16 20 0 44 36 44 67 0 33 -13 49 -45 55 -12 2 -21 13 -23 26 -4 25 -33
30 -51 8z"/>
<path d="M9679 3610 c-23 -13 -155 -246 -168 -296 -8 -31 -7 -69 5 -160 8 -65
18 -137 20 -159 5 -34 -4 -60 -55 -170 l-61 -129 23 -13 c18 -10 -9 -12 -159
-13 -126 0 -184 -4 -192 -12 -9 -9 -12 -98 -12 -340 l0 -328 23 5 c12 3 40 9
62 13 l40 8 3 262 2 262 862 -2 862 -3 12 -80 c6 -45 7 -84 3 -89 -16 -18 -9
-26 21 -26 30 0 40 13 19 26 -11 6 -8 53 7 142 5 27 11 32 34 32 27 0 28 -2
39 -76 6 -41 8 -86 5 -100 -5 -21 -3 -24 20 -24 26 0 38 24 15 32 -7 2 -6 28
3 83 l14 80 537 3 537 2 0 -315 0 -315 65 32 65 32 0 336 c0 248 -3 339 -12
348 -9 9 -154 12 -591 12 l-579 0 6 23 c3 12 6 39 6 60 l0 37 50 0 50 0 0 75
0 75 -50 0 -50 0 0 90 c0 123 -7 130 -133 130 -123 0 -127 -4 -127 -127 l0
-90 25 5 c18 3 25 0 25 -12 0 -13 13 -16 80 -16 58 0 79 3 77 12 -3 19 42 22
49 4 4 -10 18 -16 35 -16 19 0 29 -5 29 -15 0 -13 -29 -15 -200 -15 -171 0
-200 2 -200 15 0 10 11 15 35 15 19 0 35 5 35 10 0 6 -22 10 -50 10 l-50 0 0
-75 0 -75 55 0 55 0 0 -44 c0 -24 3 -51 6 -60 6 -14 -46 -16 -539 -16 l-546 0
-24 24 -23 23 22 74 c12 41 29 94 38 118 9 24 16 52 16 62 0 10 -21 89 -46
174 -42 147 -44 159 -32 196 l13 39 58 -41 c37 -26 63 -39 74 -35 13 5 4 20
-47 71 -84 84 -72 99 35 45 81 -40 145 -60 145 -44 0 5 -28 27 -63 49 -81 52
-137 103 -137 125 0 26 -26 45 -34 25 -11 -31 -76 -3 -76 33 0 14 -38 15 -61
2z m35 -540 c51 -84 57 -100 52 -135 -3 -22 -8 -83 -11 -135 -10 -143 4 -130
-147 -130 -72 0 -128 3 -125 7 4 3 1 16 -7 28 -14 21 -10 28 62 116 82 101 89
120 91 254 1 68 10 110 21 98 4 -4 33 -51 64 -103z m1409 -197 c-57 -2 -149
-2 -205 0 -57 1 -11 3 102 3 113 0 159 -2 103 -3z m97 -38 l0 -25 -200 0 -200
0 0 25 0 25 200 0 200 0 0 -25z"/>
<path d="M6775 3470 c-3 -6 1 -7 9 -4 18 7 21 14 7 14 -6 0 -13 -4 -16 -10z"/>
<path d="M6744 3429 c-3 -6 -2 -15 3 -20 5 -5 9 -1 9 11 0 23 -2 24 -12 9z"/>
<path d="M6605 3234 c-26 -34 -26 -36 -9 -50 45 -34 57 -37 71 -18 34 45 34
51 -1 78 l-34 25 -27 -35z m63 -3 l24 -18 -24 -27 -24 -28 -24 20 c-23 18 -23
22 -11 46 17 31 28 32 59 7z"/>
<path d="M6631 3224 c0 -11 3 -14 6 -6 3 7 2 16 -1 19 -3 4 -6 -2 -5 -13z"/>
<path d="M6638 3193 c7 -3 16 -2 19 1 4 3 -2 6 -13 5 -11 0 -14 -3 -6 -6z"/>
<path d="M801 3194 c-35 -25 -61 -96 -61 -170 0 -35 4 -64 8 -64 19 0 31 -50
25 -104 -3 -31 -9 -56 -13 -56 -14 0 -20 -30 -10 -52 5 -13 9 -19 9 -14 1 5 8
3 16 -4 8 -7 12 -17 8 -23 -3 -5 -2 -7 4 -4 6 4 32 -9 59 -28 27 -19 55 -35
61 -35 10 0 13 33 13 131 0 103 3 134 15 146 8 8 13 19 10 24 -4 5 292 9 749
9 l756 0 0 -363 0 -363 -72 -17 c-40 -9 -118 -21 -173 -27 -185 -20 -128 -49
101 -53 l121 -1 12 -176 c7 -103 11 -313 9 -509 l-3 -335 -90 2 c-50 0 -95 -4
-102 -10 -10 -8 -13 -77 -13 -299 l0 -289 -80 0 -79 0 -11 -39 c-18 -67 -28
-134 -23 -148 3 -8 -2 -13 -14 -13 -18 0 -21 9 -26 83 -7 101 -13 117 -42 117
-24 0 -27 -8 -41 -137 -4 -43 -11 -63 -20 -63 -9 0 -14 11 -14 28 0 15 -7 60
-17 100 l-17 72 -258 0 c-286 0 -269 -5 -243 70 22 62 20 79 -31 244 -45 146
-46 154 -42 258 3 86 1 104 -10 96 -7 -6 -15 -8 -18 -5 -3 3 4 11 16 17 18 10
22 9 27 -9 3 -13 14 -21 27 -22 11 0 31 -2 44 -3 13 -2 26 2 29 7 3 6 1 7 -5
3 -7 -4 -12 -2 -12 4 0 6 -4 8 -10 5 -5 -3 -10 -1 -10 6 0 10 -3 10 -12 1 -14
-14 -32 -16 -24 -4 3 5 -5 15 -18 21 -18 10 -25 24 -29 64 -3 29 -16 83 -29
122 -22 68 -24 70 -68 83 -25 7 -60 10 -78 7 -44 -8 -99 -59 -112 -103 -5 -20
-10 -125 -10 -232 0 -185 8 -266 41 -443 12 -66 12 -69 -16 -127 l-29 -60 -93
0 -93 0 0 268 0 268 149 459 c83 253 148 461 146 464 -14 13 -34 -18 -58 -93
-23 -71 -32 -86 -49 -86 -13 0 -18 5 -15 14 6 14 -20 41 -60 63 -31 18 -30 19
-37 -32 -7 -45 -26 -63 -26 -25 0 11 -11 27 -25 36 -22 14 -25 23 -25 75 0 32
-3 60 -7 62 -5 3 -7 -13 -7 -34 3 -54 -5 -79 -22 -72 -11 4 -14 -6 -14 -41 0
-39 -3 -46 -20 -46 -11 0 -20 2 -20 4 0 12 32 91 39 96 10 6 2 70 -8 70 -4 0
-43 -116 -88 -257 -45 -142 -163 -514 -262 -826 -100 -313 -181 -573 -181
-579 0 -5 5 -8 12 -6 7 3 23 39 37 81 l25 77 143 0 c111 0 143 -3 143 -13 0
-7 -9 -41 -21 -76 -20 -58 -20 -86 0 -65 5 5 51 137 103 294 l93 285 3 -274
c1 -182 6 -279 13 -288 9 -10 117 -13 570 -13 366 0 559 -3 559 -10 0 -5 14
-10 30 -10 17 0 30 5 30 10 0 6 14 10 30 10 17 0 30 -4 30 -10 0 -5 11 -10 25
-10 14 0 25 5 25 10 0 6 78 10 214 10 160 0 216 3 224 13 6 7 12 30 14 52 l3
40 63 3 63 3 -7 -38 c-9 -52 -10 -53 -56 -53 -35 0 -39 -2 -28 -15 18 -22 392
-22 410 0 11 13 7 15 -28 15 -46 0 -48 1 -57 52 l-7 38 193 2 194 3 0 340 0
340 -277 3 -278 2 0 38 c0 20 11 150 25 287 14 138 25 295 25 349 l0 99 37 31
c115 98 158 160 136 194 -5 9 -54 44 -109 79 -85 54 -106 62 -146 63 -42 0
-48 3 -48 21 0 11 11 35 25 54 14 18 28 49 32 67 8 51 -14 68 -88 68 -65 0
-68 -4 -53 -79 6 -28 10 -31 41 -31 23 0 33 -4 30 -12 -2 -7 -16 -13 -30 -13
-25 1 -26 0 -12 -22 25 -38 19 -53 -20 -53 l-35 0 0 428 c0 320 -3 431 -12
440 -9 9 -198 12 -788 12 l-776 0 -13 36 c-18 51 -67 68 -110 38z m89 -82 c0
-10 -6 -26 -13 -37 -18 -26 -28 -65 -16 -65 4 0 6 -7 3 -15 -8 -19 -28 -19
-43 -1 -8 10 -9 16 -1 21 13 8 13 52 0 60 -5 3 -10 15 -10 27 0 14 5 18 16 14
8 -3 12 -2 9 4 -4 6 7 10 24 10 23 0 31 -5 31 -18z m1924 -1033 l36 -21 -22
-39 c-23 -42 -65 -86 -73 -77 -8 8 7 158 16 158 4 0 24 -9 43 -21z m-2076
-396 l-3 -78 -49 -3 c-37 -2 -47 0 -44 10 3 7 15 43 27 81 20 59 26 67 47 67
25 0 25 -1 22 -77z m250 65 c-3 -7 -13 -38 -23 -68 -19 -62 -34 -78 -67 -74
-13 1 -42 3 -65 3 l-43 1 0 75 0 75 101 0 c77 0 100 -3 97 -12z m1636 -95 c3
-21 8 -121 11 -223 3 -102 8 -206 11 -231 5 -41 3 -47 -16 -52 -12 -3 -24 -15
-27 -26 -4 -15 -13 -21 -34 -21 -35 0 -33 -34 -17 318 l11 272 28 0 c24 0 28
-5 33 -37z m-1886 -155 l3 -78 -80 0 -80 0 14 41 c8 22 19 58 25 80 l11 40 52
-3 52 -3 3 -77z m165 -4 l-25 -74 -44 0 -44 0 0 78 0 77 69 -3 69 -4 -25 -74z
m-163 -184 l0 -80 -111 0 c-60 0 -108 3 -106 8 3 4 15 40 26 80 l22 72 84 0
85 0 0 -80z m125 68 c-37 -120 -48 -148 -61 -148 -11 0 -14 18 -14 80 l0 80
40 0 c27 0 38 -4 35 -12z m284 -70 c30 -32 49 -58 43 -58 -6 0 -21 13 -33 29
-19 25 -24 28 -36 16 -7 -8 -13 -18 -12 -22 4 -22 -3 -25 -20 -9 -19 17 -19
46 1 46 5 0 6 -4 3 -10 -3 -5 -2 -10 4 -10 20 0 20 17 0 49 -27 45 -14 36 50
-31z m-78 42 c28 -16 23 -30 -6 -17 -14 7 -25 15 -25 20 0 10 8 9 31 -3z m-7
-36 c3 -8 2 -12 -4 -9 -6 3 -10 10 -10 16 0 14 7 11 14 -7z m102 -65 c19 -22
19 -22 -3 -10 -13 6 -23 16 -23 21 0 15 5 12 26 -11z m67 -22 c-4 -6 0 -8 11
-4 10 4 15 3 11 -3 -3 -6 -1 -10 6 -10 7 0 10 -3 7 -6 -4 -3 -15 -1 -26 5 -24
13 -38 43 -17 34 8 -3 12 -10 8 -16z m7 -39 c0 -5 -9 -4 -20 2 -11 6 -20 12
-20 14 0 2 9 2 20 -1 11 -3 20 -9 20 -15z m-500 -68 l0 -80 -139 0 -140 0 9
28 c5 15 16 51 25 80 l17 52 114 0 114 0 0 -80z m57 48 c-3 -7 -5 -2 -5 12 0
14 2 19 5 13 2 -7 2 -19 0 -25z m2423 -343 l0 -245 -475 0 -475 0 0 245 0 245
475 0 475 0 0 -245z m-2480 173 c0 -6 -10 -42 -22 -80 l-22 -68 -148 0 c-113
0 -146 3 -143 13 2 6 13 42 25 80 l22 67 144 0 c104 0 144 -3 144 -12z m475
-237 l67 -105 -7 -73 -7 -73 -105 0 c-115 0 -112 -3 -61 56 15 16 19 47 24
167 4 82 10 144 15 140 4 -4 37 -55 74 -112z m-535 47 c0 -6 -10 -42 -22 -80
l-22 -68 -149 0 c-115 0 -148 3 -145 13 3 6 15 42 27 80 l23 67 144 0 c104 0
144 -3 144 -12z m-60 -186 c0 -4 -11 -39 -23 -78 l-24 -69 -133 -3 c-74 -1
-140 0 -146 2 -10 4 -7 24 12 80 l26 76 144 0 c79 0 144 -4 144 -8z"/>
<path d="M1080 1286 c0 -2 8 -10 18 -17 15 -13 16 -12 3 4 -13 16 -21 21 -21
13z"/>
<path d="M725 2708 c-48 -132 -57 -178 -62 -314 l-5 -141 39 -6 c22 -4 95 -7
163 -8 92 0 125 3 131 13 10 15 12 205 3 261 -6 34 -9 37 -40 37 -31 0 -34 3
-34 31 0 16 -4 28 -9 25 -4 -3 -15 2 -24 12 -9 9 -41 30 -73 47 -31 16 -59 35
-61 42 -7 17 -22 17 -28 1z"/>
<path d="M1603 2663 c103 -2 271 -2 375 0 103 1 18 2 -188 2 -206 0 -291 -1
-187 -2z"/>
<path d="M12462 2514 c-5 -8 -20 -21 -33 -27 -15 -8 -25 -23 -27 -41 -3 -25
-1 -27 20 -20 43 13 53 10 56 -19 4 -34 23 -31 36 6 8 22 5 33 -13 58 -13 17
-20 33 -18 36 12 12 28 -11 43 -62 15 -53 42 -85 72 -85 11 0 12 3 3 14 -6 7
-20 39 -31 71 -11 32 -25 64 -31 71 -16 19 -66 18 -77 -2z"/>
<path d="M8885 2212 c-26 -5 -75 -51 -75 -71 0 -9 -9 -27 -20 -41 -11 -14 -20
-31 -20 -39 0 -8 -7 -22 -15 -31 -10 -11 -13 -27 -9 -48 10 -48 32 -48 44 -1
19 68 60 62 60 -8 0 -21 4 -31 13 -28 6 2 48 11 91 20 l79 17 -26 21 c-22 19
-27 32 -30 87 -8 103 -30 134 -92 122z m58 -80 c-3 -10 -10 -22 -15 -29 -5 -6
-8 -24 -6 -40 3 -24 -1 -28 -22 -28 -23 0 -25 4 -26 50 0 37 5 56 19 72 19 21
22 22 38 7 10 -9 15 -23 12 -32z"/>
<path d="M782 2140 c0 -14 2 -19 5 -12 2 6 2 18 0 25 -3 6 -5 1 -5 -13z"/>
<path d="M2030 2150 c0 -5 12 -10 26 -10 14 0 23 4 19 10 -3 6 -15 10 -26 10
-10 0 -19 -4 -19 -10z"/>
<path d="M1424 2107 c-2 -7 -3 -74 -2 -148 l3 -134 147 -3 c139 -2 148 -1 158
18 14 26 34 26 27 -1 -5 -18 -1 -20 26 -17 l32 3 0 145 0 145 -193 3 c-152 2
-194 0 -198 -11z m254 -119 c12 -6 22 -15 22 -19 0 -6 -135 -89 -146 -89 -2 0
-4 41 -4 90 l0 90 53 -30 c28 -17 62 -36 75 -42z"/>
<path d="M12673 1849 c-64 -30 -69 -38 -64 -96 2 -22 97 -263 109 -275 4 -4
13 -3 21 1 18 12 -12 160 -47 224 -23 43 -24 51 -12 70 23 37 62 107 58 106
-1 0 -31 -14 -65 -30z"/>
<path d="M8770 1771 c-7 -42 -14 -110 -14 -151 l-1 -75 -81 -3 -81 -3 -22 76
c-14 45 -28 75 -36 75 -15 0 -1 42 -265 -790 -106 -333 -194 -608 -197 -612
-2 -5 2 -8 9 -8 8 0 22 26 34 62 l20 63 122 3 c67 1 122 1 122 0 0 -2 -9 -31
-19 -65 -14 -45 -16 -63 -7 -63 7 0 31 59 55 133 23 72 92 285 153 472 l111
340 23 -70 c12 -38 65 -203 118 -365 53 -162 99 -303 102 -312 5 -16 -2 -18
-45 -18 -28 0 -51 -4 -51 -8 0 -18 61 -102 84 -116 14 -9 37 -23 51 -31 23
-14 193 -16 1515 -15 1325 0 1490 -1 1490 -15 0 -13 63 -15 525 -15 l525 0 0
145 0 145 -441 0 c-432 0 -441 0 -446 20 -5 19 -14 20 -244 20 l-239 0 0 23
c0 12 7 83 15 157 8 74 17 234 21 355 7 219 7 221 45 339 l38 119 -25 68 c-44
122 -53 139 -69 133 -10 -4 -12 -10 -6 -18 11 -13 31 -117 31 -160 0 -16 -12
-56 -27 -89 -23 -49 -30 -57 -48 -53 -11 3 -26 6 -32 6 -24 0 -13 44 17 69 60
51 33 116 -50 123 -33 3 -35 1 -36 -27 0 -16 -4 -40 -8 -52 -6 -19 -4 -23 13
-23 21 0 28 -14 12 -24 -5 -3 -7 -14 -5 -24 6 -24 -6 -36 -48 -49 l-36 -11
-28 65 c-25 60 -26 70 -17 129 8 57 7 64 -8 64 -12 0 -24 -21 -42 -69 l-26
-68 45 -137 44 -138 1 -176 c0 -98 8 -255 18 -350 9 -95 15 -175 12 -177 -2
-3 -174 -5 -382 -5 l-377 0 -36 77 -37 78 17 70 c13 53 18 130 22 317 l4 248
-35 35 c-30 30 -42 35 -80 35 -25 0 -66 -9 -90 -19 -25 -11 -48 -17 -51 -14
-3 4 -6 51 -6 105 l0 98 -220 0 -220 0 0 -225 0 -225 143 0 c97 0 147 4 155
12 9 9 17 9 36 -1 13 -7 44 -12 69 -10 l45 4 4 -75 c3 -65 -1 -90 -34 -195
-44 -139 -45 -152 -18 -230 11 -32 20 -64 20 -72 0 -11 -101 -13 -580 -13
l-580 0 0 571 0 571 -22 -5 c-13 -4 -42 -9 -65 -13 l-43 -7 0 -400 c0 -220 -2
-398 -5 -395 -3 3 -28 76 -55 163 -46 147 -50 167 -50 260 0 72 6 118 20 163
19 62 28 192 13 192 -5 0 -37 -7 -72 -15 -35 -9 -66 -14 -68 -12 -2 3 -11 31
-20 63 -10 33 -27 73 -38 90 l-21 31 -14 -76z m-206 -208 c7 -21 4 -23 -28
-23 -20 0 -36 2 -36 4 0 3 18 59 27 86 5 15 21 -13 37 -67z m326 0 c0 -41 -3
-54 -10 -43 -13 20 -13 100 0 100 6 0 10 -26 10 -57z m-295 -100 c10 -32 20
-64 23 -70 3 -10 -17 -13 -82 -13 -47 0 -86 2 -86 5 0 3 9 35 21 70 l21 65 42
0 43 0 18 -57z m145 53 c0 -2 -9 -34 -21 -71 -19 -61 -22 -66 -46 -63 -23 3
-29 12 -49 71 l-23 67 70 0 c38 0 69 -2 69 -4z m49 -62 c6 -31 8 -60 5 -65 -8
-13 -64 -11 -64 3 0 20 33 118 40 118 4 0 12 -25 19 -56z m1313 -41 c1 -71 3
-85 7 -53 5 35 10 45 24 44 9 -1 17 4 17 12 0 8 7 14 15 14 10 0 15 -16 18
-57 3 -56 3 -55 5 15 2 55 5 72 17 72 11 0 15 -18 18 -77 l3 -78 2 93 c2 74 5
92 17 92 12 0 15 -17 15 -90 0 -83 1 -90 20 -90 11 0 20 -4 20 -10 0 -6 -43
-10 -110 -10 l-110 0 0 110 c0 67 4 110 10 110 6 0 11 -40 12 -97z m108 83 c0
-7 -8 -16 -17 -19 -10 -3 -34 -16 -53 -28 -43 -28 -29 -11 25 30 48 35 45 34
45 17z m-1326 -68 c9 -36 7 -48 -9 -48 -10 0 -15 11 -15 35 0 39 14 47 24 13z
m-240 -116 c27 -80 23 -82 -121 -82 -96 0 -124 3 -121 13 3 6 13 36 22 65 l18
52 93 0 93 0 16 -48z m42 32 c-3 -9 -6 -20 -6 -25 0 -17 -17 -1 -23 21 -4 15
0 20 15 20 14 0 18 -5 14 -16z m104 -33 c0 -27 3 -56 6 -65 5 -13 -3 -16 -50
-16 -63 0 -65 4 -45 86 11 43 13 44 50 44 l39 0 0 -49z m117 -16 c-2 -63 -3
-65 -29 -65 -28 0 -28 1 -28 65 l0 65 30 0 30 0 -3 -65z m1490 -32 c-2 -16 -4
-5 -4 22 0 28 2 40 4 28 2 -13 2 -35 0 -50z m-1767 -87 c-4 -13 -14 -42 -20
-65 l-11 -41 -125 0 c-97 0 -125 3 -122 13 3 6 13 36 22 65 l18 52 124 0 124
0 -10 -24z m174 9 c3 -8 8 -38 12 -66 l7 -50 -38 3 c-36 3 -39 6 -56 53 -10
28 -18 56 -18 63 -1 18 85 16 93 -3z m110 -7 c12 -45 7 -108 -8 -108 -8 0 -18
9 -21 20 -3 11 -13 20 -20 20 -21 0 -28 18 -21 56 6 29 11 34 35 34 21 0 30
-6 35 -22z m62 -47 c7 -32 6 -33 -15 -22 -23 13 -24 15 -15 49 8 29 22 17 30
-27z m-409 -156 l-21 -65 -124 0 c-104 0 -123 2 -119 14 3 8 11 34 17 58 7 24
14 46 17 51 2 4 60 7 128 7 l123 0 -21 -65z m456 12 c9 -30 17 -59 17 -66 0
-8 -32 -11 -121 -9 l-121 3 -19 60 c-10 33 -19 61 -19 63 0 1 55 2 123 2 l123
0 17 -53z m1560 -335 c20 -27 37 -52 37 -56 0 -4 -46 -5 -102 -4 l-103 3 -7
80 c-7 89 -8 83 66 200 l51 80 10 -127 c10 -125 11 -128 48 -176z m991 -4 l6
-58 -35 0 c-32 0 -35 2 -35 30 0 35 17 202 27 270 7 46 12 14 37 -242z m-3045
225 c0 -10 -8 -40 -17 -68 l-17 -50 -122 -3 c-68 -1 -123 1 -123 6 0 4 9 36
21 70 l21 62 119 0 c107 0 119 -2 118 -17z m533 -10 c6 -16 11 -46 12 -68 l1
-40 -111 -3 -112 -3 -21 63 c-12 34 -21 66 -21 70 0 4 54 8 120 8 l120 0 12
-27z m-583 -150 c0 -10 -8 -40 -18 -68 l-18 -50 -121 -3 c-67 -1 -122 1 -122
6 0 4 9 36 21 70 l21 62 119 0 c107 0 119 -2 118 -17z m599 -50 l-3 -68 -86
-3 -85 -3 -18 58 c-10 32 -21 64 -23 71 -4 9 21 12 106 12 l112 0 -3 -67z
m-649 -105 c0 -7 -8 -35 -18 -63 l-18 -50 -123 -3 c-104 -2 -122 0 -117 12 3
8 11 34 17 58 7 24 14 46 17 51 2 4 58 7 124 7 89 0 119 -3 118 -12z m651 -43
l0 -55 -68 0 -69 0 -12 41 c-7 23 -15 47 -18 55 -4 11 11 14 81 14 l86 0 0
-55z m3073 -45 c33 -26 41 -63 23 -99 -17 -33 -34 -41 -80 -41 -69 0 -97 89
-42 136 33 29 65 30 99 4z"/>
<path d="M12064 435 c-29 -45 9 -95 59 -76 22 9 37 29 37 52 0 16 -40 49 -60
49 -11 0 -27 -11 -36 -25z"/>
<path d="M10930 1789 c0 -18 2 -19 15 -5 8 8 15 17 15 20 0 3 -7 6 -15 6 -9 0
-15 -9 -15 -21z"/>
<path d="M11020 1800 c0 -5 14 -10 31 -10 17 0 28 4 24 10 -3 6 -17 10 -31 10
-13 0 -24 -4 -24 -10z"/>
<path d="M11130 1800 c0 -5 14 -10 30 -10 17 0 30 5 30 10 0 6 -13 10 -30 10
-16 0 -30 -4 -30 -10z"/>
<path d="M11800 1800 c0 -5 14 -10 30 -10 17 0 30 5 30 10 0 6 -13 10 -30 10
-16 0 -30 -4 -30 -10z"/>
<path d="M11917 1804 c-6 -6 16 -34 27 -34 3 0 6 9 6 20 0 19 -20 27 -33 14z"/>
<path d="M11718 1793 c6 -2 18 -2 25 0 6 3 1 5 -13 5 -14 0 -19 -2 -12 -5z"/>
<path d="M12522 1778 c-36 -16 -43 -23 -38 -41 3 -11 13 -78 22 -149 14 -107
20 -128 33 -126 21 4 39 193 24 249 -7 28 -6 43 4 63 16 30 12 31 -45 4z"/>
<path d="M3350 1710 c-11 -11 -20 -31 -20 -44 0 -15 -7 -26 -19 -29 -29 -7
-54 -52 -45 -79 8 -23 8 -23 13 4 l6 27 48 -21 c38 -16 47 -25 44 -40 -7 -27
20 -23 29 5 4 12 7 36 5 53 -1 18 5 37 14 44 18 15 20 71 3 88 -18 18 -56 14
-78 -8z"/>
<path d="M10932 1695 c0 -16 2 -22 5 -12 2 9 2 23 0 30 -3 6 -5 -1 -5 -18z"/>
<path d="M11930 1691 c0 -11 5 -23 10 -26 6 -4 10 5 10 19 0 14 -4 26 -10 26
-5 0 -10 -9 -10 -19z"/>
<path d="M1093 1668 c-51 -35 -55 -63 -18 -105 l24 -28 1 31 c0 35 26 64 58
64 25 0 27 8 10 45 -14 31 -23 31 -75 -7z"/>
<path d="M12259 1654 l-56 -25 -6 -157 c-4 -86 -7 -199 -7 -249 l0 -93 -65 0
-65 0 0 -145 0 -145 525 0 525 0 0 145 0 145 65 0 65 0 0 140 0 140 -257 0
c-142 1 -347 0 -455 0 l-198 -1 0 136 c0 74 -3 135 -7 135 -5 0 -33 -12 -64
-26z m136 -329 c50 -49 15 -135 -55 -135 -41 0 -80 39 -80 80 0 41 39 80 80
80 19 0 40 -9 55 -25z m-126 -291 c64 -81 -42 -182 -114 -109 -53 52 -18 135
56 135 29 0 42 -6 58 -26z"/>
<path d="M12302 1308 c-7 -7 -12 -24 -12 -38 0 -33 17 -50 50 -50 33 0 50 17
50 50 0 33 -17 50 -50 50 -14 0 -31 -5 -38 -12z"/>
<path d="M12190 1027 c-46 -23 -31 -97 20 -97 48 0 66 69 25 96 -16 11 -25 11
-45 1z"/>
<path d="M10487 1618 c-7 -27 -1 -38 22 -38 28 0 54 -35 46 -62 l-7 -23 26 24
c46 43 29 85 -43 110 -19 6 -35 11 -36 11 -2 0 -5 -10 -8 -22z"/>
<path d="M1942 1617 c-9 -10 -6 -18 10 -31 18 -16 20 -25 15 -94 -4 -43 -9
-100 -13 -129 -4 -29 -3 -64 0 -79 l7 -27 81 6 c45 4 82 8 84 10 7 6 -15 217
-26 259 -16 57 -61 98 -110 98 -21 0 -42 -6 -48 -13z"/>
<path d="M10932 1580 c0 -19 2 -27 5 -17 2 9 2 25 0 35 -3 9 -5 1 -5 -18z"/>
<path d="M11930 1586 c0 -14 5 -28 10 -31 6 -4 10 7 10 24 0 17 -4 31 -10 31
-5 0 -10 -11 -10 -24z"/>
<path d="M10932 1475 c0 -16 2 -22 5 -12 2 9 2 23 0 30 -3 6 -5 -1 -5 -18z"/>
<path d="M11932 1475 c-1 -14 3 -25 8 -25 6 0 10 11 10 25 0 14 -4 25 -8 25
-4 0 -9 -11 -10 -25z"/>
<path d="M3450 1442 c0 -22 -25 -47 -57 -56 -15 -5 -28 -1 -41 12 -19 19 -20
18 -69 -33 -28 -29 -85 -79 -127 -111 -57 -44 -73 -61 -65 -71 9 -10 27 -4 87
27 43 21 92 50 111 64 40 30 51 32 51 11 0 -8 -36 -41 -79 -73 -44 -31 -80
-61 -80 -65 -2 -22 34 -14 109 22 46 23 84 41 84 41 1 0 13 -31 26 -70 l24
-69 -57 -185 c-31 -102 -57 -195 -57 -208 0 -13 9 -52 21 -88 11 -36 31 -103
45 -149 l24 -83 -25 -20 c-35 -27 -31 -38 13 -38 l39 0 6 96 c7 98 -2 164 -28
215 -23 44 -19 58 43 145 31 45 70 103 87 130 l30 49 6 -70 c4 -38 7 -109 8
-157 l1 -87 90 -115 c84 -108 89 -117 78 -141 -17 -38 1 -51 40 -28 l31 19
-18 30 c-10 16 -26 54 -36 84 -23 72 -58 134 -90 157 l-26 19 26 79 c35 107
58 246 53 320 -4 65 -33 129 -133 301 -53 89 -80 114 -125 114 -13 0 -20 -7
-20 -18z"/>
<path d="M1430 1393 c-29 -26 -35 -38 -35 -73 0 -35 6 -47 33 -71 44 -40 93
-40 133 0 21 21 29 39 29 64 l0 35 -47 -14 c-25 -8 -47 -13 -48 -12 0 2 -8 25
-16 52 l-15 50 -34 -31z"/>
<path d="M10932 1365 c0 -16 2 -22 5 -12 2 9 2 23 0 30 -3 6 -5 -1 -5 -18z"/>
<path d="M11932 1365 c1 -14 6 -25 10 -25 4 0 8 11 8 25 0 14 -4 25 -10 25 -5
0 -9 -11 -8 -25z"/>
<path d="M10932 1255 c0 -16 2 -22 5 -12 2 9 2 23 0 30 -3 6 -5 -1 -5 -18z"/>
<path d="M11930 1255 c0 -14 5 -25 10 -25 6 0 10 11 10 25 0 14 -4 25 -10 25
-5 0 -10 -11 -10 -25z"/>
<path d="M10932 1145 c0 -16 2 -22 5 -12 2 9 2 23 0 30 -3 6 -5 -1 -5 -18z"/>
<path d="M11930 1145 c0 -14 5 -25 10 -25 6 0 10 11 10 25 0 14 -4 25 -10 25
-5 0 -10 -11 -10 -25z"/>
<path d="M10932 1035 c0 -16 2 -22 5 -12 2 9 2 23 0 30 -3 6 -5 -1 -5 -18z"/>
<path d="M11932 1035 c-1 -14 3 -25 8 -25 6 0 10 11 10 25 0 14 -4 25 -8 25
-4 0 -9 -11 -10 -25z"/>
<path d="M11939 958 c-7 -25 -7 -48 1 -53 6 -4 10 7 10 24 0 17 -2 31 -5 31
-3 0 -5 -1 -6 -2z"/>
<path d="M10932 925 c0 -16 2 -22 5 -12 2 9 2 23 0 30 -3 6 -5 -1 -5 -18z"/>
<path d="M10932 820 c0 -19 2 -27 5 -17 2 9 2 25 0 35 -3 9 -5 1 -5 -18z"/>
<path d="M11930 826 c0 -14 5 -28 10 -31 6 -4 10 7 10 24 0 17 -4 31 -10 31
-5 0 -10 -11 -10 -24z"/>
<path d="M12240 730 c-27 -27 -25 -56 5 -76 21 -14 31 -15 50 -6 46 21 29 102
-22 102 -7 0 -22 -9 -33 -20z"/>
<path d="M10930 727 c0 -10 8 -17 18 -17 9 0 13 4 7 8 -5 4 -13 11 -17 16 -5
5 -8 2 -8 -7z"/>
<path d="M11935 731 c3 -5 -3 -12 -12 -14 -14 -4 -13 -5 5 -6 13 -1 22 5 22
14 0 8 -5 15 -11 15 -5 0 -8 -4 -4 -9z"/>
<path d="M11033 713 c9 -2 25 -2 35 0 9 3 1 5 -18 5 -19 0 -27 -2 -17 -5z"/>
<path d="M11143 713 c9 -2 25 -2 35 0 9 3 1 5 -18 5 -19 0 -27 -2 -17 -5z"/>
<path d="M11253 713 c9 -2 25 -2 35 0 9 3 1 5 -18 5 -19 0 -27 -2 -17 -5z"/>
<path d="M11373 713 c9 -2 23 -2 30 0 6 3 -1 5 -18 5 -16 0 -22 -2 -12 -5z"/>
<path d="M11703 713 c9 -2 25 -2 35 0 9 3 1 5 -18 5 -19 0 -27 -2 -17 -5z"/>
<path d="M11813 713 c9 -2 25 -2 35 0 9 3 1 5 -18 5 -19 0 -27 -2 -17 -5z"/>
</g>
</svg>
